G04 Layer_Color=8388736*
%FSLAX43Y43*%
%MOMM*%
G71*
G01*
G75*
G04:AMPARAMS|DCode=30|XSize=1.63mm|YSize=1.12mm|CornerRadius=0.177mm|HoleSize=0mm|Usage=FLASHONLY|Rotation=180.000|XOffset=0mm|YOffset=0mm|HoleType=Round|Shape=RoundedRectangle|*
%AMROUNDEDRECTD30*
21,1,1.630,0.765,0,0,180.0*
21,1,1.275,1.120,0,0,180.0*
1,1,0.355,-0.637,0.383*
1,1,0.355,0.637,0.383*
1,1,0.355,0.637,-0.383*
1,1,0.355,-0.637,-0.383*
%
%ADD30ROUNDEDRECTD30*%
G04:AMPARAMS|DCode=31|XSize=1.57mm|YSize=0.51mm|CornerRadius=0.101mm|HoleSize=0mm|Usage=FLASHONLY|Rotation=0.000|XOffset=0mm|YOffset=0mm|HoleType=Round|Shape=RoundedRectangle|*
%AMROUNDEDRECTD31*
21,1,1.570,0.307,0,0,0.0*
21,1,1.367,0.510,0,0,0.0*
1,1,0.203,0.684,-0.154*
1,1,0.203,-0.684,-0.154*
1,1,0.203,-0.684,0.154*
1,1,0.203,0.684,0.154*
%
%ADD31ROUNDEDRECTD31*%
G04:AMPARAMS|DCode=32|XSize=1.38mm|YSize=1.97mm|CornerRadius=0.21mm|HoleSize=0mm|Usage=FLASHONLY|Rotation=0.000|XOffset=0mm|YOffset=0mm|HoleType=Round|Shape=RoundedRectangle|*
%AMROUNDEDRECTD32*
21,1,1.380,1.550,0,0,0.0*
21,1,0.960,1.970,0,0,0.0*
1,1,0.420,0.480,-0.775*
1,1,0.420,-0.480,-0.775*
1,1,0.420,-0.480,0.775*
1,1,0.420,0.480,0.775*
%
%ADD32ROUNDEDRECTD32*%
G04:AMPARAMS|DCode=33|XSize=1.63mm|YSize=1.12mm|CornerRadius=0.177mm|HoleSize=0mm|Usage=FLASHONLY|Rotation=90.000|XOffset=0mm|YOffset=0mm|HoleType=Round|Shape=RoundedRectangle|*
%AMROUNDEDRECTD33*
21,1,1.630,0.765,0,0,90.0*
21,1,1.275,1.120,0,0,90.0*
1,1,0.355,0.383,0.637*
1,1,0.355,0.383,-0.637*
1,1,0.355,-0.383,-0.637*
1,1,0.355,-0.383,0.637*
%
%ADD33ROUNDEDRECTD33*%
%ADD34R,1.100X1.100*%
%ADD35C,1.800*%
%ADD36C,3.350*%
%ADD37C,1.500*%
%ADD38C,1.603*%
%ADD39R,1.500X1.500*%
%ADD40C,0.100*%
%ADD41R,1.800X1.800*%
%ADD42R,2.900X2.900*%
D30*
X48460Y13676D02*
D03*
Y15691D02*
D03*
X45920Y13676D02*
D03*
Y15691D02*
D03*
X43380Y13676D02*
D03*
Y15691D02*
D03*
X40840Y13676D02*
D03*
Y15691D02*
D03*
X38300Y13676D02*
D03*
Y15691D02*
D03*
X35760Y13676D02*
D03*
Y15691D02*
D03*
X33220Y13676D02*
D03*
Y15691D02*
D03*
X30680Y13676D02*
D03*
Y15691D02*
D03*
X28140Y13676D02*
D03*
Y15691D02*
D03*
X25600Y13676D02*
D03*
Y15691D02*
D03*
X23060Y13676D02*
D03*
Y15691D02*
D03*
X20520Y13676D02*
D03*
Y15691D02*
D03*
X17980Y13676D02*
D03*
Y15691D02*
D03*
X15440Y13676D02*
D03*
Y15691D02*
D03*
X12900Y13676D02*
D03*
Y15691D02*
D03*
X10360Y13676D02*
D03*
Y15691D02*
D03*
X38137Y30243D02*
D03*
X38137Y32257D02*
D03*
X40500Y30243D02*
D03*
X40500Y32257D02*
D03*
X5750Y28985D02*
D03*
Y31000D02*
D03*
D31*
X35845Y21150D02*
D03*
X35845Y20500D02*
D03*
X30225Y20500D02*
D03*
X35845Y22450D02*
D03*
X35845Y23100D02*
D03*
X35845Y23750D02*
D03*
X35845Y24400D02*
D03*
Y21800D02*
D03*
X30225Y21150D02*
D03*
X30225Y21800D02*
D03*
X30225Y24400D02*
D03*
X30225Y23750D02*
D03*
X30225Y23100D02*
D03*
X30225Y22450D02*
D03*
X35845Y26350D02*
D03*
X35845Y27000D02*
D03*
X30225Y26350D02*
D03*
X30225Y27000D02*
D03*
X35845Y27650D02*
D03*
X35845Y28300D02*
D03*
X35845Y28950D02*
D03*
X35845Y25700D02*
D03*
X30225Y27650D02*
D03*
X30225Y28300D02*
D03*
Y28950D02*
D03*
X30225Y25700D02*
D03*
X30225Y25050D02*
D03*
X35845Y25050D02*
D03*
D32*
X34494Y31776D02*
D03*
X31494D02*
D03*
D33*
X38593Y26400D02*
D03*
X40608Y26400D02*
D03*
D34*
X3448Y30368D02*
D03*
Y28968D02*
D03*
D35*
X46025Y53093D02*
D03*
X43525Y53093D02*
D03*
X14735Y42385D02*
D03*
X16005Y44925D02*
D03*
X17275Y42385D02*
D03*
X18545Y44925D02*
D03*
X29785Y42385D02*
D03*
X31055Y44925D02*
D03*
X32325Y42385D02*
D03*
X33595Y44925D02*
D03*
X46508Y51069D02*
D03*
D36*
X20500Y51275D02*
D03*
X12845D02*
D03*
X35550D02*
D03*
X27895D02*
D03*
D37*
X40840Y5945D02*
D03*
X43380Y5945D02*
D03*
X45920Y5945D02*
D03*
X48460Y5945D02*
D03*
X10360Y5945D02*
D03*
X17980D02*
D03*
X15440D02*
D03*
X25600Y5945D02*
D03*
X33220Y5945D02*
D03*
X30680Y5945D02*
D03*
X23060Y5945D02*
D03*
X20520Y5945D02*
D03*
X35760Y5945D02*
D03*
X38300Y5945D02*
D03*
X38300Y8485D02*
D03*
X35760Y8485D02*
D03*
X20520D02*
D03*
X23060Y8485D02*
D03*
X30680Y8485D02*
D03*
X33220Y8485D02*
D03*
X25600D02*
D03*
X15440Y8485D02*
D03*
X17980Y8485D02*
D03*
X10360D02*
D03*
X48460D02*
D03*
X45920Y8485D02*
D03*
X43380Y8485D02*
D03*
X40840Y8485D02*
D03*
X10360Y11025D02*
D03*
X17980Y11025D02*
D03*
X15440Y11025D02*
D03*
X25600Y11025D02*
D03*
X33220Y11025D02*
D03*
X30680Y11025D02*
D03*
X23060D02*
D03*
X20520Y11025D02*
D03*
X35760Y11025D02*
D03*
X43380Y11025D02*
D03*
X45920Y11025D02*
D03*
X38300Y11025D02*
D03*
D38*
X12900Y5945D02*
D03*
X28140Y5945D02*
D03*
X28140Y8485D02*
D03*
X12900Y8485D02*
D03*
X12900Y11025D02*
D03*
X28140D02*
D03*
X40840Y11025D02*
D03*
D39*
X48460Y11025D02*
D03*
D40*
X54500Y54475D02*
D03*
X4500Y54475D02*
D03*
X54500Y4475D02*
D03*
X4500D02*
D03*
D41*
X43008Y51069D02*
D03*
D42*
X9685Y36600D02*
D03*
Y19600D02*
D03*
X49185Y36600D02*
D03*
Y19600D02*
D03*
M02*
