G04 Layer_Color=8388736*
%FSLAX43Y43*%
%MOMM*%
G71*
G01*
G75*
%ADD30R,1.100X1.100*%
%ADD31C,1.800*%
%ADD32C,3.350*%
%ADD33C,1.500*%
%ADD34C,1.603*%
%ADD35R,1.500X1.500*%
%ADD36C,0.100*%
%ADD37R,1.800X1.800*%
%ADD38R,2.900X2.900*%
D30*
X3448Y30368D02*
D03*
Y28968D02*
D03*
D31*
X43535Y49150D02*
D03*
X46035Y49150D02*
D03*
X14735Y42385D02*
D03*
X16005Y44925D02*
D03*
X17275Y42385D02*
D03*
X18545Y44925D02*
D03*
X29785Y42385D02*
D03*
X31055Y44925D02*
D03*
X32325Y42385D02*
D03*
X33595Y44925D02*
D03*
X43008Y51369D02*
D03*
D32*
X20500Y51275D02*
D03*
X12845D02*
D03*
X35550D02*
D03*
X27895D02*
D03*
D33*
X40840Y5945D02*
D03*
X43380Y5945D02*
D03*
X45920Y5945D02*
D03*
X48460Y5945D02*
D03*
X10360Y5945D02*
D03*
X17980D02*
D03*
X15440D02*
D03*
X25600Y5945D02*
D03*
X33220Y5945D02*
D03*
X30680Y5945D02*
D03*
X23060Y5945D02*
D03*
X20520Y5945D02*
D03*
X35760Y5945D02*
D03*
X38300Y5945D02*
D03*
X38300Y8485D02*
D03*
X35760Y8485D02*
D03*
X20520D02*
D03*
X23060Y8485D02*
D03*
X30680Y8485D02*
D03*
X33220Y8485D02*
D03*
X25600D02*
D03*
X15440Y8485D02*
D03*
X17980Y8485D02*
D03*
X10360D02*
D03*
X48460D02*
D03*
X45920Y8485D02*
D03*
X43380Y8485D02*
D03*
X40840Y8485D02*
D03*
X10360Y11025D02*
D03*
X17980Y11025D02*
D03*
X15440Y11025D02*
D03*
X25600Y11025D02*
D03*
X33220Y11025D02*
D03*
X30680Y11025D02*
D03*
X23060D02*
D03*
X20520Y11025D02*
D03*
X35760Y11025D02*
D03*
X43380Y11025D02*
D03*
X45920Y11025D02*
D03*
X38300Y11025D02*
D03*
D34*
X12900Y5945D02*
D03*
X28140Y5945D02*
D03*
X28140Y8485D02*
D03*
X12900Y8485D02*
D03*
X12900Y11025D02*
D03*
X28140D02*
D03*
X40840Y11025D02*
D03*
D35*
X48460Y11025D02*
D03*
D36*
X54500Y54475D02*
D03*
X4500Y54475D02*
D03*
X54500Y4475D02*
D03*
X4500D02*
D03*
D37*
X46508Y51369D02*
D03*
D38*
X9785Y36600D02*
D03*
Y19600D02*
D03*
X49285Y36600D02*
D03*
Y19600D02*
D03*
M02*
