G04 Layer_Color=16711935*
%FSLAX43Y43*%
%MOMM*%
G71*
G01*
G75*
%ADD31C,1.800*%
%ADD32C,3.350*%
%ADD33C,1.500*%
%ADD34C,1.603*%
%ADD35R,1.500X1.500*%
%ADD36C,0.100*%
%ADD37R,1.800X1.800*%
%ADD38R,2.900X2.900*%
G04:AMPARAMS|DCode=39|XSize=1.63mm|YSize=1.12mm|CornerRadius=0.177mm|HoleSize=0mm|Usage=FLASHONLY|Rotation=90.000|XOffset=0mm|YOffset=0mm|HoleType=Round|Shape=RoundedRectangle|*
%AMROUNDEDRECTD39*
21,1,1.630,0.765,0,0,90.0*
21,1,1.275,1.120,0,0,90.0*
1,1,0.355,0.383,0.637*
1,1,0.355,0.383,-0.637*
1,1,0.355,-0.383,-0.637*
1,1,0.355,-0.383,0.637*
%
%ADD39ROUNDEDRECTD39*%
G04:AMPARAMS|DCode=40|XSize=1.63mm|YSize=1.12mm|CornerRadius=0.177mm|HoleSize=0mm|Usage=FLASHONLY|Rotation=0.000|XOffset=0mm|YOffset=0mm|HoleType=Round|Shape=RoundedRectangle|*
%AMROUNDEDRECTD40*
21,1,1.630,0.765,0,0,0.0*
21,1,1.275,1.120,0,0,0.0*
1,1,0.355,0.637,-0.383*
1,1,0.355,-0.637,-0.383*
1,1,0.355,-0.637,0.383*
1,1,0.355,0.637,0.383*
%
%ADD40ROUNDEDRECTD40*%
G04:AMPARAMS|DCode=41|XSize=1.38mm|YSize=1.97mm|CornerRadius=0.21mm|HoleSize=0mm|Usage=FLASHONLY|Rotation=180.000|XOffset=0mm|YOffset=0mm|HoleType=Round|Shape=RoundedRectangle|*
%AMROUNDEDRECTD41*
21,1,1.380,1.550,0,0,180.0*
21,1,0.960,1.970,0,0,180.0*
1,1,0.420,-0.480,0.775*
1,1,0.420,0.480,0.775*
1,1,0.420,0.480,-0.775*
1,1,0.420,-0.480,-0.775*
%
%ADD41ROUNDEDRECTD41*%
G04:AMPARAMS|DCode=42|XSize=1.57mm|YSize=0.51mm|CornerRadius=0.101mm|HoleSize=0mm|Usage=FLASHONLY|Rotation=180.000|XOffset=0mm|YOffset=0mm|HoleType=Round|Shape=RoundedRectangle|*
%AMROUNDEDRECTD42*
21,1,1.570,0.308,0,0,180.0*
21,1,1.367,0.510,0,0,180.0*
1,1,0.203,-0.684,0.154*
1,1,0.203,0.684,0.154*
1,1,0.203,0.684,-0.154*
1,1,0.203,-0.684,-0.154*
%
%ADD42ROUNDEDRECTD42*%
D31*
X43535Y49150D02*
D03*
X46035Y49150D02*
D03*
X14735Y42385D02*
D03*
X16005Y44925D02*
D03*
X17275Y42385D02*
D03*
X18545Y44925D02*
D03*
X29785Y42385D02*
D03*
X31055Y44925D02*
D03*
X32325Y42385D02*
D03*
X33595Y44925D02*
D03*
X43008Y51369D02*
D03*
D32*
X20500Y51275D02*
D03*
X12845D02*
D03*
X35550D02*
D03*
X27895D02*
D03*
D33*
X40840Y5945D02*
D03*
X43380Y5945D02*
D03*
X45920Y5945D02*
D03*
X48460Y5945D02*
D03*
X10360Y5945D02*
D03*
X17980D02*
D03*
X15440D02*
D03*
X25600Y5945D02*
D03*
X33220Y5945D02*
D03*
X30680Y5945D02*
D03*
X23060Y5945D02*
D03*
X20520Y5945D02*
D03*
X35760Y5945D02*
D03*
X38300Y5945D02*
D03*
X38300Y8485D02*
D03*
X35760Y8485D02*
D03*
X20520D02*
D03*
X23060Y8485D02*
D03*
X30680Y8485D02*
D03*
X33220Y8485D02*
D03*
X25600D02*
D03*
X15440Y8485D02*
D03*
X17980Y8485D02*
D03*
X10360D02*
D03*
X48460D02*
D03*
X45920Y8485D02*
D03*
X43380Y8485D02*
D03*
X40840Y8485D02*
D03*
X10360Y11025D02*
D03*
X17980Y11025D02*
D03*
X15440Y11025D02*
D03*
X25600Y11025D02*
D03*
X33220Y11025D02*
D03*
X30680Y11025D02*
D03*
X23060D02*
D03*
X20520Y11025D02*
D03*
X35760Y11025D02*
D03*
X43380Y11025D02*
D03*
X45920Y11025D02*
D03*
X38300Y11025D02*
D03*
D34*
X12900Y5945D02*
D03*
X28140Y5945D02*
D03*
X28140Y8485D02*
D03*
X12900Y8485D02*
D03*
X12900Y11025D02*
D03*
X28140D02*
D03*
X40840Y11025D02*
D03*
D35*
X48460Y11025D02*
D03*
D36*
X54500Y54475D02*
D03*
X4500Y54475D02*
D03*
X54500Y4475D02*
D03*
X4500D02*
D03*
D37*
X46508Y51369D02*
D03*
D38*
X9785Y36600D02*
D03*
Y19600D02*
D03*
X49285Y36600D02*
D03*
Y19600D02*
D03*
D39*
X25957Y26850D02*
D03*
X23942Y26850D02*
D03*
D40*
X6525Y28985D02*
D03*
Y31000D02*
D03*
X27922Y30543D02*
D03*
X27922Y32557D02*
D03*
X37250Y30543D02*
D03*
X37250Y32557D02*
D03*
X10335Y13676D02*
D03*
Y15691D02*
D03*
X12875Y13676D02*
D03*
Y15691D02*
D03*
X15415Y13676D02*
D03*
Y15691D02*
D03*
X17955Y13676D02*
D03*
Y15691D02*
D03*
X20495Y13676D02*
D03*
Y15691D02*
D03*
X23035Y13676D02*
D03*
Y15691D02*
D03*
X25575Y13676D02*
D03*
Y15691D02*
D03*
X28115Y13676D02*
D03*
Y15691D02*
D03*
X30655Y13676D02*
D03*
Y15691D02*
D03*
X33195Y13676D02*
D03*
Y15691D02*
D03*
X35735Y13676D02*
D03*
Y15691D02*
D03*
X38275Y13676D02*
D03*
Y15691D02*
D03*
X40815Y13676D02*
D03*
Y15691D02*
D03*
X43355Y13676D02*
D03*
Y15691D02*
D03*
X45895Y13676D02*
D03*
Y15691D02*
D03*
X48435Y13676D02*
D03*
Y15691D02*
D03*
D41*
X31073Y32151D02*
D03*
X34073D02*
D03*
D42*
X29785Y20975D02*
D03*
X29785Y20325D02*
D03*
X35405Y20325D02*
D03*
X29785Y22275D02*
D03*
X29785Y22925D02*
D03*
X29785Y23575D02*
D03*
X29785Y24225D02*
D03*
X29785Y21625D02*
D03*
X35405Y20975D02*
D03*
X35405Y21625D02*
D03*
X35405Y24225D02*
D03*
X35405Y23575D02*
D03*
X35405Y22925D02*
D03*
X35405Y22275D02*
D03*
X29785Y26175D02*
D03*
X29785Y26825D02*
D03*
X35405Y26175D02*
D03*
X35405Y26825D02*
D03*
X29785Y27475D02*
D03*
X29785Y28125D02*
D03*
X29785Y28775D02*
D03*
Y25525D02*
D03*
X35405Y27475D02*
D03*
X35405Y28125D02*
D03*
Y28775D02*
D03*
X35405Y25525D02*
D03*
X35405Y24875D02*
D03*
X29785Y24875D02*
D03*
M02*
