G04 Layer_Physical_Order=1*
G04 Layer_Color=16776960*
%FSLAX43Y43*%
%MOMM*%
G71*
G01*
G75*
%ADD10R,1.000X1.000*%
%ADD11C,0.300*%
%ADD12C,1.700*%
%ADD13C,3.250*%
%ADD14C,1.400*%
%ADD15R,1.400X1.400*%
%ADD16R,1.700X1.700*%
%ADD17R,2.800X2.800*%
%ADD18C,0.700*%
G36*
X50270Y54405D02*
X50270Y54133D01*
X50341Y53595D01*
X50482Y53071D01*
X50689Y52569D01*
X50961Y52099D01*
X51291Y51668D01*
X51675Y51284D01*
X52106Y50954D01*
X52576Y50682D01*
X53078Y50475D01*
X53602Y50334D01*
X54140Y50263D01*
X54412Y50263D01*
X58694Y50263D01*
Y8687D01*
X54412Y8687D01*
X54140D01*
X53602Y8616D01*
X53078Y8475D01*
X52576Y8268D01*
X52106Y7996D01*
X51675Y7666D01*
X51291Y7282D01*
X50961Y6851D01*
X50689Y6381D01*
X50482Y5879D01*
X50341Y5355D01*
X50270Y4817D01*
X50270Y4545D01*
X50270Y281D01*
X8730D01*
X8730Y4545D01*
X8730Y4817D01*
X8659Y5355D01*
X8518Y5879D01*
X8311Y6381D01*
X8039Y6851D01*
X7709Y7282D01*
X7325Y7666D01*
X6894Y7996D01*
X6424Y8268D01*
X5922Y8475D01*
X5398Y8616D01*
X4860Y8687D01*
X4588Y8687D01*
X4588Y8687D01*
X4588Y8687D01*
X306Y8687D01*
Y50263D01*
X4588Y50263D01*
X4588Y50263D01*
X4588Y50263D01*
X4860Y50263D01*
X5398Y50334D01*
X5922Y50475D01*
X6424Y50682D01*
X6894Y50954D01*
X7325Y51284D01*
X7709Y51668D01*
X8039Y52099D01*
X8311Y52569D01*
X8518Y53071D01*
X8659Y53595D01*
X8730Y54133D01*
X8730Y54405D01*
X8730Y58669D01*
X50270D01*
X50270Y54405D01*
D02*
G37*
%LPC*%
G36*
X43508Y52298D02*
Y51869D01*
X43937D01*
X43925Y51899D01*
X43757Y52118D01*
X43538Y52286D01*
X43508Y52298D01*
D02*
G37*
G36*
X42508Y52298D02*
X42478Y52286D01*
X42259Y52118D01*
X42091Y51899D01*
X42079Y51869D01*
X42508D01*
Y52298D01*
D02*
G37*
G36*
X43937Y50869D02*
X43508D01*
Y50440D01*
X43538Y50452D01*
X43757Y50620D01*
X43925Y50839D01*
X43937Y50869D01*
D02*
G37*
G36*
X42508D02*
X42079D01*
X42091Y50839D01*
X42259Y50620D01*
X42478Y50452D01*
X42508Y50440D01*
Y50869D01*
D02*
G37*
G36*
X43035Y50079D02*
X43006Y50067D01*
X42786Y49899D01*
X42618Y49680D01*
X42606Y49650D01*
X43035D01*
Y50079D01*
D02*
G37*
G36*
X35550Y53209D02*
X35173Y53172D01*
X34810Y53062D01*
X34475Y52883D01*
X34182Y52643D01*
X33942Y52350D01*
X33763Y52015D01*
X33653Y51652D01*
X33616Y51275D01*
X33653Y50898D01*
X33763Y50535D01*
X33942Y50200D01*
X34182Y49907D01*
X34475Y49667D01*
X34810Y49488D01*
X35173Y49378D01*
X35550Y49341D01*
X35927Y49378D01*
X36290Y49488D01*
X36625Y49667D01*
X36918Y49907D01*
X37158Y50200D01*
X37337Y50535D01*
X37447Y50898D01*
X37484Y51275D01*
X37447Y51652D01*
X37337Y52015D01*
X37158Y52350D01*
X36918Y52643D01*
X36625Y52883D01*
X36290Y53062D01*
X35927Y53172D01*
X35550Y53209D01*
D02*
G37*
G36*
X27895D02*
X27518Y53172D01*
X27155Y53062D01*
X26820Y52883D01*
X26527Y52643D01*
X26287Y52350D01*
X26108Y52015D01*
X25998Y51652D01*
X25961Y51275D01*
X25998Y50898D01*
X26108Y50535D01*
X26287Y50200D01*
X26527Y49907D01*
X26820Y49667D01*
X27155Y49488D01*
X27518Y49378D01*
X27895Y49341D01*
X28272Y49378D01*
X28635Y49488D01*
X28970Y49667D01*
X29263Y49907D01*
X29503Y50200D01*
X29682Y50535D01*
X29792Y50898D01*
X29829Y51275D01*
X29792Y51652D01*
X29682Y52015D01*
X29503Y52350D01*
X29263Y52643D01*
X28970Y52883D01*
X28635Y53062D01*
X28272Y53172D01*
X27895Y53209D01*
D02*
G37*
G36*
X20500D02*
X20123Y53172D01*
X19760Y53062D01*
X19425Y52883D01*
X19132Y52643D01*
X18892Y52350D01*
X18713Y52015D01*
X18603Y51652D01*
X18566Y51275D01*
X18603Y50898D01*
X18713Y50535D01*
X18892Y50200D01*
X19132Y49907D01*
X19425Y49667D01*
X19760Y49488D01*
X20123Y49378D01*
X20500Y49341D01*
X20877Y49378D01*
X21240Y49488D01*
X21575Y49667D01*
X21868Y49907D01*
X22108Y50200D01*
X22287Y50535D01*
X22397Y50898D01*
X22434Y51275D01*
X22397Y51652D01*
X22287Y52015D01*
X22108Y52350D01*
X21868Y52643D01*
X21575Y52883D01*
X21240Y53062D01*
X20877Y53172D01*
X20500Y53209D01*
D02*
G37*
G36*
X12845D02*
X12468Y53172D01*
X12105Y53062D01*
X11770Y52883D01*
X11477Y52643D01*
X11237Y52350D01*
X11058Y52015D01*
X10948Y51652D01*
X10911Y51275D01*
X10948Y50898D01*
X11058Y50535D01*
X11237Y50200D01*
X11477Y49907D01*
X11770Y49667D01*
X12105Y49488D01*
X12468Y49378D01*
X12845Y49341D01*
X13222Y49378D01*
X13585Y49488D01*
X13920Y49667D01*
X14213Y49907D01*
X14453Y50200D01*
X14632Y50535D01*
X14742Y50898D01*
X14779Y51275D01*
X14742Y51652D01*
X14632Y52015D01*
X14453Y52350D01*
X14213Y52643D01*
X13920Y52883D01*
X13585Y53062D01*
X13222Y53172D01*
X12845Y53209D01*
D02*
G37*
G36*
X47858Y52719D02*
X45158D01*
Y50178D01*
X45072Y50113D01*
X44856Y49831D01*
X44720Y49502D01*
X44698Y49335D01*
X44570D01*
X44558Y49424D01*
X44452Y49680D01*
X44284Y49899D01*
X44065Y50067D01*
X44035Y50079D01*
Y49150D01*
Y48221D01*
X44065Y48233D01*
X44284Y48401D01*
X44452Y48620D01*
X44558Y48876D01*
X44570Y48965D01*
X44698D01*
X44720Y48798D01*
X44856Y48469D01*
X45072Y48187D01*
X45354Y47971D01*
X45683Y47835D01*
X46035Y47788D01*
X46388Y47835D01*
X46716Y47971D01*
X46998Y48187D01*
X47214Y48469D01*
X47350Y48798D01*
X47397Y49150D01*
X47350Y49502D01*
X47214Y49831D01*
X47157Y49905D01*
X47214Y50019D01*
X47858D01*
Y52719D01*
D02*
G37*
G36*
X43035Y48650D02*
X42606D01*
X42618Y48620D01*
X42786Y48401D01*
X43006Y48233D01*
X43035Y48221D01*
Y48650D01*
D02*
G37*
G36*
X34095Y45854D02*
Y45425D01*
X34524D01*
X34512Y45455D01*
X34344Y45674D01*
X34125Y45842D01*
X34095Y45854D01*
D02*
G37*
G36*
X19045Y45854D02*
Y45425D01*
X19474D01*
X19462Y45455D01*
X19294Y45674D01*
X19075Y45842D01*
X19045Y45854D01*
D02*
G37*
G36*
X18045D02*
X18015Y45842D01*
X17796Y45674D01*
X17628Y45455D01*
X17616Y45425D01*
X18045D01*
Y45854D01*
D02*
G37*
G36*
X33095D02*
X33065Y45842D01*
X32846Y45674D01*
X32678Y45455D01*
X32666Y45425D01*
X33095D01*
Y45854D01*
D02*
G37*
G36*
X34524Y44425D02*
X34095D01*
Y43996D01*
X34125Y44008D01*
X34344Y44176D01*
X34512Y44395D01*
X34524Y44425D01*
D02*
G37*
G36*
X19474D02*
X19045D01*
Y43996D01*
X19075Y44008D01*
X19294Y44176D01*
X19462Y44395D01*
X19474Y44425D01*
D02*
G37*
G36*
X18045D02*
X17616D01*
X17628Y44395D01*
X17796Y44176D01*
X18015Y44008D01*
X18045Y43996D01*
Y44425D01*
D02*
G37*
G36*
X33095D02*
X32666D01*
X32678Y44395D01*
X32846Y44176D01*
X33065Y44008D01*
X33095Y43996D01*
Y44425D01*
D02*
G37*
G36*
X31055Y46085D02*
X30755Y46045D01*
X30475Y45930D01*
X30235Y45745D01*
X30050Y45505D01*
X29935Y45225D01*
X29895Y44925D01*
X29935Y44625D01*
X30050Y44345D01*
X30235Y44105D01*
X30475Y43920D01*
X30755Y43805D01*
X31055Y43765D01*
X31355Y43805D01*
X31635Y43920D01*
X31875Y44105D01*
X32060Y44345D01*
X32175Y44625D01*
X32215Y44925D01*
X32175Y45225D01*
X32060Y45505D01*
X31875Y45745D01*
X31635Y45930D01*
X31355Y46045D01*
X31055Y46085D01*
D02*
G37*
G36*
X29785Y43646D02*
X29459Y43603D01*
X29155Y43477D01*
X28893Y43276D01*
X28693Y43015D01*
X28567Y42711D01*
X28524Y42385D01*
X28567Y42059D01*
X28693Y41755D01*
X28893Y41493D01*
X29155Y41293D01*
X29459Y41167D01*
X29785Y41124D01*
X30111Y41167D01*
X30415Y41293D01*
X30677Y41493D01*
X30877Y41755D01*
X31003Y42059D01*
X31034Y42295D01*
X31041Y42352D01*
X31169D01*
X31177Y42295D01*
X31205Y42085D01*
X31320Y41805D01*
X31505Y41565D01*
X31745Y41380D01*
X32025Y41265D01*
X32325Y41225D01*
X32625Y41265D01*
X32905Y41380D01*
X33145Y41565D01*
X33330Y41805D01*
X33445Y42085D01*
X33485Y42385D01*
X33445Y42685D01*
X33330Y42965D01*
X33145Y43205D01*
X32905Y43390D01*
X32625Y43505D01*
X32325Y43545D01*
X32025Y43505D01*
X31745Y43390D01*
X31505Y43205D01*
X31320Y42965D01*
X31205Y42685D01*
X31177Y42475D01*
X31169Y42418D01*
X31041D01*
X31034Y42475D01*
X31003Y42711D01*
X30877Y43015D01*
X30677Y43276D01*
X30415Y43477D01*
X30111Y43603D01*
X29785Y43646D01*
D02*
G37*
G36*
X16005Y46085D02*
X15705Y46045D01*
X15425Y45930D01*
X15185Y45745D01*
X15000Y45505D01*
X14885Y45225D01*
X14845Y44925D01*
X14885Y44625D01*
X15000Y44345D01*
X15185Y44105D01*
X15319Y44002D01*
X15276Y43875D01*
X10910D01*
Y41025D01*
X16450D01*
Y41408D01*
X16577Y41471D01*
X16695Y41380D01*
X16975Y41265D01*
X17275Y41225D01*
X17575Y41265D01*
X17855Y41380D01*
X18095Y41565D01*
X18279Y41805D01*
X18395Y42085D01*
X18435Y42385D01*
X18395Y42685D01*
X18279Y42965D01*
X18095Y43205D01*
X17855Y43390D01*
X17575Y43505D01*
X17275Y43545D01*
X16975Y43505D01*
X16695Y43390D01*
X16577Y43299D01*
X16450Y43362D01*
Y43865D01*
X16585Y43920D01*
X16825Y44105D01*
X17010Y44345D01*
X17125Y44625D01*
X17165Y44925D01*
X17125Y45225D01*
X17010Y45505D01*
X16825Y45745D01*
X16585Y45930D01*
X16305Y46045D01*
X16005Y46085D01*
D02*
G37*
G36*
X50885Y38200D02*
X49785D01*
Y37100D01*
X50885D01*
Y38200D01*
D02*
G37*
G36*
X11385D02*
X10285D01*
Y37100D01*
X11385D01*
Y38200D01*
D02*
G37*
G36*
X48785D02*
X47685D01*
Y37100D01*
X48785D01*
Y38200D01*
D02*
G37*
G36*
X9285D02*
X8185D01*
Y37100D01*
X9285D01*
Y38200D01*
D02*
G37*
G36*
X50885Y36100D02*
X49785D01*
Y35000D01*
X50885D01*
Y36100D01*
D02*
G37*
G36*
X48785D02*
X47685D01*
Y35000D01*
X48785D01*
Y36100D01*
D02*
G37*
G36*
X11385D02*
X10285D01*
Y35000D01*
X11385D01*
Y36100D01*
D02*
G37*
G36*
X9285D02*
X8185D01*
Y35000D01*
X9285D01*
Y36100D01*
D02*
G37*
G36*
X2500Y32590D02*
X2500Y28000D01*
X4500Y28000D01*
Y28438D01*
X4627Y28506D01*
X4685Y28467D01*
X4900Y28424D01*
X5115Y28467D01*
X5297Y28588D01*
X5418Y28770D01*
X5461Y28985D01*
X5418Y29200D01*
X5297Y29382D01*
X5115Y29503D01*
X4900Y29546D01*
X4685Y29503D01*
X4627Y29464D01*
X4500Y29532D01*
X4500Y32590D01*
X2500Y32590D01*
D02*
G37*
G36*
X11485Y21300D02*
X8085D01*
Y17900D01*
X11485D01*
Y21300D01*
D02*
G37*
G36*
X51185Y21500D02*
X47385D01*
Y17700D01*
X51185D01*
Y21500D01*
D02*
G37*
G36*
X49460Y12025D02*
X47460D01*
Y10025D01*
X49460D01*
Y12025D01*
D02*
G37*
G36*
X25600Y12034D02*
X25339Y11999D01*
X25096Y11899D01*
X24887Y11738D01*
X24726Y11529D01*
X24626Y11286D01*
X24591Y11025D01*
X24626Y10764D01*
X24726Y10521D01*
X24887Y10312D01*
X25096Y10152D01*
X25339Y10051D01*
X25600Y10016D01*
X25861Y10051D01*
X26104Y10152D01*
X26313Y10312D01*
X26473Y10521D01*
X26574Y10764D01*
X26609Y11025D01*
X26574Y11286D01*
X26473Y11529D01*
X26313Y11738D01*
X26104Y11899D01*
X25861Y11999D01*
X25600Y12034D01*
D02*
G37*
G36*
X33220Y12034D02*
X32959Y11999D01*
X32716Y11899D01*
X32507Y11738D01*
X32346Y11529D01*
X32246Y11286D01*
X32211Y11025D01*
X32246Y10764D01*
X32346Y10521D01*
X32507Y10312D01*
X32716Y10152D01*
X32959Y10051D01*
X33220Y10016D01*
X33481Y10051D01*
X33724Y10152D01*
X33933Y10312D01*
X34093Y10521D01*
X34194Y10764D01*
X34229Y11025D01*
X34194Y11286D01*
X34093Y11529D01*
X33933Y11738D01*
X33724Y11899D01*
X33481Y11999D01*
X33220Y12034D01*
D02*
G37*
G36*
X10360Y12034D02*
X10099Y11999D01*
X9856Y11899D01*
X9647Y11738D01*
X9486Y11529D01*
X9386Y11286D01*
X9351Y11025D01*
X9386Y10764D01*
X9486Y10521D01*
X9647Y10312D01*
X9856Y10152D01*
X10099Y10051D01*
X10360Y10016D01*
X10621Y10051D01*
X10864Y10152D01*
X11073Y10312D01*
X11233Y10521D01*
X11334Y10764D01*
X11369Y11025D01*
X11334Y11286D01*
X11233Y11529D01*
X11073Y11738D01*
X10864Y11899D01*
X10621Y11999D01*
X10360Y12034D01*
D02*
G37*
G36*
X43380Y12034D02*
X43119Y11999D01*
X42876Y11899D01*
X42667Y11738D01*
X42506Y11529D01*
X42406Y11286D01*
X42371Y11025D01*
X42406Y10764D01*
X42506Y10521D01*
X42667Y10312D01*
X42876Y10151D01*
X43119Y10051D01*
X43380Y10016D01*
X43641Y10051D01*
X43884Y10151D01*
X44093Y10312D01*
X44253Y10521D01*
X44354Y10764D01*
X44389Y11025D01*
X44354Y11286D01*
X44253Y11529D01*
X44093Y11738D01*
X43884Y11899D01*
X43641Y11999D01*
X43380Y12034D01*
D02*
G37*
G36*
X38300D02*
X38039Y11999D01*
X37796Y11899D01*
X37587Y11738D01*
X37426Y11529D01*
X37326Y11286D01*
X37291Y11025D01*
X37326Y10764D01*
X37426Y10521D01*
X37587Y10312D01*
X37796Y10151D01*
X38039Y10051D01*
X38300Y10016D01*
X38561Y10051D01*
X38804Y10151D01*
X39013Y10312D01*
X39173Y10521D01*
X39274Y10764D01*
X39309Y11025D01*
X39274Y11286D01*
X39173Y11529D01*
X39013Y11738D01*
X38804Y11899D01*
X38561Y11999D01*
X38300Y12034D01*
D02*
G37*
G36*
X28140D02*
X27879Y11999D01*
X27636Y11899D01*
X27427Y11738D01*
X27266Y11529D01*
X27166Y11286D01*
X27131Y11025D01*
X27166Y10764D01*
X27266Y10521D01*
X27427Y10312D01*
X27636Y10151D01*
X27879Y10051D01*
X28140Y10016D01*
X28401Y10051D01*
X28644Y10151D01*
X28853Y10312D01*
X29013Y10521D01*
X29114Y10764D01*
X29149Y11025D01*
X29114Y11286D01*
X29013Y11529D01*
X28853Y11738D01*
X28644Y11899D01*
X28401Y11999D01*
X28140Y12034D01*
D02*
G37*
G36*
X20520D02*
X20259Y11999D01*
X20016Y11899D01*
X19807Y11738D01*
X19646Y11529D01*
X19546Y11286D01*
X19511Y11025D01*
X19546Y10764D01*
X19646Y10521D01*
X19807Y10312D01*
X20016Y10151D01*
X20259Y10051D01*
X20520Y10016D01*
X20781Y10051D01*
X21024Y10151D01*
X21233Y10312D01*
X21393Y10521D01*
X21494Y10764D01*
X21529Y11025D01*
X21494Y11286D01*
X21393Y11529D01*
X21233Y11738D01*
X21024Y11899D01*
X20781Y11999D01*
X20520Y12034D01*
D02*
G37*
G36*
X12900D02*
X12639Y11999D01*
X12396Y11899D01*
X12187Y11738D01*
X12026Y11529D01*
X11926Y11286D01*
X11891Y11025D01*
X11926Y10764D01*
X12026Y10521D01*
X12187Y10312D01*
X12396Y10151D01*
X12639Y10051D01*
X12900Y10016D01*
X13161Y10051D01*
X13404Y10151D01*
X13613Y10312D01*
X13773Y10521D01*
X13874Y10764D01*
X13909Y11025D01*
X13874Y11286D01*
X13773Y11529D01*
X13613Y11738D01*
X13404Y11899D01*
X13161Y11999D01*
X12900Y12034D01*
D02*
G37*
G36*
X30680Y12034D02*
X30419Y11999D01*
X30176Y11898D01*
X29967Y11738D01*
X29806Y11529D01*
X29706Y11286D01*
X29671Y11025D01*
X29706Y10764D01*
X29806Y10521D01*
X29967Y10312D01*
X30176Y10151D01*
X30419Y10051D01*
X30680Y10016D01*
X30941Y10051D01*
X31184Y10151D01*
X31393Y10312D01*
X31553Y10521D01*
X31654Y10764D01*
X31689Y11025D01*
X31654Y11286D01*
X31553Y11529D01*
X31393Y11738D01*
X31184Y11898D01*
X30941Y11999D01*
X30680Y12034D01*
D02*
G37*
G36*
X23060D02*
X22799Y11999D01*
X22556Y11898D01*
X22347Y11738D01*
X22186Y11529D01*
X22086Y11286D01*
X22051Y11025D01*
X22086Y10764D01*
X22186Y10521D01*
X22347Y10312D01*
X22556Y10151D01*
X22799Y10051D01*
X23060Y10016D01*
X23321Y10051D01*
X23564Y10151D01*
X23773Y10312D01*
X23933Y10521D01*
X24034Y10764D01*
X24069Y11025D01*
X24034Y11286D01*
X23933Y11529D01*
X23773Y11738D01*
X23564Y11898D01*
X23321Y11999D01*
X23060Y12034D01*
D02*
G37*
G36*
X45920Y12034D02*
X45659Y11999D01*
X45416Y11898D01*
X45207Y11738D01*
X45046Y11529D01*
X44946Y11286D01*
X44911Y11025D01*
X44946Y10764D01*
X45046Y10521D01*
X45207Y10312D01*
X45416Y10151D01*
X45659Y10051D01*
X45920Y10016D01*
X46181Y10051D01*
X46424Y10151D01*
X46633Y10312D01*
X46793Y10521D01*
X46894Y10764D01*
X46929Y11025D01*
X46894Y11286D01*
X46793Y11529D01*
X46633Y11738D01*
X46424Y11898D01*
X46181Y11999D01*
X45920Y12034D01*
D02*
G37*
G36*
X17980D02*
X17719Y11999D01*
X17476Y11898D01*
X17267Y11738D01*
X17106Y11529D01*
X17006Y11286D01*
X16971Y11025D01*
X17006Y10764D01*
X17106Y10521D01*
X17267Y10312D01*
X17476Y10151D01*
X17719Y10051D01*
X17980Y10016D01*
X18241Y10051D01*
X18484Y10151D01*
X18693Y10312D01*
X18853Y10521D01*
X18954Y10764D01*
X18989Y11025D01*
X18954Y11286D01*
X18853Y11529D01*
X18693Y11738D01*
X18484Y11898D01*
X18241Y11999D01*
X17980Y12034D01*
D02*
G37*
G36*
X35760Y12034D02*
X35499Y11999D01*
X35256Y11898D01*
X35047Y11738D01*
X34886Y11529D01*
X34786Y11286D01*
X34751Y11025D01*
X34786Y10764D01*
X34886Y10521D01*
X35047Y10312D01*
X35256Y10151D01*
X35499Y10051D01*
X35760Y10016D01*
X36021Y10051D01*
X36264Y10151D01*
X36473Y10312D01*
X36633Y10521D01*
X36734Y10764D01*
X36769Y11025D01*
X36734Y11286D01*
X36633Y11529D01*
X36473Y11738D01*
X36264Y11898D01*
X36021Y11999D01*
X35760Y12034D01*
D02*
G37*
G36*
X15440D02*
X15179Y11999D01*
X14936Y11898D01*
X14727Y11738D01*
X14566Y11529D01*
X14466Y11286D01*
X14431Y11025D01*
X14466Y10764D01*
X14566Y10521D01*
X14727Y10312D01*
X14936Y10151D01*
X15179Y10051D01*
X15440Y10016D01*
X15701Y10051D01*
X15944Y10151D01*
X16153Y10312D01*
X16313Y10521D01*
X16414Y10764D01*
X16449Y11025D01*
X16414Y11286D01*
X16313Y11529D01*
X16153Y11738D01*
X15944Y11898D01*
X15701Y11999D01*
X15440Y12034D01*
D02*
G37*
G36*
X40840Y12034D02*
X40579Y11999D01*
X40336Y11898D01*
X40127Y11738D01*
X39966Y11529D01*
X39866Y11286D01*
X39831Y11025D01*
X39866Y10764D01*
X39966Y10521D01*
X40127Y10312D01*
X40336Y10151D01*
X40579Y10051D01*
X40840Y10016D01*
X41101Y10051D01*
X41344Y10151D01*
X41553Y10312D01*
X41713Y10521D01*
X41814Y10764D01*
X41849Y11025D01*
X41814Y11286D01*
X41713Y11529D01*
X41553Y11738D01*
X41344Y11898D01*
X41101Y11999D01*
X40840Y12034D01*
D02*
G37*
G36*
X40840Y9494D02*
X40579Y9459D01*
X40336Y9358D01*
X40127Y9198D01*
X39966Y8989D01*
X39866Y8746D01*
X39831Y8485D01*
X39866Y8224D01*
X39966Y7981D01*
X40127Y7772D01*
X40336Y7612D01*
X40579Y7511D01*
X40840Y7476D01*
X41101Y7511D01*
X41344Y7612D01*
X41553Y7772D01*
X41713Y7981D01*
X41814Y8224D01*
X41849Y8485D01*
X41814Y8746D01*
X41713Y8989D01*
X41553Y9198D01*
X41344Y9358D01*
X41101Y9459D01*
X40840Y9494D01*
D02*
G37*
G36*
X15440D02*
X15179Y9459D01*
X14936Y9358D01*
X14727Y9198D01*
X14566Y8989D01*
X14466Y8746D01*
X14431Y8485D01*
X14466Y8224D01*
X14566Y7981D01*
X14727Y7772D01*
X14936Y7612D01*
X15179Y7511D01*
X15440Y7476D01*
X15701Y7511D01*
X15944Y7612D01*
X16153Y7772D01*
X16313Y7981D01*
X16414Y8224D01*
X16449Y8485D01*
X16414Y8746D01*
X16313Y8989D01*
X16153Y9198D01*
X15944Y9358D01*
X15701Y9459D01*
X15440Y9494D01*
D02*
G37*
G36*
X45920Y9494D02*
X45659Y9459D01*
X45416Y9358D01*
X45207Y9198D01*
X45046Y8989D01*
X44946Y8746D01*
X44911Y8485D01*
X44946Y8224D01*
X45046Y7981D01*
X45207Y7772D01*
X45416Y7612D01*
X45659Y7511D01*
X45920Y7476D01*
X46181Y7511D01*
X46424Y7612D01*
X46633Y7772D01*
X46793Y7981D01*
X46894Y8224D01*
X46929Y8485D01*
X46894Y8746D01*
X46793Y8989D01*
X46633Y9198D01*
X46424Y9358D01*
X46181Y9459D01*
X45920Y9494D01*
D02*
G37*
G36*
X23060D02*
X22799Y9459D01*
X22556Y9358D01*
X22347Y9198D01*
X22186Y8989D01*
X22086Y8746D01*
X22051Y8485D01*
X22086Y8224D01*
X22186Y7981D01*
X22347Y7772D01*
X22556Y7612D01*
X22799Y7511D01*
X23060Y7476D01*
X23321Y7511D01*
X23564Y7612D01*
X23773Y7772D01*
X23933Y7981D01*
X24034Y8224D01*
X24069Y8485D01*
X24034Y8746D01*
X23933Y8989D01*
X23773Y9198D01*
X23564Y9358D01*
X23321Y9459D01*
X23060Y9494D01*
D02*
G37*
G36*
X48460Y9494D02*
X48199Y9459D01*
X47956Y9358D01*
X47747Y9198D01*
X47586Y8989D01*
X47486Y8746D01*
X47451Y8485D01*
X47486Y8224D01*
X47586Y7981D01*
X47747Y7772D01*
X47956Y7611D01*
X48199Y7511D01*
X48460Y7476D01*
X48721Y7511D01*
X48964Y7611D01*
X49173Y7772D01*
X49333Y7981D01*
X49434Y8224D01*
X49469Y8485D01*
X49434Y8746D01*
X49333Y8989D01*
X49173Y9198D01*
X48964Y9358D01*
X48721Y9459D01*
X48460Y9494D01*
D02*
G37*
G36*
X43380D02*
X43119Y9459D01*
X42876Y9358D01*
X42667Y9198D01*
X42506Y8989D01*
X42406Y8746D01*
X42371Y8485D01*
X42406Y8224D01*
X42506Y7981D01*
X42667Y7772D01*
X42876Y7611D01*
X43119Y7511D01*
X43380Y7476D01*
X43641Y7511D01*
X43884Y7611D01*
X44093Y7772D01*
X44253Y7981D01*
X44354Y8224D01*
X44389Y8485D01*
X44354Y8746D01*
X44253Y8989D01*
X44093Y9198D01*
X43884Y9358D01*
X43641Y9459D01*
X43380Y9494D01*
D02*
G37*
G36*
X35760D02*
X35499Y9459D01*
X35256Y9358D01*
X35047Y9198D01*
X34887Y8989D01*
X34786Y8746D01*
X34751Y8485D01*
X34786Y8224D01*
X34887Y7981D01*
X35047Y7772D01*
X35256Y7611D01*
X35499Y7511D01*
X35760Y7476D01*
X36021Y7511D01*
X36264Y7611D01*
X36473Y7772D01*
X36633Y7981D01*
X36734Y8224D01*
X36769Y8485D01*
X36734Y8746D01*
X36633Y8989D01*
X36473Y9198D01*
X36264Y9358D01*
X36021Y9459D01*
X35760Y9494D01*
D02*
G37*
G36*
X30680D02*
X30419Y9459D01*
X30176Y9358D01*
X29967Y9198D01*
X29806Y8989D01*
X29706Y8746D01*
X29671Y8485D01*
X29706Y8224D01*
X29806Y7981D01*
X29967Y7772D01*
X30176Y7611D01*
X30419Y7511D01*
X30680Y7476D01*
X30941Y7511D01*
X31184Y7611D01*
X31393Y7772D01*
X31553Y7981D01*
X31654Y8224D01*
X31689Y8485D01*
X31654Y8746D01*
X31553Y8989D01*
X31393Y9198D01*
X31184Y9358D01*
X30941Y9459D01*
X30680Y9494D01*
D02*
G37*
G36*
X20520D02*
X20259Y9459D01*
X20016Y9358D01*
X19807Y9198D01*
X19646Y8989D01*
X19546Y8746D01*
X19511Y8485D01*
X19546Y8224D01*
X19646Y7981D01*
X19807Y7772D01*
X20016Y7611D01*
X20259Y7511D01*
X20520Y7476D01*
X20781Y7511D01*
X21024Y7611D01*
X21233Y7772D01*
X21393Y7981D01*
X21494Y8224D01*
X21529Y8485D01*
X21494Y8746D01*
X21393Y8989D01*
X21233Y9198D01*
X21024Y9358D01*
X20781Y9459D01*
X20520Y9494D01*
D02*
G37*
G36*
X17980D02*
X17719Y9459D01*
X17476Y9358D01*
X17267Y9198D01*
X17106Y8989D01*
X17006Y8746D01*
X16971Y8485D01*
X17006Y8224D01*
X17106Y7981D01*
X17267Y7772D01*
X17476Y7611D01*
X17719Y7511D01*
X17980Y7476D01*
X18241Y7511D01*
X18484Y7611D01*
X18693Y7772D01*
X18853Y7981D01*
X18954Y8224D01*
X18989Y8485D01*
X18954Y8746D01*
X18853Y8989D01*
X18693Y9198D01*
X18484Y9358D01*
X18241Y9459D01*
X17980Y9494D01*
D02*
G37*
G36*
X10360D02*
X10099Y9459D01*
X9856Y9358D01*
X9647Y9198D01*
X9486Y8989D01*
X9386Y8746D01*
X9351Y8485D01*
X9386Y8224D01*
X9486Y7981D01*
X9647Y7772D01*
X9856Y7611D01*
X10099Y7511D01*
X10360Y7476D01*
X10621Y7511D01*
X10864Y7611D01*
X11073Y7772D01*
X11233Y7981D01*
X11334Y8224D01*
X11369Y8485D01*
X11334Y8746D01*
X11233Y8989D01*
X11073Y9198D01*
X10864Y9358D01*
X10621Y9459D01*
X10360Y9494D01*
D02*
G37*
G36*
X33220Y9494D02*
X32959Y9459D01*
X32716Y9358D01*
X32507Y9198D01*
X32346Y8989D01*
X32246Y8746D01*
X32211Y8485D01*
X32246Y8224D01*
X32346Y7981D01*
X32507Y7772D01*
X32716Y7611D01*
X32959Y7511D01*
X33220Y7476D01*
X33481Y7511D01*
X33724Y7611D01*
X33933Y7772D01*
X34093Y7981D01*
X34194Y8224D01*
X34229Y8485D01*
X34194Y8746D01*
X34093Y8989D01*
X33933Y9198D01*
X33724Y9358D01*
X33481Y9459D01*
X33220Y9494D01*
D02*
G37*
G36*
X25600D02*
X25339Y9459D01*
X25096Y9358D01*
X24887Y9198D01*
X24726Y8989D01*
X24626Y8746D01*
X24591Y8485D01*
X24626Y8224D01*
X24726Y7981D01*
X24887Y7772D01*
X25096Y7611D01*
X25339Y7511D01*
X25600Y7476D01*
X25861Y7511D01*
X26104Y7611D01*
X26313Y7772D01*
X26473Y7981D01*
X26574Y8224D01*
X26609Y8485D01*
X26574Y8746D01*
X26473Y8989D01*
X26313Y9198D01*
X26104Y9358D01*
X25861Y9459D01*
X25600Y9494D01*
D02*
G37*
G36*
X38300Y9494D02*
X38039Y9459D01*
X37796Y9358D01*
X37587Y9198D01*
X37426Y8989D01*
X37326Y8746D01*
X37291Y8485D01*
X37326Y8224D01*
X37426Y7981D01*
X37587Y7772D01*
X37796Y7611D01*
X38039Y7511D01*
X38300Y7476D01*
X38561Y7511D01*
X38804Y7611D01*
X39013Y7772D01*
X39173Y7981D01*
X39274Y8224D01*
X39309Y8485D01*
X39274Y8746D01*
X39173Y8989D01*
X39013Y9198D01*
X38804Y9358D01*
X38561Y9459D01*
X38300Y9494D01*
D02*
G37*
G36*
X12900D02*
X12639Y9459D01*
X12396Y9358D01*
X12187Y9198D01*
X12026Y8989D01*
X11926Y8746D01*
X11891Y8485D01*
X11926Y8224D01*
X12026Y7981D01*
X12187Y7772D01*
X12396Y7611D01*
X12639Y7511D01*
X12900Y7476D01*
X13161Y7511D01*
X13404Y7611D01*
X13613Y7772D01*
X13774Y7981D01*
X13874Y8224D01*
X13909Y8485D01*
X13874Y8746D01*
X13774Y8989D01*
X13613Y9198D01*
X13404Y9358D01*
X13161Y9459D01*
X12900Y9494D01*
D02*
G37*
G36*
X28140Y9494D02*
X27879Y9459D01*
X27636Y9358D01*
X27427Y9198D01*
X27266Y8989D01*
X27166Y8746D01*
X27131Y8485D01*
X27166Y8224D01*
X27266Y7981D01*
X27427Y7772D01*
X27636Y7611D01*
X27879Y7511D01*
X28140Y7476D01*
X28401Y7511D01*
X28644Y7611D01*
X28853Y7772D01*
X29013Y7981D01*
X29114Y8224D01*
X29149Y8485D01*
X29114Y8746D01*
X29013Y8989D01*
X28853Y9198D01*
X28644Y9358D01*
X28401Y9459D01*
X28140Y9494D01*
D02*
G37*
G36*
X36260Y6696D02*
Y6445D01*
X36511D01*
X36402Y6587D01*
X36260Y6696D01*
D02*
G37*
G36*
X35260Y6696D02*
X35118Y6587D01*
X35009Y6445D01*
X35260D01*
Y6696D01*
D02*
G37*
G36*
X23560Y6696D02*
Y6445D01*
X23811D01*
X23702Y6587D01*
X23560Y6696D01*
D02*
G37*
G36*
X22560Y6696D02*
X22418Y6587D01*
X22309Y6445D01*
X22560D01*
Y6696D01*
D02*
G37*
G36*
X46420Y6696D02*
Y6445D01*
X46671D01*
X46562Y6587D01*
X46420Y6696D01*
D02*
G37*
G36*
X45420D02*
X45278Y6587D01*
X45169Y6445D01*
X45420D01*
Y6696D01*
D02*
G37*
G36*
X13400Y6696D02*
Y6445D01*
X13651D01*
X13542Y6587D01*
X13400Y6696D01*
D02*
G37*
G36*
X12400D02*
X12258Y6587D01*
X12149Y6445D01*
X12400D01*
Y6696D01*
D02*
G37*
G36*
X18480Y6696D02*
Y6445D01*
X18731D01*
X18622Y6587D01*
X18480Y6696D01*
D02*
G37*
G36*
X15940D02*
Y6445D01*
X16191D01*
X16082Y6587D01*
X15940Y6696D01*
D02*
G37*
G36*
X43880D02*
Y6445D01*
X44131D01*
X44022Y6587D01*
X43880Y6696D01*
D02*
G37*
G36*
X10860D02*
Y6445D01*
X11111D01*
X11002Y6587D01*
X10860Y6696D01*
D02*
G37*
G36*
X17480D02*
X17338Y6587D01*
X17229Y6445D01*
X17480D01*
Y6696D01*
D02*
G37*
G36*
X14940D02*
X14798Y6587D01*
X14689Y6445D01*
X14940D01*
Y6696D01*
D02*
G37*
G36*
X42880D02*
X42738Y6587D01*
X42629Y6445D01*
X42880D01*
Y6696D01*
D02*
G37*
G36*
X9860D02*
X9718Y6587D01*
X9609Y6445D01*
X9860D01*
Y6696D01*
D02*
G37*
G36*
X31180Y6696D02*
Y6445D01*
X31431D01*
X31322Y6587D01*
X31180Y6696D01*
D02*
G37*
G36*
X41340Y6696D02*
Y6445D01*
X41591D01*
X41482Y6587D01*
X41340Y6696D01*
D02*
G37*
G36*
X21020D02*
Y6445D01*
X21271D01*
X21162Y6587D01*
X21020Y6696D01*
D02*
G37*
G36*
X26100Y6696D02*
Y6445D01*
X26351D01*
X26242Y6587D01*
X26100Y6696D01*
D02*
G37*
G36*
X25100Y6696D02*
X24958Y6587D01*
X24849Y6445D01*
X25100D01*
Y6696D01*
D02*
G37*
G36*
X40340Y6696D02*
X40198Y6587D01*
X40089Y6445D01*
X40340D01*
Y6696D01*
D02*
G37*
G36*
X20020D02*
X19878Y6587D01*
X19769Y6445D01*
X20020D01*
Y6696D01*
D02*
G37*
G36*
X30180Y6696D02*
X30038Y6587D01*
X29929Y6445D01*
X30180D01*
Y6696D01*
D02*
G37*
G36*
X48960Y6696D02*
Y6445D01*
X49211D01*
X49102Y6587D01*
X48960Y6696D01*
D02*
G37*
G36*
X47960D02*
X47818Y6587D01*
X47709Y6445D01*
X47960D01*
Y6696D01*
D02*
G37*
G36*
X38800D02*
Y6445D01*
X39051D01*
X38942Y6587D01*
X38800Y6696D01*
D02*
G37*
G36*
X28640D02*
Y6445D01*
X28891D01*
X28782Y6587D01*
X28640Y6696D01*
D02*
G37*
G36*
X27640Y6696D02*
X27498Y6587D01*
X27389Y6445D01*
X27640D01*
Y6696D01*
D02*
G37*
G36*
X37800D02*
X37658Y6587D01*
X37549Y6445D01*
X37800D01*
Y6696D01*
D02*
G37*
G36*
X33720Y6696D02*
Y6445D01*
X33971D01*
X33862Y6587D01*
X33720Y6696D01*
D02*
G37*
G36*
X32720D02*
X32578Y6587D01*
X32469Y6445D01*
X32720D01*
Y6696D01*
D02*
G37*
G36*
X36511Y5445D02*
X36260D01*
Y5194D01*
X36402Y5303D01*
X36511Y5445D01*
D02*
G37*
G36*
X23811Y5445D02*
X23560D01*
Y5194D01*
X23702Y5303D01*
X23811Y5445D01*
D02*
G37*
G36*
X35260Y5445D02*
X35009D01*
X35118Y5303D01*
X35260Y5194D01*
Y5445D01*
D02*
G37*
G36*
X22560Y5445D02*
X22309D01*
X22418Y5303D01*
X22560Y5194D01*
Y5445D01*
D02*
G37*
G36*
X46671Y5445D02*
X46420D01*
Y5194D01*
X46562Y5303D01*
X46671Y5445D01*
D02*
G37*
G36*
X45420D02*
X45169D01*
X45278Y5303D01*
X45420Y5194D01*
Y5445D01*
D02*
G37*
G36*
X13651Y5445D02*
X13400D01*
Y5194D01*
X13542Y5303D01*
X13651Y5445D01*
D02*
G37*
G36*
X12400D02*
X12149D01*
X12258Y5303D01*
X12400Y5194D01*
Y5445D01*
D02*
G37*
G36*
X31431Y5445D02*
X31180D01*
Y5194D01*
X31322Y5303D01*
X31431Y5445D01*
D02*
G37*
G36*
X25100D02*
X24849D01*
X24958Y5303D01*
X25100Y5194D01*
Y5445D01*
D02*
G37*
G36*
X44131Y5445D02*
X43880D01*
Y5194D01*
X44022Y5303D01*
X44131Y5445D01*
D02*
G37*
G36*
X18731D02*
X18480D01*
Y5194D01*
X18622Y5303D01*
X18731Y5445D01*
D02*
G37*
G36*
X16191D02*
X15940D01*
Y5194D01*
X16082Y5303D01*
X16191Y5445D01*
D02*
G37*
G36*
X11111D02*
X10860D01*
Y5194D01*
X11002Y5303D01*
X11111Y5445D01*
D02*
G37*
G36*
X9860D02*
X9609D01*
X9718Y5303D01*
X9860Y5194D01*
Y5445D01*
D02*
G37*
G36*
X42880D02*
X42629D01*
X42738Y5303D01*
X42880Y5194D01*
Y5445D01*
D02*
G37*
G36*
X17480D02*
X17229D01*
X17338Y5303D01*
X17480Y5194D01*
Y5445D01*
D02*
G37*
G36*
X14940D02*
X14689D01*
X14798Y5303D01*
X14940Y5194D01*
Y5445D01*
D02*
G37*
G36*
X41591Y5445D02*
X41340D01*
Y5194D01*
X41482Y5303D01*
X41591Y5445D01*
D02*
G37*
G36*
X21271D02*
X21020D01*
Y5194D01*
X21162Y5303D01*
X21271Y5445D01*
D02*
G37*
G36*
X40340D02*
X40089D01*
X40198Y5303D01*
X40340Y5194D01*
Y5445D01*
D02*
G37*
G36*
X20020D02*
X19769D01*
X19878Y5303D01*
X20020Y5194D01*
Y5445D01*
D02*
G37*
G36*
X37800Y5445D02*
X37549D01*
X37658Y5303D01*
X37800Y5194D01*
Y5445D01*
D02*
G37*
G36*
X27640D02*
X27389D01*
X27498Y5303D01*
X27640Y5194D01*
Y5445D01*
D02*
G37*
G36*
X26351Y5445D02*
X26100D01*
Y5194D01*
X26242Y5303D01*
X26351Y5445D01*
D02*
G37*
G36*
X30180D02*
X29929D01*
X30038Y5303D01*
X30180Y5194D01*
Y5445D01*
D02*
G37*
G36*
X49211Y5445D02*
X48960D01*
Y5194D01*
X49102Y5303D01*
X49211Y5445D01*
D02*
G37*
G36*
X47960D02*
X47709D01*
X47818Y5303D01*
X47960Y5194D01*
Y5445D01*
D02*
G37*
G36*
X39051Y5445D02*
X38800D01*
Y5194D01*
X38942Y5303D01*
X39051Y5445D01*
D02*
G37*
G36*
X28891D02*
X28640D01*
Y5194D01*
X28782Y5303D01*
X28891Y5445D01*
D02*
G37*
G36*
X33971Y5445D02*
X33720D01*
Y5194D01*
X33862Y5303D01*
X33971Y5445D01*
D02*
G37*
G36*
X32720D02*
X32469D01*
X32578Y5303D01*
X32720Y5194D01*
Y5445D01*
D02*
G37*
%LPD*%
D10*
X3448Y30368D02*
D03*
Y28968D02*
D03*
D11*
X4883D01*
X3448Y30368D02*
Y31900D01*
X11600Y42385D02*
X14735D01*
D12*
X43535Y49150D02*
D03*
X46035Y49150D02*
D03*
X14735Y42385D02*
D03*
X16005Y44925D02*
D03*
X17275Y42385D02*
D03*
X18545Y44925D02*
D03*
X29785Y42385D02*
D03*
X31055Y44925D02*
D03*
X32325Y42385D02*
D03*
X33595Y44925D02*
D03*
X43008Y51369D02*
D03*
D13*
X20500Y51275D02*
D03*
X12845D02*
D03*
X35550D02*
D03*
X27895D02*
D03*
D14*
X40840Y5945D02*
D03*
X43380Y5945D02*
D03*
X45920Y5945D02*
D03*
X48460Y5945D02*
D03*
X10360Y5945D02*
D03*
X12900Y5945D02*
D03*
X17980Y5945D02*
D03*
X15440D02*
D03*
X25600Y5945D02*
D03*
X28140Y5945D02*
D03*
X33220Y5945D02*
D03*
X30680Y5945D02*
D03*
X23060Y5945D02*
D03*
X20520Y5945D02*
D03*
X35760Y5945D02*
D03*
X38300Y5945D02*
D03*
X38300Y8485D02*
D03*
X35760Y8485D02*
D03*
X20520D02*
D03*
X23060Y8485D02*
D03*
X30680Y8485D02*
D03*
X33220Y8485D02*
D03*
X28140Y8485D02*
D03*
X25600Y8485D02*
D03*
X15440Y8485D02*
D03*
X17980Y8485D02*
D03*
X12900Y8485D02*
D03*
X10360Y8485D02*
D03*
X48460D02*
D03*
X45920Y8485D02*
D03*
X43380Y8485D02*
D03*
X40840Y8485D02*
D03*
X10360Y11025D02*
D03*
X12900Y11025D02*
D03*
X17980Y11025D02*
D03*
X15440Y11025D02*
D03*
X25600Y11025D02*
D03*
X28140Y11025D02*
D03*
X33220Y11025D02*
D03*
X30680Y11025D02*
D03*
X23060D02*
D03*
X20520Y11025D02*
D03*
X35760Y11025D02*
D03*
X43380Y11025D02*
D03*
X45920Y11025D02*
D03*
X40840Y11025D02*
D03*
X38300Y11025D02*
D03*
D15*
X48460Y11025D02*
D03*
D16*
X46508Y51369D02*
D03*
D17*
X9785Y36600D02*
D03*
Y19600D02*
D03*
X49285Y36600D02*
D03*
Y19600D02*
D03*
D18*
X4900Y28985D02*
D03*
X3448Y31900D02*
D03*
X22785Y26850D02*
D03*
X6550Y32232D02*
D03*
X11600Y42385D02*
D03*
X35510Y32556D02*
D03*
Y31656D02*
D03*
X28350Y26825D02*
D03*
X31220Y26175D02*
D03*
X33970Y28125D02*
D03*
X36840Y27475D02*
D03*
X33970Y26825D02*
D03*
X36840Y26175D02*
D03*
Y19975D02*
D03*
M02*
