G04 Layer_Physical_Order=1*
G04 Layer_Color=16776960*
%FSLAX43Y43*%
%MOMM*%
G71*
G01*
G75*
%ADD10C,0.300*%
%ADD11C,0.750*%
%ADD12C,0.400*%
G04:AMPARAMS|DCode=13|XSize=1.53mm|YSize=1.02mm|CornerRadius=0.128mm|HoleSize=0mm|Usage=FLASHONLY|Rotation=180.000|XOffset=0mm|YOffset=0mm|HoleType=Round|Shape=RoundedRectangle|*
%AMROUNDEDRECTD13*
21,1,1.530,0.765,0,0,180.0*
21,1,1.275,1.020,0,0,180.0*
1,1,0.255,-0.637,0.383*
1,1,0.255,0.637,0.383*
1,1,0.255,0.637,-0.383*
1,1,0.255,-0.637,-0.383*
%
%ADD13ROUNDEDRECTD13*%
G04:AMPARAMS|DCode=14|XSize=1.47mm|YSize=0.41mm|CornerRadius=0.051mm|HoleSize=0mm|Usage=FLASHONLY|Rotation=0.000|XOffset=0mm|YOffset=0mm|HoleType=Round|Shape=RoundedRectangle|*
%AMROUNDEDRECTD14*
21,1,1.470,0.307,0,0,0.0*
21,1,1.367,0.410,0,0,0.0*
1,1,0.102,0.684,-0.154*
1,1,0.102,-0.684,-0.154*
1,1,0.102,-0.684,0.154*
1,1,0.102,0.684,0.154*
%
%ADD14ROUNDEDRECTD14*%
G04:AMPARAMS|DCode=15|XSize=1.28mm|YSize=1.87mm|CornerRadius=0.16mm|HoleSize=0mm|Usage=FLASHONLY|Rotation=0.000|XOffset=0mm|YOffset=0mm|HoleType=Round|Shape=RoundedRectangle|*
%AMROUNDEDRECTD15*
21,1,1.280,1.550,0,0,0.0*
21,1,0.960,1.870,0,0,0.0*
1,1,0.320,0.480,-0.775*
1,1,0.320,-0.480,-0.775*
1,1,0.320,-0.480,0.775*
1,1,0.320,0.480,0.775*
%
%ADD15ROUNDEDRECTD15*%
G04:AMPARAMS|DCode=16|XSize=1.53mm|YSize=1.02mm|CornerRadius=0.128mm|HoleSize=0mm|Usage=FLASHONLY|Rotation=90.000|XOffset=0mm|YOffset=0mm|HoleType=Round|Shape=RoundedRectangle|*
%AMROUNDEDRECTD16*
21,1,1.530,0.765,0,0,90.0*
21,1,1.275,1.020,0,0,90.0*
1,1,0.255,0.383,0.637*
1,1,0.255,0.383,-0.637*
1,1,0.255,-0.383,-0.637*
1,1,0.255,-0.383,0.637*
%
%ADD16ROUNDEDRECTD16*%
%ADD17R,1.000X1.000*%
%ADD18C,1.700*%
%ADD19C,3.250*%
%ADD20C,1.400*%
%ADD21R,1.400X1.400*%
%ADD22R,1.700X1.700*%
%ADD23R,2.800X2.800*%
%ADD24C,0.700*%
G36*
X11761Y22166D02*
X11924Y22098D01*
X12071Y22000D01*
X12196Y21875D01*
X12294Y21729D01*
X12361Y21566D01*
X12396Y21393D01*
X12396Y21304D01*
Y19396D01*
X12396Y18765D01*
X12396Y18635D01*
X12345Y18378D01*
X12245Y18137D01*
X12100Y17920D01*
X12007Y17828D01*
X12007Y17828D01*
X12007Y17828D01*
X11796Y17616D01*
X11332Y17236D01*
X10834Y16904D01*
X10305Y16622D01*
X10028Y16508D01*
X10028D01*
X10028Y16508D01*
X9785Y16407D01*
X9722D01*
X9595Y16382D01*
X9486Y16310D01*
X9414Y16201D01*
X9412Y16189D01*
X9386Y16168D01*
X9269Y15993D01*
X9213Y15808D01*
X9208Y15792D01*
X9200Y15686D01*
X9200D01*
X9200Y15686D01*
X9200Y11050D01*
X9205Y10947D01*
X9245Y10745D01*
X9324Y10555D01*
X9438Y10384D01*
X9584Y10238D01*
X9755Y10124D01*
X9945Y10045D01*
X10147Y10005D01*
X10250Y10000D01*
X39250Y10000D01*
X39362Y10000D01*
X39570Y9914D01*
X39729Y9755D01*
X39812Y9554D01*
X39815Y9435D01*
D01*
X39815Y9316D01*
X39815Y7565D01*
Y7453D01*
X39729Y7245D01*
X39570Y7086D01*
X39362Y7000D01*
X39250D01*
Y7000D01*
X7925Y7000D01*
X7709Y7282D01*
X7325Y7666D01*
X6894Y7996D01*
X6424Y8268D01*
X5922Y8475D01*
X5398Y8616D01*
X4860Y8687D01*
X4588Y8687D01*
X4588Y8687D01*
X4588Y8687D01*
X3750Y8687D01*
X3750Y20276D01*
X3750Y20465D01*
X3824Y20837D01*
X3969Y21187D01*
X4180Y21502D01*
X4448Y21770D01*
X4763Y21981D01*
X5113Y22126D01*
X5484Y22200D01*
X5674Y22200D01*
X5674Y22200D01*
X11500Y22200D01*
X11588D01*
X11761Y22166D01*
D02*
G37*
G36*
X43900Y56200D02*
X44071Y56166D01*
X44233Y56099D01*
X44378Y56002D01*
X44502Y55878D01*
X44599Y55733D01*
X44666Y55571D01*
X44694Y55431D01*
X44700Y55313D01*
Y55313D01*
X44700Y55313D01*
X44700Y55313D01*
Y53400D01*
X44676Y53365D01*
X44610Y53366D01*
X44539Y53388D01*
X44442Y53622D01*
X44274Y53842D01*
X44055Y54010D01*
X44025Y54022D01*
Y53093D01*
X43525D01*
Y52593D01*
X42596D01*
X42608Y52563D01*
X42776Y52344D01*
X42899Y52250D01*
X42855Y52123D01*
X42158D01*
X42080Y52107D01*
X42014Y52063D01*
X41970Y51997D01*
X41954Y51919D01*
Y51569D01*
X44062D01*
Y51919D01*
X44046Y51997D01*
X44027Y52027D01*
X44047Y52159D01*
X44055Y52176D01*
X44274Y52344D01*
X44442Y52563D01*
X44539Y52797D01*
X44610Y52820D01*
X44676Y52821D01*
X44700Y52785D01*
Y51500D01*
X45149Y51051D01*
X45193Y50717D01*
X45329Y50388D01*
X45545Y50106D01*
X45827Y49890D01*
X46156Y49754D01*
X46490Y49710D01*
X49300Y46900D01*
X54717Y41483D01*
X55023Y41177D01*
X55573Y40507D01*
X56054Y39786D01*
X56463Y39022D01*
X56795Y38222D01*
X57046Y37393D01*
X57215Y36543D01*
X57300Y35680D01*
X57300Y35247D01*
X57300Y35247D01*
X57300Y35247D01*
X57300Y18800D01*
X57300Y18642D01*
X57239Y18333D01*
X57118Y18042D01*
X56943Y17780D01*
X56720Y17557D01*
X56458Y17382D01*
X56167Y17261D01*
X55858Y17200D01*
X55700Y17200D01*
X48082Y17200D01*
X47937Y17200D01*
X47652Y17257D01*
X47384Y17368D01*
X47142Y17529D01*
X46937Y17735D01*
X46776Y17976D01*
X46664Y18244D01*
X46608Y18529D01*
X46608Y18674D01*
X46608Y29386D01*
X46599Y29754D01*
X46527Y30487D01*
X46383Y31208D01*
X46169Y31912D01*
X45888Y32592D01*
X45541Y33241D01*
X45132Y33853D01*
X44665Y34422D01*
X44412Y34688D01*
X44412Y34688D01*
X41575Y37525D01*
X41388Y37712D01*
X41053Y38120D01*
X40760Y38559D01*
X40510Y39025D01*
X40308Y39514D01*
X40155Y40019D01*
X40052Y40538D01*
X40000Y41063D01*
Y41328D01*
X40000Y54817D01*
X40000Y54953D01*
X40053Y55220D01*
X40157Y55472D01*
X40309Y55698D01*
X40502Y55891D01*
X40728Y56043D01*
X40980Y56147D01*
X41247Y56200D01*
X41383Y56200D01*
X41383Y56200D01*
X43900Y56200D01*
D02*
G37*
%LPC*%
G36*
X14940Y7985D02*
X14689D01*
X14798Y7843D01*
X14940Y7734D01*
Y7985D01*
D02*
G37*
G36*
X30180Y7985D02*
X29929D01*
X30038Y7843D01*
X30180Y7734D01*
Y7985D01*
D02*
G37*
G36*
X16191Y7985D02*
X15940D01*
Y7734D01*
X16082Y7843D01*
X16191Y7985D01*
D02*
G37*
G36*
X23811Y7985D02*
X23560D01*
Y7734D01*
X23702Y7843D01*
X23811Y7985D01*
D02*
G37*
G36*
X22560D02*
X22309D01*
X22418Y7843D01*
X22560Y7734D01*
Y7985D01*
D02*
G37*
G36*
X32720Y7985D02*
X32469D01*
X32578Y7843D01*
X32720Y7734D01*
Y7985D01*
D02*
G37*
G36*
X25100D02*
X24849D01*
X24958Y7843D01*
X25100Y7734D01*
Y7985D01*
D02*
G37*
G36*
X21271Y7985D02*
X21020D01*
Y7734D01*
X21162Y7843D01*
X21271Y7985D01*
D02*
G37*
G36*
X25100Y9236D02*
X24958Y9127D01*
X24849Y8985D01*
X25100D01*
Y9236D01*
D02*
G37*
G36*
X26100Y9236D02*
Y8985D01*
X26351D01*
X26242Y9127D01*
X26100Y9236D01*
D02*
G37*
G36*
X33720D02*
Y8985D01*
X33971D01*
X33862Y9127D01*
X33720Y9236D01*
D02*
G37*
G36*
X32720Y9236D02*
X32578Y9127D01*
X32469Y8985D01*
X32720D01*
Y9236D01*
D02*
G37*
G36*
X36511Y7985D02*
X36260D01*
Y7734D01*
X36402Y7843D01*
X36511Y7985D01*
D02*
G37*
G36*
X27640Y9236D02*
X27498Y9127D01*
X27389Y8985D01*
X27640D01*
Y9236D01*
D02*
G37*
G36*
X28640D02*
Y8985D01*
X28891D01*
X28782Y9127D01*
X28640Y9236D01*
D02*
G37*
G36*
X13651Y7985D02*
X13400D01*
Y7734D01*
X13542Y7843D01*
X13651Y7985D01*
D02*
G37*
G36*
X26351Y7985D02*
X26100D01*
Y7734D01*
X26242Y7843D01*
X26351Y7985D01*
D02*
G37*
G36*
X33971D02*
X33720D01*
Y7734D01*
X33862Y7843D01*
X33971Y7985D01*
D02*
G37*
G36*
X12400Y7985D02*
X12149D01*
X12258Y7843D01*
X12400Y7734D01*
Y7985D01*
D02*
G37*
G36*
X27640Y7985D02*
X27389D01*
X27498Y7843D01*
X27640Y7734D01*
Y7985D01*
D02*
G37*
G36*
X28891D02*
X28640D01*
Y7734D01*
X28782Y7843D01*
X28891Y7985D01*
D02*
G37*
G36*
X37800Y7985D02*
X37549D01*
X37658Y7843D01*
X37800Y7734D01*
Y7985D01*
D02*
G37*
G36*
X20020Y7985D02*
X19769D01*
X19878Y7843D01*
X20020Y7734D01*
Y7985D01*
D02*
G37*
G36*
X39051Y7985D02*
X38800D01*
Y7734D01*
X38942Y7843D01*
X39051Y7985D01*
D02*
G37*
G36*
X9860Y7985D02*
X9609D01*
X9718Y7843D01*
X9860Y7734D01*
Y7985D01*
D02*
G37*
G36*
X11111D02*
X10860D01*
Y7734D01*
X11002Y7843D01*
X11111Y7985D01*
D02*
G37*
G36*
X18731D02*
X18480D01*
Y7734D01*
X18622Y7843D01*
X18731Y7985D01*
D02*
G37*
G36*
X35260D02*
X35009D01*
X35118Y7843D01*
X35260Y7734D01*
Y7985D01*
D02*
G37*
G36*
X31431D02*
X31180D01*
Y7734D01*
X31322Y7843D01*
X31431Y7985D01*
D02*
G37*
G36*
X17480D02*
X17229D01*
X17338Y7843D01*
X17480Y7734D01*
Y7985D01*
D02*
G37*
G36*
X11289Y19100D02*
X10185D01*
Y17996D01*
X11085D01*
X11163Y18012D01*
X11229Y18056D01*
X11273Y18122D01*
X11289Y18200D01*
Y19100D01*
D02*
G37*
G36*
X9185D02*
X8081D01*
Y18200D01*
X8097Y18122D01*
X8141Y18056D01*
X8207Y18012D01*
X8285Y17996D01*
X9185D01*
Y19100D01*
D02*
G37*
G36*
X15940Y9236D02*
Y8985D01*
X16191D01*
X16082Y9127D01*
X15940Y9236D01*
D02*
G37*
G36*
X22560Y9236D02*
X22418Y9127D01*
X22309Y8985D01*
X22560D01*
Y9236D01*
D02*
G37*
G36*
X23560D02*
Y8985D01*
X23811D01*
X23702Y9127D01*
X23560Y9236D01*
D02*
G37*
G36*
X9185Y21204D02*
X8285D01*
X8207Y21188D01*
X8141Y21144D01*
X8097Y21078D01*
X8081Y21000D01*
Y20100D01*
X9185D01*
Y21204D01*
D02*
G37*
G36*
X11085D02*
X10185D01*
Y20100D01*
X11289D01*
Y21000D01*
X11273Y21078D01*
X11229Y21144D01*
X11163Y21188D01*
X11085Y21204D01*
D02*
G37*
G36*
X20020Y9236D02*
X19878Y9127D01*
X19769Y8985D01*
X20020D01*
Y9236D01*
D02*
G37*
G36*
X35260D02*
X35118Y9127D01*
X35009Y8985D01*
X35260D01*
Y9236D01*
D02*
G37*
G36*
X17480Y9236D02*
X17338Y9127D01*
X17229Y8985D01*
X17480D01*
Y9236D01*
D02*
G37*
G36*
X38800Y9236D02*
Y8985D01*
X39051D01*
X38942Y9127D01*
X38800Y9236D01*
D02*
G37*
G36*
X37800Y9236D02*
X37658Y9127D01*
X37549Y8985D01*
X37800D01*
Y9236D01*
D02*
G37*
G36*
X12400Y9236D02*
X12258Y9127D01*
X12149Y8985D01*
X12400D01*
Y9236D01*
D02*
G37*
G36*
X13400D02*
Y8985D01*
X13651D01*
X13542Y9127D01*
X13400Y9236D01*
D02*
G37*
G36*
X9860Y9236D02*
X9718Y9127D01*
X9609Y8985D01*
X9860D01*
Y9236D01*
D02*
G37*
G36*
X21020Y9236D02*
Y8985D01*
X21271D01*
X21162Y9127D01*
X21020Y9236D01*
D02*
G37*
G36*
X36260D02*
Y8985D01*
X36511D01*
X36402Y9127D01*
X36260Y9236D01*
D02*
G37*
G36*
X14940Y9236D02*
X14798Y9127D01*
X14689Y8985D01*
X14940D01*
Y9236D01*
D02*
G37*
G36*
X10860Y9236D02*
Y8985D01*
X11111D01*
X11002Y9127D01*
X10860Y9236D01*
D02*
G37*
G36*
X30180Y9236D02*
X30038Y9127D01*
X29929Y8985D01*
X30180D01*
Y9236D01*
D02*
G37*
G36*
X31180Y9236D02*
Y8985D01*
X31431D01*
X31322Y9127D01*
X31180Y9236D01*
D02*
G37*
G36*
X18480Y9236D02*
Y8985D01*
X18731D01*
X18622Y9127D01*
X18480Y9236D01*
D02*
G37*
G36*
X48685Y19100D02*
X47581D01*
Y18200D01*
X47597Y18122D01*
X47641Y18056D01*
X47707Y18012D01*
X47785Y17996D01*
X48685D01*
Y19100D01*
D02*
G37*
G36*
X50789D02*
X49685D01*
Y17996D01*
X50585D01*
X50663Y18012D01*
X50729Y18056D01*
X50773Y18122D01*
X50789Y18200D01*
Y19100D01*
D02*
G37*
G36*
X48685Y21204D02*
X47785D01*
X47707Y21188D01*
X47641Y21144D01*
X47597Y21078D01*
X47581Y21000D01*
Y20100D01*
X48685D01*
Y21204D01*
D02*
G37*
G36*
X42508Y50569D02*
X41954D01*
Y50219D01*
X41970Y50141D01*
X42014Y50075D01*
X42080Y50031D01*
X42158Y50015D01*
X42508D01*
Y50569D01*
D02*
G37*
G36*
X44062D02*
X43508D01*
Y50015D01*
X43858D01*
X43936Y50031D01*
X44002Y50075D01*
X44046Y50141D01*
X44062Y50219D01*
Y50569D01*
D02*
G37*
G36*
X43025Y54022D02*
X42995Y54010D01*
X42776Y53842D01*
X42608Y53622D01*
X42596Y53593D01*
X43025D01*
Y54022D01*
D02*
G37*
G36*
X50585Y38510D02*
X47785D01*
X47590Y38471D01*
X47425Y38360D01*
X47314Y38195D01*
X47275Y38000D01*
Y35200D01*
X47314Y35005D01*
X47425Y34840D01*
X47590Y34729D01*
X47785Y34690D01*
X50585D01*
X50780Y34729D01*
X50945Y34840D01*
X51056Y35005D01*
X51095Y35200D01*
Y38000D01*
X51056Y38195D01*
X50945Y38360D01*
X50780Y38471D01*
X50585Y38510D01*
D02*
G37*
G36*
Y21204D02*
X49685D01*
Y20100D01*
X50789D01*
Y21000D01*
X50773Y21078D01*
X50729Y21144D01*
X50663Y21188D01*
X50585Y21204D01*
D02*
G37*
%LPD*%
D10*
X16240Y25700D02*
G03*
X13700Y23160I0J-2540D01*
G01*
X17140Y25050D02*
G03*
X14600Y22510I0J-2540D01*
G01*
X33046Y29114D02*
G03*
X31250Y29858I-1796J-1796D01*
G01*
X33116Y29044D02*
G03*
X34912Y28300I1796J1796D01*
G01*
X16704Y42956D02*
G03*
X14908Y43700I-1796J-1796D01*
G01*
X21498Y30602D02*
G03*
X23295Y29858I1796J1796D01*
G01*
X14015Y43700D02*
G03*
X12700Y42385I0J-1315D01*
G01*
Y40452D02*
G03*
X13444Y38656I2540J0D01*
G01*
X44058Y24306D02*
G03*
X42262Y25050I-1796J-1796D01*
G01*
X45500Y21812D02*
G03*
X44756Y23608I-2540J0D01*
G01*
X44380Y21568D02*
G03*
X43636Y23364I-2540J0D01*
G01*
X43344Y23656D02*
G03*
X41548Y24400I-1796J-1796D01*
G01*
X41643Y30243D02*
G03*
X43000Y31600I0J1357D01*
G01*
Y33188D02*
G03*
X42256Y34984I-2540J0D01*
G01*
X37100Y41192D02*
G03*
X37844Y39396I2540J0D01*
G01*
X37100Y43960D02*
G03*
X34560Y46500I-2540J0D01*
G01*
X33682D02*
G03*
X31886Y45756I0J-2540D01*
G01*
X37994Y30100D02*
G03*
X38137Y30243I0J142D01*
G01*
X31754Y42956D02*
G03*
X29958Y43700I-1796J-1796D01*
G01*
X19642D02*
G03*
X17846Y42956I0J-2540D01*
G01*
X18632Y46500D02*
G03*
X16836Y45756I0J-2540D01*
G01*
X30224D02*
G03*
X28428Y46500I-1796J-1796D01*
G01*
X38392Y26400D02*
G03*
X37426Y26000I0J-1366D01*
G01*
X36702Y25700D02*
G03*
X37426Y26000I0J1024D01*
G01*
X39000Y27650D02*
G03*
X40500Y29150I0J1500D01*
G01*
X37037Y28300D02*
G03*
X38137Y29400I0J1100D01*
G01*
X37800Y20000D02*
G03*
X36650Y21150I-1150J0D01*
G01*
X36760Y18465D02*
G03*
X37800Y19505I0J1040D01*
G01*
X38800Y20500D02*
G03*
X37500Y21800I-1300J0D01*
G01*
X39815Y20500D02*
G03*
X37865Y22450I-1950J0D01*
G01*
X37000Y20200D02*
G03*
X36700Y20500I-300J0D01*
G01*
X36504Y19100D02*
G03*
X37000Y19596I0J496D01*
G01*
X31900Y25900D02*
G03*
X30814Y26350I-1086J-1086D01*
G01*
X35256Y26350D02*
G03*
X34170Y25900I0J-1536D01*
G01*
X30814Y27650D02*
G03*
X31900Y28100I0J1536D01*
G01*
X29636Y28300D02*
G03*
X28550Y27850I0J-1536D01*
G01*
X45500Y18576D02*
G03*
X45893Y17627I1343J0D01*
G01*
X47383Y16137D02*
G03*
X48460Y15691I1077J1077D01*
G01*
X44380Y18972D02*
G03*
X45124Y17176I2540J0D01*
G01*
X45920Y15691D02*
G03*
X45433Y16867I-1664J0D01*
G01*
X43380Y21210D02*
G03*
X40840Y23750I-2540J0D01*
G01*
X40840Y20590D02*
G03*
X38330Y23100I-2510J0D01*
G01*
X38519Y16219D02*
G03*
X38300Y15691I528J-528D01*
G01*
X39071Y16771D02*
G03*
X39815Y18567I-1796J1796D01*
G01*
X35760Y15691D02*
G03*
X35941Y15766I0J256D01*
G01*
X38056Y17881D02*
G03*
X38800Y19677I-1796J1796D01*
G01*
X33200Y15739D02*
G03*
X33220Y15691I68J0D01*
G01*
X35165Y18465D02*
G03*
X33200Y16500I0J-1965D01*
G01*
X32280Y19100D02*
G03*
X30680Y17500I0J-1600D01*
G01*
X29440Y21150D02*
G03*
X28140Y19850I0J-1300D01*
G01*
X28140Y21800D02*
G03*
X25600Y19260I0J-2540D01*
G01*
X25600Y22450D02*
G03*
X23060Y19910I0J-2540D01*
G01*
X23060Y23100D02*
G03*
X20520Y20560I0J-2540D01*
G01*
X20520Y23750D02*
G03*
X17980Y21210I0J-2540D01*
G01*
X17980Y24400D02*
G03*
X15440Y21860I0J-2540D01*
G01*
X12942Y15792D02*
G03*
X12900Y15691I101J-101D01*
G01*
X13856Y16706D02*
G03*
X14600Y18502I-1796J1796D01*
G01*
X13229Y18115D02*
G03*
X13700Y19252I-1137J1137D01*
G01*
X10360Y15691D02*
G03*
X11120Y16006I0J1074D01*
G01*
X3490Y28985D02*
G03*
X3448Y28968I0J-60D01*
G01*
X5988Y42385D02*
G03*
X3448Y39845I0J-2540D01*
G01*
X14600Y18502D02*
Y22510D01*
X35845Y28300D02*
X37037D01*
X34912D02*
X35845D01*
X33046Y29114D02*
X33116Y29044D01*
X17275Y42385D02*
X17846Y42956D01*
X16704D02*
X17275Y42385D01*
X14015Y43700D02*
X14908D01*
X23295Y29858D02*
X31250D01*
X13444Y38656D02*
X21498Y30602D01*
X12700Y40452D02*
Y42385D01*
X35845Y25050D02*
X42262D01*
X44058Y24306D02*
X44756Y23608D01*
X35845Y24400D02*
X41548D01*
X43344Y23656D02*
X43636Y23364D01*
X43000Y31600D02*
Y33188D01*
X37844Y39396D02*
X42256Y34984D01*
X37100Y41192D02*
Y43960D01*
X33682Y46500D02*
X34560D01*
X31754Y42956D02*
X32325Y42385D01*
X19642Y43700D02*
X29958D01*
X40500Y30243D02*
X41643D01*
X30224Y45756D02*
X31055Y44925D01*
X31886Y45756D01*
X18632Y46500D02*
X28428D01*
X16005Y44925D02*
X16836Y45756D01*
X38392Y26400D02*
X38593D01*
X35845Y25700D02*
X36702D01*
X35845Y27650D02*
X39000D01*
X40500Y29150D02*
Y30243D01*
X38137Y29400D02*
Y30243D01*
X29440Y21150D02*
X30225D01*
X28140Y21800D02*
X30225D01*
X25600Y22450D02*
X30225D01*
X23060Y23100D02*
X30225D01*
X20520Y23750D02*
X30225D01*
X17980Y24400D02*
X30225D01*
X17140Y25050D02*
X30225D01*
X16240Y25700D02*
X30225D01*
X35845Y21150D02*
X36650D01*
X37800Y19505D02*
Y20000D01*
X35165Y18465D02*
X36760D01*
X35845Y21800D02*
X37500D01*
X38800Y19677D02*
Y20500D01*
X35845Y22450D02*
X37865D01*
X39815Y18567D02*
Y20500D01*
X35845Y23100D02*
X38330D01*
X35845Y23750D02*
X40840D01*
X37000Y19596D02*
Y20200D01*
X32280Y19100D02*
X36504D01*
X30225Y20500D02*
X31700D01*
X35845Y20500D02*
X36700D01*
X30225Y26350D02*
X30814D01*
X35256Y26350D02*
X35845D01*
X34370Y27000D02*
X35845D01*
X30225Y27000D02*
X31700D01*
X30225Y27650D02*
X30814Y27650D01*
X29636Y28300D02*
X30225D01*
X29945Y32200D02*
X31420D01*
X29945Y31300D02*
X31420D01*
X40608Y26400D02*
X41840D01*
X45500Y18576D02*
Y21812D01*
X45893Y17627D02*
X47383Y16137D01*
X44380Y18972D02*
Y21568D01*
X45124Y17176D02*
X45433Y16867D01*
X43380Y15691D02*
Y21210D01*
X40840Y15691D02*
X40840Y15691D01*
X40840Y15691D02*
Y20590D01*
X38519Y16219D02*
X39071Y16771D01*
X35941Y15766D02*
X38056Y17881D01*
X33200Y15739D02*
Y16500D01*
X30680Y15691D02*
X30680Y15691D01*
X30680Y15691D02*
Y17500D01*
X28140Y15691D02*
X28140Y15691D01*
X28140Y15691D02*
Y19850D01*
X25600Y15691D02*
X25600Y15691D01*
X25600Y15691D02*
Y19260D01*
X23060Y15691D02*
Y19910D01*
X20520Y15691D02*
Y20560D01*
X17980Y15691D02*
Y21210D01*
X15440Y15691D02*
Y21860D01*
X12942Y15792D02*
X13856Y16706D01*
X13700Y19252D02*
Y23160D01*
X11120Y16006D02*
X13229Y18115D01*
X10360Y11025D02*
Y13676D01*
X12900Y11025D02*
Y13676D01*
X15440Y11025D02*
Y13676D01*
X17980Y11025D02*
Y13676D01*
X20520Y11025D02*
Y13676D01*
X33220Y11025D02*
Y13676D01*
X30680Y11025D02*
Y13676D01*
X28140Y11025D02*
Y13676D01*
X25600Y11025D02*
Y13676D01*
X23060Y11025D02*
Y13676D01*
X45920Y11025D02*
Y13676D01*
X43380Y11025D02*
Y13676D01*
X40840Y11025D02*
Y13676D01*
X38300Y11025D02*
Y13676D01*
X35760Y11025D02*
Y13676D01*
X48460Y11025D02*
Y13676D01*
X3490Y28985D02*
X5750D01*
Y28950D02*
X30225D01*
X5750Y31000D02*
Y32232D01*
X5988Y42385D02*
X11600D01*
X3448Y30368D02*
Y39845D01*
D11*
X35657Y32257D02*
G03*
X34494Y31776I0J-1644D01*
G01*
Y37260D02*
G03*
X31954Y39800I-2540J0D01*
G01*
X27245D02*
G03*
X29785Y42340I0J2540D01*
G01*
X14735D02*
G03*
X17275Y39800I2540J0D01*
G01*
X35657Y32257D02*
X38137D01*
X34494Y31776D02*
Y37260D01*
X38137Y32257D02*
X40500D01*
X17275Y39800D02*
X27245D01*
X31954D01*
X29785Y42340D02*
Y42385D01*
X14735Y42340D02*
Y42385D01*
D12*
X34494Y29460D02*
G03*
X35005Y28950I510J0D01*
G01*
X34494Y29460D02*
Y31776D01*
X35005Y28950D02*
X35845D01*
D13*
X48460Y13676D02*
D03*
Y15691D02*
D03*
X45920Y13676D02*
D03*
Y15691D02*
D03*
X43380Y13676D02*
D03*
Y15691D02*
D03*
X40840Y13676D02*
D03*
Y15691D02*
D03*
X38300Y13676D02*
D03*
Y15691D02*
D03*
X35760Y13676D02*
D03*
Y15691D02*
D03*
X33220Y13676D02*
D03*
Y15691D02*
D03*
X30680Y13676D02*
D03*
Y15691D02*
D03*
X28140Y13676D02*
D03*
Y15691D02*
D03*
X25600Y13676D02*
D03*
Y15691D02*
D03*
X23060Y13676D02*
D03*
Y15691D02*
D03*
X20520Y13676D02*
D03*
Y15691D02*
D03*
X17980Y13676D02*
D03*
Y15691D02*
D03*
X15440Y13676D02*
D03*
Y15691D02*
D03*
X12900Y13676D02*
D03*
Y15691D02*
D03*
X10360Y13676D02*
D03*
Y15691D02*
D03*
X38137Y30243D02*
D03*
X38137Y32257D02*
D03*
X40500Y30243D02*
D03*
X40500Y32257D02*
D03*
X5750Y28985D02*
D03*
Y31000D02*
D03*
D14*
X35845Y21150D02*
D03*
X35845Y20500D02*
D03*
X30225Y20500D02*
D03*
X35845Y22450D02*
D03*
X35845Y23100D02*
D03*
X35845Y23750D02*
D03*
X35845Y24400D02*
D03*
Y21800D02*
D03*
X30225Y21150D02*
D03*
X30225Y21800D02*
D03*
X30225Y24400D02*
D03*
X30225Y23750D02*
D03*
X30225Y23100D02*
D03*
X30225Y22450D02*
D03*
X35845Y26350D02*
D03*
X35845Y27000D02*
D03*
X30225Y26350D02*
D03*
X30225Y27000D02*
D03*
X35845Y27650D02*
D03*
X35845Y28300D02*
D03*
X35845Y28950D02*
D03*
X35845Y25700D02*
D03*
X30225Y27650D02*
D03*
X30225Y28300D02*
D03*
Y28950D02*
D03*
X30225Y25700D02*
D03*
X30225Y25050D02*
D03*
X35845Y25050D02*
D03*
D15*
X34494Y31776D02*
D03*
X31494D02*
D03*
D16*
X38593Y26400D02*
D03*
X40608Y26400D02*
D03*
D17*
X3448Y30368D02*
D03*
Y28968D02*
D03*
D18*
X46025Y53093D02*
D03*
X43525Y53093D02*
D03*
X14735Y42385D02*
D03*
X16005Y44925D02*
D03*
X17275Y42385D02*
D03*
X18545Y44925D02*
D03*
X29785Y42385D02*
D03*
X31055Y44925D02*
D03*
X32325Y42385D02*
D03*
X33595Y44925D02*
D03*
X46508Y51069D02*
D03*
D19*
X20500Y51275D02*
D03*
X12845D02*
D03*
X35550D02*
D03*
X27895D02*
D03*
D20*
X40840Y5945D02*
D03*
X43380Y5945D02*
D03*
X45920Y5945D02*
D03*
X48460Y5945D02*
D03*
X10360Y5945D02*
D03*
X12900Y5945D02*
D03*
X17980Y5945D02*
D03*
X15440D02*
D03*
X25600Y5945D02*
D03*
X28140Y5945D02*
D03*
X33220Y5945D02*
D03*
X30680Y5945D02*
D03*
X23060Y5945D02*
D03*
X20520Y5945D02*
D03*
X35760Y5945D02*
D03*
X38300Y5945D02*
D03*
X38300Y8485D02*
D03*
X35760Y8485D02*
D03*
X20520D02*
D03*
X23060Y8485D02*
D03*
X30680Y8485D02*
D03*
X33220Y8485D02*
D03*
X28140Y8485D02*
D03*
X25600Y8485D02*
D03*
X15440Y8485D02*
D03*
X17980Y8485D02*
D03*
X12900Y8485D02*
D03*
X10360Y8485D02*
D03*
X48460D02*
D03*
X45920Y8485D02*
D03*
X43380Y8485D02*
D03*
X40840Y8485D02*
D03*
X10360Y11025D02*
D03*
X12900Y11025D02*
D03*
X17980Y11025D02*
D03*
X15440Y11025D02*
D03*
X25600Y11025D02*
D03*
X28140Y11025D02*
D03*
X33220Y11025D02*
D03*
X30680Y11025D02*
D03*
X23060D02*
D03*
X20520Y11025D02*
D03*
X35760Y11025D02*
D03*
X43380Y11025D02*
D03*
X45920Y11025D02*
D03*
X40840Y11025D02*
D03*
X38300Y11025D02*
D03*
D21*
X48460Y11025D02*
D03*
D22*
X43008Y51069D02*
D03*
D23*
X9685Y36600D02*
D03*
Y19600D02*
D03*
X49185Y36600D02*
D03*
Y19600D02*
D03*
D24*
X31700Y20500D02*
D03*
X31900Y25900D02*
D03*
X34170Y25900D02*
D03*
X34370Y27000D02*
D03*
X31700Y27000D02*
D03*
X31900Y28100D02*
D03*
X28550Y27850D02*
D03*
X29945Y32200D02*
D03*
Y31300D02*
D03*
X41840Y26400D02*
D03*
X5750Y32232D02*
D03*
X11600Y42385D02*
D03*
M02*
