M48
;Layer_Color=9474304
;FILE_FORMAT=4:3
METRIC,LZ
;TYPE=PLATED
T1F00S00C0.300
T2F00S00C0.800
T3F00S00C0.890
T4F00S00C0.920
T5F00S00C1.000
T6F00S00C1.100
;TYPE=NON_PLATED
T7F00S00C3.200
T8F00S00C3.250
%
T01
X0022785Y002685
X002835Y0026825
X003122Y0026175
X003397Y0026825
X003397Y0028125
X003684Y0027475
X003684Y0026175
Y0019975
X003551Y0031656
Y0032556
X000655Y0032232
X0003448Y00319
X00049Y0028985
X00116Y0042385
T02
X0049285Y00196
Y00366
X0009785
Y00196
T03
X0014735Y0042385
X0017275
X0029785
X0032325
X0031055Y0044925
X0033595
X0018545
X0016005
T04
X00129Y0005945
X001544Y0005945
X001798
X002052Y0005945
X002052Y0008485
X001798
X001798Y0011025
X002052Y0011025
X002306Y0011025
Y0008485
X00256Y0008485
Y0005945
X002306Y0005945
X002814Y0005945
X002814Y0008485
X003068Y0008485
X003068Y0011025
X002814Y0011025
X00256Y0011025
X003322Y0011025
X003322Y0008485
X003322Y0005945
X003068Y0005945
X003576Y0005945
X003576Y0008485
X00383Y0008485
X00383Y0005945
X004084Y0005945
X004338Y0005945
Y0008485
X004592Y0008485
X004592Y0005945
X004846Y0005945
X004846Y0008485
X004846Y0011025
X004592Y0011025
X004338Y0011025
X004084Y0011025
X004084Y0008485
X00383Y0011025
X003576Y0011025
X001544
X001544Y0008485
X00129Y0008485
X00129Y0011025
X001036Y0011025
X001036Y0008485
X001036Y0005945
T05
X0043535Y004915
X0046035Y004915
T06
X0043008Y0051369
X0046508Y0051369
T07
X00545Y0004475
X00045
Y0054475
X00545Y0054475
T08
X0012845Y0051275
X00205
X0027895
X003555
M30
