G04 Layer_Color=61183*
%FSLAX43Y43*%
%MOMM*%
G71*
G01*
G75*
%ADD20C,0.200*%
%ADD26C,0.100*%
%ADD27C,0.150*%
%ADD28C,0.254*%
%ADD29R,5.050X10.100*%
G36*
X3482Y27864D02*
X3516D01*
X3552Y27860D01*
X3595Y27858D01*
X3640Y27854D01*
X3733Y27841D01*
X3829Y27822D01*
X3874Y27809D01*
X3914Y27796D01*
X3953Y27779D01*
X3987Y27760D01*
X3989Y27758D01*
X3993Y27756D01*
X4002Y27749D01*
X4012Y27741D01*
X4025Y27730D01*
X4038Y27717D01*
X4068Y27685D01*
X4097Y27645D01*
X4123Y27598D01*
X4134Y27573D01*
X4142Y27545D01*
X4146Y27515D01*
X4148Y27483D01*
Y27481D01*
Y27475D01*
X4146Y27466D01*
Y27455D01*
X4144Y27441D01*
X4140Y27424D01*
X4129Y27383D01*
X4121Y27362D01*
X4110Y27338D01*
X4097Y27317D01*
X4080Y27294D01*
X4063Y27270D01*
X4042Y27247D01*
X4016Y27226D01*
X3989Y27204D01*
X3987Y27202D01*
X3980Y27200D01*
X3972Y27196D01*
X3957Y27187D01*
X3938Y27181D01*
X3916Y27172D01*
X3889Y27162D01*
X3857Y27153D01*
X3818Y27143D01*
X3778Y27134D01*
X3731Y27123D01*
X3678Y27117D01*
X3621Y27111D01*
X3557Y27104D01*
X3489Y27102D01*
X3414Y27100D01*
X3376D01*
X3348Y27102D01*
X3316Y27104D01*
X3278Y27106D01*
X3235Y27109D01*
X3191Y27113D01*
X3097Y27126D01*
X3003Y27145D01*
X2959Y27155D01*
X2918Y27170D01*
X2880Y27185D01*
X2846Y27204D01*
X2844Y27206D01*
X2839Y27209D01*
X2831Y27215D01*
X2820Y27223D01*
X2807Y27234D01*
X2795Y27247D01*
X2763Y27279D01*
X2733Y27319D01*
X2707Y27366D01*
X2697Y27392D01*
X2688Y27419D01*
X2684Y27449D01*
X2682Y27481D01*
Y27483D01*
Y27490D01*
Y27498D01*
X2684Y27509D01*
X2686Y27524D01*
X2690Y27541D01*
X2703Y27581D01*
X2712Y27602D01*
X2722Y27626D01*
X2735Y27647D01*
X2750Y27670D01*
X2769Y27694D01*
X2793Y27717D01*
X2816Y27739D01*
X2846Y27760D01*
X2848Y27762D01*
X2854Y27764D01*
X2863Y27770D01*
X2878Y27777D01*
X2897Y27785D01*
X2918Y27794D01*
X2946Y27802D01*
X2978Y27813D01*
X3016Y27824D01*
X3056Y27832D01*
X3103Y27841D01*
X3157Y27849D01*
X3212Y27856D01*
X3276Y27862D01*
X3342Y27864D01*
X3416Y27866D01*
X3455D01*
X3482Y27864D01*
D02*
G37*
G36*
X55072Y15996D02*
X55091D01*
X55133Y15989D01*
X55181Y15982D01*
X55234Y15970D01*
X55290Y15954D01*
X55343Y15931D01*
X55345D01*
X55350Y15929D01*
X55357Y15924D01*
X55366Y15919D01*
X55392Y15903D01*
X55422Y15885D01*
X55457Y15859D01*
X55494Y15829D01*
X55526Y15794D01*
X55556Y15755D01*
Y15753D01*
X55558Y15750D01*
X55568Y15736D01*
X55577Y15713D01*
X55591Y15686D01*
X55602Y15649D01*
X55614Y15609D01*
X55623Y15565D01*
X55625Y15517D01*
Y15514D01*
Y15507D01*
Y15496D01*
X55623Y15482D01*
X55621Y15466D01*
X55616Y15445D01*
X55612Y15422D01*
X55605Y15396D01*
X55586Y15343D01*
X55575Y15315D01*
X55558Y15285D01*
X55540Y15258D01*
X55519Y15227D01*
X55496Y15200D01*
X55468Y15174D01*
X55466Y15172D01*
X55461Y15167D01*
X55452Y15163D01*
X55438Y15153D01*
X55422Y15142D01*
X55403Y15130D01*
X55380Y15119D01*
X55352Y15107D01*
X55322Y15093D01*
X55290Y15082D01*
X55253Y15070D01*
X55211Y15059D01*
X55170Y15049D01*
X55121Y15045D01*
X55072Y15040D01*
X55019Y15038D01*
X54991D01*
X54975Y15040D01*
X54959Y15042D01*
X54920Y15047D01*
X54871Y15054D01*
X54820Y15065D01*
X54769Y15082D01*
X54716Y15102D01*
X54714D01*
X54709Y15105D01*
X54702Y15109D01*
X54693Y15114D01*
X54670Y15130D01*
X54640Y15149D01*
X54605Y15174D01*
X54573Y15204D01*
X54538Y15239D01*
X54510Y15276D01*
Y15278D01*
X54508Y15281D01*
X54499Y15295D01*
X54487Y15318D01*
X54475Y15345D01*
X54462Y15382D01*
X54452Y15422D01*
X54443Y15468D01*
X54441Y15517D01*
Y15519D01*
Y15526D01*
Y15537D01*
X54443Y15554D01*
X54445Y15572D01*
X54450Y15595D01*
X54455Y15618D01*
X54462Y15644D01*
X54471Y15672D01*
X54485Y15702D01*
X54499Y15730D01*
X54515Y15760D01*
X54536Y15790D01*
X54559Y15817D01*
X54586Y15843D01*
X54617Y15868D01*
X54619Y15871D01*
X54624Y15873D01*
X54635Y15880D01*
X54647Y15889D01*
X54665Y15898D01*
X54684Y15910D01*
X54707Y15922D01*
X54735Y15933D01*
X54762Y15945D01*
X54795Y15956D01*
X54827Y15968D01*
X54864Y15977D01*
X54943Y15993D01*
X54984Y15996D01*
X55028Y15998D01*
X55059D01*
X55072Y15996D01*
D02*
G37*
G36*
X47559Y600D02*
X47331D01*
Y1038D01*
X47010D01*
Y600D01*
X46782D01*
Y1643D01*
X47010D01*
Y1262D01*
X47331D01*
Y1643D01*
X47559D01*
Y600D01*
D02*
G37*
G36*
X4125Y31844D02*
X3084D01*
X3086Y31842D01*
X3091Y31837D01*
X3097Y31831D01*
X3108Y31820D01*
X3118Y31810D01*
X3133Y31795D01*
X3148Y31778D01*
X3163Y31759D01*
X3197Y31716D01*
X3233Y31667D01*
X3265Y31610D01*
X3293Y31550D01*
X3042D01*
Y31552D01*
X3039Y31554D01*
X3035Y31567D01*
X3025Y31584D01*
X3012Y31610D01*
X2993Y31639D01*
X2969Y31671D01*
X2942Y31708D01*
X2907Y31746D01*
X2905Y31748D01*
X2903Y31750D01*
X2890Y31763D01*
X2869Y31780D01*
X2842Y31801D01*
X2810Y31825D01*
X2771Y31848D01*
X2729Y31869D01*
X2682Y31886D01*
Y32071D01*
X4125D01*
Y31844D01*
D02*
G37*
G36*
X55600Y14575D02*
Y14353D01*
X54504Y13993D01*
X54760Y13915D01*
X54758Y13913D01*
X54753Y13906D01*
X54744Y13895D01*
X54735Y13878D01*
X54725Y13862D01*
X54716Y13841D01*
X54711Y13823D01*
X54709Y13802D01*
Y13800D01*
Y13793D01*
X54711Y13784D01*
X54714Y13772D01*
X54718Y13758D01*
X54725Y13742D01*
X54735Y13728D01*
X54748Y13712D01*
X54751Y13709D01*
X54755Y13705D01*
X54765Y13698D01*
X54779Y13691D01*
X54797Y13682D01*
X54823Y13672D01*
X54850Y13663D01*
X54885Y13656D01*
X54890D01*
X54897Y13654D01*
X54903D01*
X54915Y13652D01*
X54931D01*
X54947Y13649D01*
X54968D01*
X54991Y13647D01*
X55017Y13645D01*
X55047D01*
X55082Y13642D01*
X55119D01*
X55158Y13640D01*
X55600D01*
Y13392D01*
X54466D01*
Y13622D01*
X54626D01*
X54624Y13624D01*
X54610Y13631D01*
X54591Y13642D01*
X54566Y13656D01*
X54543Y13672D01*
X54517Y13691D01*
X54494Y13707D01*
X54478Y13726D01*
X54475Y13728D01*
X54471Y13735D01*
X54466Y13744D01*
X54459Y13756D01*
X54452Y13772D01*
X54445Y13790D01*
X54443Y13811D01*
X54441Y13832D01*
Y13837D01*
Y13846D01*
X54443Y13862D01*
X54448Y13883D01*
X54455Y13908D01*
X54466Y13936D01*
X54480Y13964D01*
X54496Y13990D01*
X54466Y13980D01*
Y14239D01*
X55047Y14413D01*
X55239Y14464D01*
X55047Y14517D01*
X54466Y14695D01*
Y14947D01*
X55600Y14575D01*
D02*
G37*
G36*
X46778Y57525D02*
X48082D01*
Y56807D01*
X46778D01*
Y55733D01*
X45882D01*
Y56807D01*
X44578D01*
Y57525D01*
X45882D01*
Y58607D01*
X46778D01*
Y57525D01*
D02*
G37*
G36*
X43544Y56630D02*
X41600D01*
Y57834D01*
X43544D01*
Y56630D01*
D02*
G37*
G36*
X55119Y12587D02*
X55142D01*
X55165Y12590D01*
X55195Y12594D01*
X55230Y12601D01*
X55264Y12613D01*
X55299Y12627D01*
X55329Y12645D01*
X55332Y12647D01*
X55341Y12657D01*
X55352Y12668D01*
X55364Y12684D01*
X55378Y12705D01*
X55389Y12731D01*
X55399Y12756D01*
X55401Y12786D01*
Y12789D01*
Y12791D01*
X55399Y12805D01*
X55392Y12826D01*
X55380Y12851D01*
X55373Y12863D01*
X55362Y12876D01*
X55348Y12890D01*
X55332Y12904D01*
X55313Y12916D01*
X55292Y12927D01*
X55267Y12937D01*
X55239Y12946D01*
X55290Y13191D01*
X55292D01*
X55297Y13189D01*
X55306Y13187D01*
X55318Y13182D01*
X55332Y13177D01*
X55348Y13170D01*
X55385Y13152D01*
X55426Y13131D01*
X55470Y13103D01*
X55510Y13073D01*
X55544Y13036D01*
X55547Y13031D01*
X55556Y13018D01*
X55570Y12997D01*
X55584Y12967D01*
X55600Y12930D01*
X55612Y12886D01*
X55621Y12837D01*
X55625Y12784D01*
Y12782D01*
Y12775D01*
Y12765D01*
X55623Y12749D01*
X55621Y12733D01*
X55619Y12712D01*
X55609Y12668D01*
X55593Y12615D01*
X55581Y12590D01*
X55568Y12564D01*
X55551Y12536D01*
X55533Y12513D01*
X55512Y12488D01*
X55489Y12467D01*
X55487Y12465D01*
X55482Y12462D01*
X55473Y12455D01*
X55459Y12446D01*
X55443Y12437D01*
X55424Y12425D01*
X55399Y12414D01*
X55373Y12402D01*
X55343Y12388D01*
X55308Y12377D01*
X55271Y12365D01*
X55232Y12356D01*
X55188Y12347D01*
X55142Y12340D01*
X55093Y12337D01*
X55040Y12335D01*
X55012D01*
X54994Y12337D01*
X54968Y12340D01*
X54941Y12342D01*
X54910Y12347D01*
X54878Y12351D01*
X54806Y12367D01*
X54767Y12379D01*
X54730Y12391D01*
X54693Y12407D01*
X54656Y12423D01*
X54619Y12444D01*
X54586Y12467D01*
X54584Y12469D01*
X54580Y12472D01*
X54573Y12478D01*
X54563Y12488D01*
X54552Y12499D01*
X54540Y12513D01*
X54512Y12546D01*
X54487Y12590D01*
X54464Y12638D01*
X54455Y12666D01*
X54448Y12696D01*
X54443Y12728D01*
X54441Y12761D01*
Y12763D01*
Y12770D01*
Y12779D01*
X54443Y12793D01*
X54445Y12809D01*
X54448Y12830D01*
X54459Y12874D01*
X54478Y12925D01*
X54489Y12951D01*
X54503Y12976D01*
X54519Y13001D01*
X54540Y13027D01*
X54563Y13050D01*
X54589Y13073D01*
X54591Y13075D01*
X54596Y13078D01*
X54607Y13085D01*
X54621Y13094D01*
X54637Y13103D01*
X54661Y13115D01*
X54686Y13126D01*
X54714Y13138D01*
X54748Y13150D01*
X54785Y13161D01*
X54825Y13173D01*
X54869Y13182D01*
X54917Y13191D01*
X54971Y13198D01*
X55026Y13200D01*
X55086Y13203D01*
X55119D01*
Y12587D01*
D02*
G37*
G36*
X55181Y12187D02*
X55197Y12185D01*
X55218Y12182D01*
X55241Y12178D01*
X55264Y12173D01*
X55320Y12159D01*
X55378Y12136D01*
X55406Y12122D01*
X55433Y12104D01*
X55461Y12085D01*
X55489Y12062D01*
X55491Y12060D01*
X55496Y12055D01*
X55500Y12048D01*
X55510Y12039D01*
X55521Y12025D01*
X55533Y12009D01*
X55544Y11988D01*
X55556Y11967D01*
X55570Y11942D01*
X55581Y11912D01*
X55593Y11879D01*
X55605Y11844D01*
X55614Y11805D01*
X55619Y11763D01*
X55623Y11719D01*
X55625Y11671D01*
Y11669D01*
Y11666D01*
Y11659D01*
Y11650D01*
X55621Y11627D01*
X55616Y11597D01*
X55609Y11560D01*
X55598Y11518D01*
X55581Y11474D01*
X55558Y11428D01*
X55531Y11382D01*
X55494Y11335D01*
X55452Y11291D01*
X55426Y11271D01*
X55399Y11250D01*
X55369Y11231D01*
X55339Y11215D01*
X55304Y11199D01*
X55267Y11183D01*
X55225Y11171D01*
X55183Y11160D01*
X55137Y11153D01*
X55089Y11146D01*
X55059Y11398D01*
X55061D01*
X55072Y11400D01*
X55086Y11402D01*
X55105Y11407D01*
X55128Y11414D01*
X55153Y11423D01*
X55181Y11435D01*
X55209Y11449D01*
X55237Y11465D01*
X55264Y11483D01*
X55290Y11507D01*
X55313Y11534D01*
X55332Y11564D01*
X55345Y11597D01*
X55357Y11636D01*
X55359Y11678D01*
Y11680D01*
Y11682D01*
Y11696D01*
X55357Y11717D01*
X55352Y11745D01*
X55345Y11773D01*
X55334Y11803D01*
X55320Y11833D01*
X55299Y11861D01*
X55297Y11863D01*
X55288Y11872D01*
X55274Y11884D01*
X55258Y11895D01*
X55234Y11909D01*
X55209Y11918D01*
X55179Y11928D01*
X55146Y11930D01*
X55137D01*
X55128Y11928D01*
X55114D01*
X55086Y11918D01*
X55070Y11914D01*
X55056Y11905D01*
X55054D01*
X55049Y11900D01*
X55035Y11886D01*
X55026Y11877D01*
X55015Y11865D01*
X55005Y11849D01*
X54996Y11833D01*
X54994Y11831D01*
X54991Y11824D01*
X54984Y11807D01*
X54975Y11787D01*
X54971Y11773D01*
X54966Y11757D01*
X54959Y11738D01*
X54952Y11715D01*
X54943Y11692D01*
X54934Y11664D01*
X54924Y11634D01*
X54915Y11601D01*
Y11599D01*
X54913Y11595D01*
X54910Y11585D01*
X54906Y11574D01*
X54901Y11560D01*
X54897Y11546D01*
X54883Y11509D01*
X54866Y11470D01*
X54848Y11428D01*
X54827Y11391D01*
X54806Y11359D01*
X54804Y11356D01*
X54795Y11347D01*
X54783Y11333D01*
X54765Y11315D01*
X54744Y11296D01*
X54718Y11275D01*
X54688Y11254D01*
X54654Y11236D01*
X54649Y11234D01*
X54637Y11229D01*
X54617Y11222D01*
X54591Y11215D01*
X54561Y11206D01*
X54526Y11199D01*
X54487Y11194D01*
X54448Y11192D01*
X54427D01*
X54401Y11194D01*
X54371Y11199D01*
X54337Y11206D01*
X54297Y11217D01*
X54258Y11231D01*
X54219Y11250D01*
X54216D01*
X54214Y11252D01*
X54202Y11261D01*
X54184Y11273D01*
X54161Y11291D01*
X54135Y11315D01*
X54110Y11342D01*
X54084Y11372D01*
X54064Y11409D01*
Y11412D01*
X54061Y11414D01*
X54054Y11428D01*
X54047Y11451D01*
X54036Y11481D01*
X54027Y11518D01*
X54020Y11560D01*
X54013Y11611D01*
X54010Y11664D01*
Y11666D01*
Y11673D01*
Y11685D01*
X54013Y11701D01*
X54015Y11719D01*
X54017Y11743D01*
X54020Y11766D01*
X54027Y11794D01*
X54040Y11849D01*
X54064Y11909D01*
X54077Y11937D01*
X54094Y11967D01*
X54112Y11993D01*
X54135Y12018D01*
X54138Y12020D01*
X54140Y12023D01*
X54149Y12030D01*
X54158Y12039D01*
X54170Y12048D01*
X54186Y12060D01*
X54205Y12071D01*
X54226Y12083D01*
X54249Y12094D01*
X54274Y12108D01*
X54304Y12120D01*
X54334Y12129D01*
X54369Y12138D01*
X54404Y12145D01*
X54443Y12152D01*
X54485Y12155D01*
X54499Y11895D01*
X54494D01*
X54487Y11893D01*
X54478Y11891D01*
X54457Y11886D01*
X54429Y11879D01*
X54401Y11868D01*
X54371Y11856D01*
X54346Y11840D01*
X54323Y11819D01*
X54320Y11817D01*
X54316Y11810D01*
X54307Y11796D01*
X54297Y11777D01*
X54288Y11754D01*
X54279Y11726D01*
X54274Y11694D01*
X54272Y11657D01*
Y11652D01*
Y11641D01*
X54274Y11620D01*
X54276Y11597D01*
X54283Y11571D01*
X54290Y11546D01*
X54302Y11518D01*
X54316Y11495D01*
X54318Y11493D01*
X54323Y11486D01*
X54332Y11477D01*
X54346Y11467D01*
X54362Y11458D01*
X54381Y11449D01*
X54401Y11442D01*
X54425Y11440D01*
X54434D01*
X54445Y11442D01*
X54462Y11446D01*
X54478Y11451D01*
X54494Y11460D01*
X54512Y11474D01*
X54529Y11490D01*
X54531Y11493D01*
X54536Y11502D01*
X54545Y11516D01*
X54556Y11539D01*
X54563Y11555D01*
X54573Y11571D01*
X54580Y11590D01*
X54589Y11613D01*
X54598Y11636D01*
X54607Y11664D01*
X54617Y11694D01*
X54626Y11726D01*
Y11729D01*
X54628Y11736D01*
X54630Y11745D01*
X54635Y11759D01*
X54642Y11775D01*
X54647Y11794D01*
X54663Y11835D01*
X54681Y11881D01*
X54700Y11928D01*
X54723Y11972D01*
X54735Y11993D01*
X54746Y12009D01*
X54748Y12013D01*
X54758Y12023D01*
X54769Y12039D01*
X54788Y12060D01*
X54811Y12080D01*
X54839Y12104D01*
X54871Y12124D01*
X54906Y12143D01*
X54910Y12145D01*
X54924Y12150D01*
X54945Y12157D01*
X54973Y12166D01*
X55008Y12175D01*
X55049Y12182D01*
X55096Y12187D01*
X55146Y12189D01*
X55165D01*
X55181Y12187D01*
D02*
G37*
G36*
X55174Y17266D02*
X55190D01*
X55207Y17264D01*
X55246Y17259D01*
X55292Y17247D01*
X55341Y17234D01*
X55389Y17213D01*
X55436Y17185D01*
X55438D01*
X55440Y17180D01*
X55454Y17171D01*
X55475Y17153D01*
X55498Y17129D01*
X55524Y17102D01*
X55547Y17067D01*
X55568Y17030D01*
X55581Y16991D01*
Y16986D01*
X55584Y16981D01*
Y16974D01*
X55586Y16963D01*
Y16951D01*
X55588Y16935D01*
X55591Y16917D01*
X55593Y16893D01*
Y16868D01*
X55595Y16838D01*
X55598Y16803D01*
Y16766D01*
X55600Y16725D01*
Y16678D01*
Y16627D01*
Y16192D01*
X54036D01*
Y16706D01*
Y16708D01*
Y16715D01*
Y16727D01*
Y16741D01*
Y16757D01*
X54038Y16778D01*
X54040Y16822D01*
X54045Y16870D01*
X54052Y16919D01*
X54061Y16965D01*
X54068Y16984D01*
X54075Y17002D01*
X54077Y17007D01*
X54082Y17016D01*
X54094Y17032D01*
X54108Y17053D01*
X54126Y17074D01*
X54149Y17099D01*
X54177Y17123D01*
X54212Y17146D01*
X54216Y17148D01*
X54228Y17155D01*
X54249Y17164D01*
X54274Y17176D01*
X54307Y17187D01*
X54344Y17197D01*
X54385Y17204D01*
X54429Y17206D01*
X54448D01*
X54471Y17204D01*
X54496Y17199D01*
X54529Y17194D01*
X54563Y17185D01*
X54600Y17171D01*
X54635Y17155D01*
X54640Y17153D01*
X54649Y17146D01*
X54665Y17134D01*
X54686Y17120D01*
X54707Y17099D01*
X54730Y17079D01*
X54751Y17053D01*
X54769Y17023D01*
Y17025D01*
X54772Y17028D01*
X54776Y17042D01*
X54788Y17062D01*
X54802Y17090D01*
X54820Y17118D01*
X54843Y17148D01*
X54873Y17178D01*
X54908Y17204D01*
X54913Y17206D01*
X54924Y17213D01*
X54945Y17224D01*
X54975Y17236D01*
X55010Y17247D01*
X55049Y17259D01*
X55096Y17266D01*
X55146Y17268D01*
X55163D01*
X55174Y17266D01*
D02*
G37*
G36*
X57450Y12435D02*
X56544D01*
X56546Y12433D01*
X56550Y12429D01*
X56556Y12423D01*
X56565Y12414D01*
X56574Y12405D01*
X56587Y12392D01*
X56600Y12377D01*
X56613Y12360D01*
X56643Y12323D01*
X56674Y12281D01*
X56702Y12231D01*
X56726Y12179D01*
X56507D01*
Y12181D01*
X56506Y12183D01*
X56502Y12194D01*
X56493Y12209D01*
X56482Y12231D01*
X56465Y12257D01*
X56444Y12285D01*
X56420Y12316D01*
X56391Y12349D01*
X56389Y12351D01*
X56387Y12353D01*
X56376Y12364D01*
X56357Y12379D01*
X56333Y12398D01*
X56306Y12418D01*
X56272Y12438D01*
X56235Y12457D01*
X56195Y12472D01*
Y12633D01*
X57450D01*
Y12435D01*
D02*
G37*
G36*
Y11751D02*
Y11574D01*
X56543Y11275D01*
Y11483D01*
X57007Y11622D01*
X57161Y11662D01*
X57007Y11705D01*
X56543Y11848D01*
Y12049D01*
X57450Y11751D01*
D02*
G37*
G36*
Y13631D02*
X56544D01*
X56546Y13629D01*
X56550Y13625D01*
X56556Y13620D01*
X56565Y13610D01*
X56574Y13601D01*
X56587Y13588D01*
X56600Y13573D01*
X56613Y13557D01*
X56643Y13520D01*
X56674Y13477D01*
X56702Y13427D01*
X56726Y13375D01*
X56507D01*
Y13377D01*
X56506Y13379D01*
X56502Y13390D01*
X56493Y13405D01*
X56482Y13427D01*
X56465Y13453D01*
X56444Y13481D01*
X56420Y13512D01*
X56391Y13546D01*
X56389Y13547D01*
X56387Y13549D01*
X56376Y13560D01*
X56357Y13575D01*
X56333Y13594D01*
X56306Y13614D01*
X56272Y13634D01*
X56235Y13653D01*
X56195Y13668D01*
Y13829D01*
X57450D01*
Y13631D01*
D02*
G37*
G36*
Y12966D02*
X57209D01*
Y13162D01*
X57450D01*
Y12966D01*
D02*
G37*
G36*
X55600Y20897D02*
X55436D01*
X55440Y20894D01*
X55452Y20887D01*
X55468Y20873D01*
X55489Y20857D01*
X55512Y20839D01*
X55535Y20816D01*
X55558Y20790D01*
X55579Y20762D01*
X55581Y20760D01*
X55586Y20748D01*
X55593Y20735D01*
X55602Y20714D01*
X55612Y20691D01*
X55619Y20663D01*
X55623Y20635D01*
X55625Y20605D01*
Y20603D01*
Y20598D01*
Y20589D01*
X55623Y20580D01*
X55621Y20566D01*
X55616Y20549D01*
X55607Y20512D01*
X55588Y20469D01*
X55575Y20448D01*
X55561Y20425D01*
X55542Y20399D01*
X55521Y20376D01*
X55498Y20355D01*
X55470Y20332D01*
X55468Y20330D01*
X55463Y20327D01*
X55454Y20323D01*
X55443Y20313D01*
X55426Y20307D01*
X55406Y20297D01*
X55382Y20286D01*
X55357Y20276D01*
X55327Y20265D01*
X55295Y20256D01*
X55258Y20244D01*
X55218Y20237D01*
X55177Y20230D01*
X55130Y20223D01*
X55082Y20221D01*
X55028Y20219D01*
X55001D01*
X54980Y20221D01*
X54957D01*
X54929Y20226D01*
X54897Y20228D01*
X54864Y20232D01*
X54792Y20246D01*
X54721Y20265D01*
X54651Y20293D01*
X54619Y20311D01*
X54589Y20330D01*
X54586Y20332D01*
X54582Y20334D01*
X54575Y20341D01*
X54566Y20350D01*
X54543Y20374D01*
X54515Y20406D01*
X54487Y20448D01*
X54464Y20494D01*
X54455Y20522D01*
X54448Y20547D01*
X54443Y20577D01*
X54441Y20607D01*
Y20612D01*
Y20621D01*
X54443Y20635D01*
X54445Y20656D01*
X54450Y20677D01*
X54459Y20702D01*
X54468Y20728D01*
X54482Y20753D01*
X54485Y20755D01*
X54489Y20765D01*
X54499Y20779D01*
X54512Y20795D01*
X54529Y20813D01*
X54549Y20834D01*
X54573Y20857D01*
X54600Y20878D01*
X54036D01*
Y21126D01*
X55600D01*
Y20897D01*
D02*
G37*
G36*
X40643Y600D02*
X40416D01*
Y1038D01*
X40094D01*
Y600D01*
X39867D01*
Y1643D01*
X40094D01*
Y1262D01*
X40416D01*
Y1643D01*
X40643D01*
Y600D01*
D02*
G37*
G36*
X55072Y18384D02*
X55091D01*
X55133Y18377D01*
X55181Y18370D01*
X55234Y18358D01*
X55290Y18342D01*
X55343Y18319D01*
X55345D01*
X55350Y18317D01*
X55357Y18312D01*
X55366Y18307D01*
X55392Y18291D01*
X55422Y18273D01*
X55457Y18247D01*
X55494Y18217D01*
X55526Y18182D01*
X55556Y18143D01*
Y18141D01*
X55558Y18138D01*
X55568Y18124D01*
X55577Y18101D01*
X55591Y18074D01*
X55602Y18037D01*
X55614Y17997D01*
X55623Y17953D01*
X55625Y17905D01*
Y17902D01*
Y17895D01*
Y17884D01*
X55623Y17870D01*
X55621Y17854D01*
X55616Y17833D01*
X55612Y17810D01*
X55605Y17784D01*
X55586Y17731D01*
X55575Y17703D01*
X55558Y17673D01*
X55540Y17645D01*
X55519Y17615D01*
X55496Y17588D01*
X55468Y17562D01*
X55466Y17560D01*
X55461Y17555D01*
X55452Y17551D01*
X55438Y17541D01*
X55422Y17530D01*
X55403Y17518D01*
X55380Y17507D01*
X55352Y17495D01*
X55322Y17481D01*
X55290Y17470D01*
X55253Y17458D01*
X55211Y17447D01*
X55170Y17437D01*
X55121Y17433D01*
X55072Y17428D01*
X55019Y17426D01*
X54991D01*
X54975Y17428D01*
X54959Y17430D01*
X54920Y17435D01*
X54871Y17442D01*
X54820Y17453D01*
X54769Y17470D01*
X54716Y17490D01*
X54714D01*
X54709Y17493D01*
X54702Y17497D01*
X54693Y17502D01*
X54670Y17518D01*
X54640Y17537D01*
X54605Y17562D01*
X54573Y17592D01*
X54538Y17627D01*
X54510Y17664D01*
Y17666D01*
X54508Y17669D01*
X54499Y17683D01*
X54487Y17706D01*
X54475Y17733D01*
X54462Y17770D01*
X54452Y17810D01*
X54443Y17856D01*
X54441Y17905D01*
Y17907D01*
Y17914D01*
Y17925D01*
X54443Y17942D01*
X54445Y17960D01*
X54450Y17983D01*
X54455Y18006D01*
X54462Y18032D01*
X54471Y18060D01*
X54485Y18090D01*
X54499Y18118D01*
X54515Y18148D01*
X54536Y18178D01*
X54559Y18205D01*
X54586Y18231D01*
X54617Y18256D01*
X54619Y18259D01*
X54624Y18261D01*
X54635Y18268D01*
X54647Y18277D01*
X54665Y18286D01*
X54684Y18298D01*
X54707Y18310D01*
X54735Y18321D01*
X54762Y18333D01*
X54795Y18344D01*
X54827Y18356D01*
X54864Y18365D01*
X54943Y18381D01*
X54984Y18384D01*
X55028Y18386D01*
X55059D01*
X55072Y18384D01*
D02*
G37*
G36*
X54760Y20089D02*
X54758Y20087D01*
X54753Y20080D01*
X54744Y20068D01*
X54735Y20052D01*
X54725Y20036D01*
X54716Y20015D01*
X54711Y19996D01*
X54709Y19976D01*
Y19973D01*
Y19966D01*
X54711Y19957D01*
X54714Y19946D01*
X54718Y19932D01*
X54725Y19915D01*
X54735Y19902D01*
X54748Y19885D01*
X54751Y19883D01*
X54755Y19878D01*
X54765Y19872D01*
X54779Y19865D01*
X54797Y19855D01*
X54823Y19846D01*
X54850Y19837D01*
X54885Y19830D01*
X54890D01*
X54897Y19828D01*
X54903D01*
X54915Y19825D01*
X54931D01*
X54947Y19823D01*
X54968D01*
X54991Y19821D01*
X55017Y19818D01*
X55047D01*
X55082Y19816D01*
X55119D01*
X55158Y19814D01*
X55600D01*
Y19566D01*
X54466D01*
Y19795D01*
X54626D01*
X54624Y19797D01*
X54610Y19804D01*
X54591Y19816D01*
X54566Y19830D01*
X54543Y19846D01*
X54517Y19865D01*
X54494Y19881D01*
X54478Y19899D01*
X54475Y19902D01*
X54471Y19909D01*
X54466Y19918D01*
X54459Y19929D01*
X54452Y19946D01*
X54445Y19964D01*
X54443Y19985D01*
X54441Y20006D01*
Y20010D01*
Y20020D01*
X54443Y20036D01*
X54448Y20057D01*
X54455Y20082D01*
X54466Y20110D01*
X54480Y20138D01*
X54499Y20168D01*
X54760Y20089D01*
D02*
G37*
G36*
X55600Y19145D02*
X55477Y19113D01*
X55480Y19110D01*
X55489Y19101D01*
X55503Y19089D01*
X55519Y19071D01*
X55538Y19050D01*
X55556Y19027D01*
X55572Y19001D01*
X55588Y18976D01*
X55591Y18974D01*
X55593Y18964D01*
X55600Y18948D01*
X55607Y18930D01*
X55614Y18907D01*
X55619Y18881D01*
X55623Y18853D01*
X55625Y18823D01*
Y18821D01*
Y18816D01*
Y18809D01*
X55623Y18800D01*
X55621Y18775D01*
X55614Y18745D01*
X55602Y18710D01*
X55588Y18673D01*
X55565Y18636D01*
X55535Y18601D01*
X55531Y18597D01*
X55519Y18587D01*
X55498Y18573D01*
X55470Y18559D01*
X55436Y18543D01*
X55394Y18529D01*
X55345Y18520D01*
X55292Y18516D01*
X55276D01*
X55258Y18518D01*
X55234Y18520D01*
X55209Y18525D01*
X55181Y18529D01*
X55153Y18539D01*
X55126Y18550D01*
X55123Y18553D01*
X55114Y18557D01*
X55100Y18564D01*
X55084Y18576D01*
X55065Y18590D01*
X55047Y18606D01*
X55028Y18624D01*
X55012Y18647D01*
X55010Y18650D01*
X55005Y18659D01*
X54996Y18675D01*
X54987Y18698D01*
X54973Y18726D01*
X54961Y18761D01*
X54947Y18805D01*
X54934Y18853D01*
Y18856D01*
X54931Y18860D01*
X54929Y18870D01*
X54927Y18881D01*
X54924Y18895D01*
X54920Y18911D01*
X54910Y18948D01*
X54899Y18988D01*
X54885Y19027D01*
X54873Y19064D01*
X54866Y19080D01*
X54860Y19094D01*
X54829D01*
X54809Y19092D01*
X54790D01*
X54769Y19089D01*
X54753Y19085D01*
X54739Y19080D01*
X54737D01*
X54735Y19078D01*
X54721Y19069D01*
X54707Y19052D01*
X54691Y19029D01*
Y19027D01*
X54688Y19022D01*
X54684Y19015D01*
X54679Y19004D01*
X54677Y18990D01*
X54672Y18974D01*
X54670Y18953D01*
Y18930D01*
Y18927D01*
Y18918D01*
X54672Y18907D01*
X54674Y18893D01*
X54681Y18858D01*
X54691Y18842D01*
X54700Y18826D01*
X54702Y18823D01*
X54707Y18819D01*
X54714Y18812D01*
X54725Y18805D01*
X54739Y18796D01*
X54760Y18784D01*
X54783Y18775D01*
X54811Y18765D01*
X54765Y18543D01*
X54762D01*
X54758Y18546D01*
X54748Y18548D01*
X54737Y18550D01*
X54723Y18555D01*
X54707Y18562D01*
X54670Y18576D01*
X54628Y18592D01*
X54589Y18615D01*
X54549Y18643D01*
X54517Y18675D01*
X54515Y18680D01*
X54506Y18694D01*
X54494Y18715D01*
X54478Y18745D01*
X54464Y18782D01*
X54452Y18828D01*
X54443Y18883D01*
X54441Y18944D01*
Y18946D01*
Y18951D01*
Y18958D01*
Y18969D01*
X54443Y18997D01*
X54445Y19032D01*
X54452Y19069D01*
X54459Y19108D01*
X54471Y19147D01*
X54485Y19180D01*
X54487Y19184D01*
X54492Y19194D01*
X54503Y19207D01*
X54517Y19226D01*
X54533Y19244D01*
X54554Y19265D01*
X54577Y19284D01*
X54605Y19298D01*
X54610Y19300D01*
X54619Y19305D01*
X54640Y19309D01*
X54651Y19314D01*
X54667Y19316D01*
X54684Y19321D01*
X54705Y19323D01*
X54725Y19325D01*
X54751Y19330D01*
X54779Y19332D01*
X54809D01*
X54841Y19335D01*
X54878D01*
X55227Y19332D01*
X55278D01*
X55311Y19335D01*
X55345D01*
X55382Y19337D01*
X55417Y19339D01*
X55447Y19344D01*
X55450D01*
X55459Y19346D01*
X55475Y19349D01*
X55494Y19353D01*
X55517Y19360D01*
X55542Y19367D01*
X55570Y19376D01*
X55600Y19388D01*
Y19145D01*
D02*
G37*
G36*
X10354Y4141D02*
X10369Y4139D01*
X10386Y4135D01*
X10426Y4122D01*
X10448Y4113D01*
X10471Y4103D01*
X10492Y4090D01*
X10516Y4075D01*
X10539Y4056D01*
X10562Y4032D01*
X10584Y4009D01*
X10605Y3979D01*
X10607Y3977D01*
X10609Y3971D01*
X10616Y3962D01*
X10622Y3947D01*
X10631Y3928D01*
X10639Y3907D01*
X10648Y3879D01*
X10658Y3847D01*
X10669Y3809D01*
X10677Y3769D01*
X10686Y3722D01*
X10694Y3668D01*
X10701Y3613D01*
X10707Y3549D01*
X10709Y3483D01*
X10711Y3409D01*
Y3407D01*
Y3405D01*
Y3398D01*
Y3392D01*
Y3370D01*
X10709Y3343D01*
Y3309D01*
X10705Y3273D01*
X10703Y3230D01*
X10699Y3185D01*
X10686Y3092D01*
X10667Y2996D01*
X10654Y2951D01*
X10641Y2911D01*
X10624Y2872D01*
X10605Y2838D01*
X10603Y2836D01*
X10601Y2832D01*
X10594Y2823D01*
X10586Y2813D01*
X10575Y2800D01*
X10562Y2787D01*
X10531Y2757D01*
X10490Y2728D01*
X10443Y2702D01*
X10418Y2691D01*
X10390Y2683D01*
X10360Y2679D01*
X10328Y2677D01*
X10320D01*
X10311Y2679D01*
X10301D01*
X10286Y2681D01*
X10269Y2685D01*
X10228Y2696D01*
X10207Y2704D01*
X10184Y2715D01*
X10162Y2728D01*
X10139Y2745D01*
X10115Y2762D01*
X10092Y2783D01*
X10071Y2809D01*
X10049Y2836D01*
X10047Y2838D01*
X10045Y2845D01*
X10041Y2853D01*
X10032Y2868D01*
X10026Y2887D01*
X10018Y2909D01*
X10007Y2936D01*
X9998Y2968D01*
X9988Y3007D01*
X9979Y3047D01*
X9969Y3094D01*
X9962Y3147D01*
X9956Y3204D01*
X9949Y3268D01*
X9947Y3336D01*
X9945Y3411D01*
Y3413D01*
Y3415D01*
Y3422D01*
Y3428D01*
Y3449D01*
X9947Y3477D01*
X9949Y3509D01*
X9952Y3547D01*
X9954Y3590D01*
X9958Y3634D01*
X9971Y3728D01*
X9990Y3822D01*
X10001Y3866D01*
X10015Y3907D01*
X10030Y3945D01*
X10049Y3979D01*
X10052Y3981D01*
X10054Y3986D01*
X10060Y3994D01*
X10069Y4005D01*
X10079Y4018D01*
X10092Y4030D01*
X10124Y4062D01*
X10164Y4092D01*
X10211Y4118D01*
X10237Y4128D01*
X10264Y4137D01*
X10294Y4141D01*
X10326Y4143D01*
X10343D01*
X10354Y4141D01*
D02*
G37*
G36*
X15447Y4118D02*
X15464Y4115D01*
X15481Y4113D01*
X15524Y4105D01*
X15568Y4090D01*
X15592Y4081D01*
X15615Y4069D01*
X15639Y4054D01*
X15660Y4039D01*
X15679Y4020D01*
X15698Y3998D01*
X15700Y3996D01*
X15702Y3992D01*
X15707Y3986D01*
X15713Y3977D01*
X15719Y3966D01*
X15728Y3952D01*
X15747Y3918D01*
X15764Y3877D01*
X15779Y3830D01*
X15790Y3779D01*
X15794Y3751D01*
Y3722D01*
Y3717D01*
Y3707D01*
X15792Y3690D01*
Y3666D01*
X15788Y3641D01*
X15783Y3611D01*
X15777Y3581D01*
X15768Y3549D01*
Y3545D01*
X15764Y3534D01*
X15758Y3519D01*
X15751Y3498D01*
X15741Y3473D01*
X15728Y3445D01*
X15711Y3415D01*
X15694Y3383D01*
X15692Y3379D01*
X15685Y3368D01*
X15673Y3349D01*
X15656Y3326D01*
X15632Y3294D01*
X15602Y3258D01*
X15568Y3215D01*
X15528Y3168D01*
X15526Y3166D01*
X15524Y3164D01*
X15517Y3158D01*
X15511Y3149D01*
X15492Y3128D01*
X15470Y3102D01*
X15447Y3075D01*
X15424Y3049D01*
X15404Y3026D01*
X15390Y3007D01*
X15387Y3004D01*
X15385Y3000D01*
X15379Y2992D01*
X15372Y2983D01*
X15358Y2960D01*
X15343Y2932D01*
X15794D01*
Y2677D01*
X15000D01*
Y2679D01*
Y2683D01*
X15002Y2691D01*
Y2702D01*
X15004Y2715D01*
X15009Y2730D01*
X15015Y2766D01*
X15023Y2806D01*
X15038Y2853D01*
X15055Y2902D01*
X15077Y2951D01*
Y2953D01*
X15081Y2958D01*
X15083Y2964D01*
X15089Y2975D01*
X15098Y2987D01*
X15106Y3004D01*
X15119Y3021D01*
X15134Y3043D01*
X15149Y3066D01*
X15168Y3092D01*
X15187Y3119D01*
X15211Y3151D01*
X15236Y3183D01*
X15266Y3217D01*
X15296Y3256D01*
X15330Y3294D01*
X15332Y3296D01*
X15336Y3302D01*
X15345Y3311D01*
X15353Y3322D01*
X15366Y3334D01*
X15379Y3351D01*
X15409Y3388D01*
X15441Y3426D01*
X15470Y3462D01*
X15496Y3496D01*
X15507Y3511D01*
X15515Y3524D01*
X15517Y3528D01*
X15524Y3539D01*
X15532Y3556D01*
X15541Y3579D01*
X15549Y3605D01*
X15558Y3634D01*
X15564Y3666D01*
X15566Y3698D01*
Y3700D01*
Y3703D01*
Y3713D01*
X15564Y3730D01*
X15562Y3751D01*
X15556Y3775D01*
X15549Y3798D01*
X15539Y3822D01*
X15524Y3841D01*
X15521Y3843D01*
X15515Y3849D01*
X15507Y3856D01*
X15494Y3866D01*
X15479Y3875D01*
X15460Y3881D01*
X15436Y3888D01*
X15413Y3890D01*
X15407D01*
X15398Y3888D01*
X15390Y3886D01*
X15364Y3877D01*
X15351Y3871D01*
X15336Y3862D01*
X15321Y3849D01*
X15307Y3835D01*
X15294Y3817D01*
X15281Y3794D01*
X15270Y3769D01*
X15262Y3739D01*
X15255Y3705D01*
X15251Y3664D01*
X15026Y3694D01*
Y3696D01*
X15028Y3705D01*
Y3715D01*
X15030Y3730D01*
X15034Y3747D01*
X15036Y3769D01*
X15043Y3792D01*
X15049Y3817D01*
X15064Y3869D01*
X15085Y3922D01*
X15113Y3973D01*
X15128Y3994D01*
X15147Y4015D01*
X15149Y4018D01*
X15151Y4020D01*
X15158Y4026D01*
X15166Y4032D01*
X15177Y4039D01*
X15187Y4049D01*
X15219Y4069D01*
X15258Y4088D01*
X15304Y4103D01*
X15358Y4115D01*
X15387Y4118D01*
X15417Y4120D01*
X15434D01*
X15447Y4118D01*
D02*
G37*
G36*
X18009Y4141D02*
X18021Y4139D01*
X18036Y4137D01*
X18075Y4128D01*
X18115Y4115D01*
X18158Y4094D01*
X18179Y4081D01*
X18200Y4067D01*
X18219Y4049D01*
X18239Y4028D01*
X18241Y4026D01*
X18243Y4024D01*
X18247Y4018D01*
X18253Y4009D01*
X18260Y3998D01*
X18268Y3986D01*
X18288Y3954D01*
X18305Y3915D01*
X18319Y3873D01*
X18330Y3826D01*
X18334Y3800D01*
Y3775D01*
Y3771D01*
Y3760D01*
X18332Y3741D01*
X18328Y3720D01*
X18324Y3692D01*
X18315Y3664D01*
X18305Y3634D01*
X18290Y3605D01*
X18288Y3600D01*
X18281Y3592D01*
X18273Y3579D01*
X18258Y3560D01*
X18241Y3541D01*
X18217Y3517D01*
X18192Y3494D01*
X18162Y3473D01*
X18164D01*
X18166Y3471D01*
X18179Y3466D01*
X18196Y3460D01*
X18219Y3449D01*
X18245Y3432D01*
X18270Y3413D01*
X18296Y3388D01*
X18322Y3356D01*
X18324Y3351D01*
X18332Y3339D01*
X18343Y3319D01*
X18354Y3294D01*
X18366Y3262D01*
X18375Y3224D01*
X18383Y3179D01*
X18385Y3130D01*
Y3128D01*
Y3121D01*
Y3111D01*
X18383Y3098D01*
X18381Y3081D01*
X18379Y3062D01*
X18375Y3041D01*
X18371Y3015D01*
X18356Y2964D01*
X18334Y2911D01*
X18322Y2883D01*
X18307Y2855D01*
X18288Y2830D01*
X18266Y2804D01*
X18264Y2802D01*
X18262Y2798D01*
X18253Y2792D01*
X18245Y2785D01*
X18234Y2774D01*
X18222Y2764D01*
X18187Y2740D01*
X18147Y2717D01*
X18100Y2696D01*
X18073Y2689D01*
X18045Y2683D01*
X18017Y2679D01*
X17987Y2677D01*
X17972D01*
X17962Y2679D01*
X17949Y2681D01*
X17932Y2683D01*
X17896Y2689D01*
X17855Y2702D01*
X17811Y2723D01*
X17787Y2734D01*
X17766Y2749D01*
X17745Y2766D01*
X17723Y2785D01*
X17721Y2787D01*
X17719Y2789D01*
X17713Y2796D01*
X17706Y2804D01*
X17698Y2817D01*
X17689Y2830D01*
X17679Y2845D01*
X17668Y2864D01*
X17657Y2883D01*
X17647Y2906D01*
X17636Y2930D01*
X17626Y2958D01*
X17611Y3015D01*
X17600Y3083D01*
X17819Y3115D01*
Y3113D01*
Y3111D01*
X17821Y3098D01*
X17823Y3081D01*
X17830Y3058D01*
X17836Y3032D01*
X17847Y3007D01*
X17860Y2981D01*
X17875Y2960D01*
X17877Y2958D01*
X17883Y2951D01*
X17894Y2943D01*
X17907Y2934D01*
X17921Y2923D01*
X17941Y2915D01*
X17962Y2909D01*
X17985Y2906D01*
X17998D01*
X18011Y2911D01*
X18026Y2915D01*
X18045Y2921D01*
X18066Y2932D01*
X18085Y2947D01*
X18104Y2968D01*
X18107Y2970D01*
X18113Y2981D01*
X18119Y2994D01*
X18130Y3015D01*
X18139Y3038D01*
X18145Y3070D01*
X18151Y3104D01*
X18153Y3145D01*
Y3147D01*
Y3149D01*
Y3162D01*
X18151Y3181D01*
X18147Y3204D01*
X18143Y3230D01*
X18134Y3258D01*
X18121Y3285D01*
X18107Y3309D01*
X18104Y3311D01*
X18098Y3319D01*
X18087Y3328D01*
X18075Y3341D01*
X18058Y3351D01*
X18038Y3362D01*
X18017Y3368D01*
X17994Y3370D01*
X17977D01*
X17966Y3368D01*
X17951Y3366D01*
X17932Y3362D01*
X17913Y3356D01*
X17892Y3349D01*
X17915Y3575D01*
X17930D01*
X17947Y3577D01*
X17966Y3579D01*
X17990Y3585D01*
X18013Y3592D01*
X18034Y3605D01*
X18056Y3620D01*
X18058Y3622D01*
X18064Y3628D01*
X18073Y3641D01*
X18081Y3656D01*
X18090Y3675D01*
X18098Y3698D01*
X18104Y3726D01*
X18107Y3758D01*
Y3762D01*
Y3771D01*
X18104Y3783D01*
X18102Y3800D01*
X18098Y3817D01*
X18090Y3837D01*
X18081Y3856D01*
X18068Y3873D01*
X18066Y3875D01*
X18062Y3879D01*
X18053Y3886D01*
X18043Y3894D01*
X18030Y3903D01*
X18013Y3909D01*
X17994Y3913D01*
X17972Y3915D01*
X17964D01*
X17951Y3913D01*
X17938Y3909D01*
X17924Y3903D01*
X17907Y3894D01*
X17889Y3883D01*
X17872Y3866D01*
X17870Y3864D01*
X17866Y3858D01*
X17860Y3845D01*
X17851Y3830D01*
X17843Y3811D01*
X17834Y3786D01*
X17828Y3758D01*
X17823Y3724D01*
X17615Y3766D01*
Y3769D01*
X17617Y3775D01*
X17619Y3786D01*
X17621Y3798D01*
X17626Y3815D01*
X17630Y3832D01*
X17643Y3875D01*
X17660Y3922D01*
X17681Y3969D01*
X17709Y4013D01*
X17723Y4035D01*
X17740Y4052D01*
X17743Y4054D01*
X17745Y4056D01*
X17758Y4067D01*
X17779Y4081D01*
X17806Y4098D01*
X17841Y4113D01*
X17883Y4128D01*
X17930Y4139D01*
X17955Y4143D01*
X17996D01*
X18009Y4141D01*
D02*
G37*
G36*
X13021Y2677D02*
X12794D01*
Y3717D01*
X12792Y3715D01*
X12787Y3711D01*
X12781Y3705D01*
X12770Y3694D01*
X12760Y3683D01*
X12745Y3668D01*
X12728Y3654D01*
X12709Y3639D01*
X12666Y3605D01*
X12617Y3568D01*
X12560Y3537D01*
X12500Y3509D01*
Y3760D01*
X12502D01*
X12504Y3762D01*
X12517Y3766D01*
X12534Y3777D01*
X12560Y3790D01*
X12589Y3809D01*
X12621Y3832D01*
X12658Y3860D01*
X12696Y3894D01*
X12698Y3896D01*
X12700Y3898D01*
X12713Y3911D01*
X12730Y3932D01*
X12751Y3960D01*
X12775Y3992D01*
X12798Y4030D01*
X12819Y4073D01*
X12836Y4120D01*
X13021D01*
Y2677D01*
D02*
G37*
G36*
X33207Y4141D02*
X33221Y4139D01*
X33241Y4135D01*
X33281Y4122D01*
X33304Y4113D01*
X33328Y4103D01*
X33351Y4088D01*
X33377Y4073D01*
X33402Y4054D01*
X33426Y4030D01*
X33449Y4005D01*
X33473Y3975D01*
X33475Y3973D01*
X33477Y3966D01*
X33483Y3958D01*
X33492Y3943D01*
X33500Y3924D01*
X33509Y3900D01*
X33519Y3875D01*
X33532Y3843D01*
X33543Y3807D01*
X33554Y3764D01*
X33562Y3720D01*
X33571Y3668D01*
X33579Y3613D01*
X33585Y3554D01*
X33588Y3488D01*
X33590Y3417D01*
Y3415D01*
Y3413D01*
Y3400D01*
Y3379D01*
X33588Y3353D01*
X33585Y3319D01*
X33583Y3283D01*
X33579Y3243D01*
X33575Y3198D01*
X33560Y3104D01*
X33551Y3058D01*
X33539Y3011D01*
X33524Y2966D01*
X33509Y2923D01*
X33490Y2883D01*
X33468Y2849D01*
X33466Y2847D01*
X33462Y2843D01*
X33456Y2834D01*
X33447Y2821D01*
X33434Y2809D01*
X33419Y2794D01*
X33402Y2779D01*
X33383Y2764D01*
X33362Y2747D01*
X33339Y2732D01*
X33285Y2704D01*
X33256Y2694D01*
X33224Y2685D01*
X33192Y2679D01*
X33155Y2677D01*
X33143D01*
X33134Y2679D01*
X33109Y2681D01*
X33077Y2687D01*
X33043Y2698D01*
X33006Y2713D01*
X32968Y2734D01*
X32934Y2764D01*
X32930Y2768D01*
X32919Y2781D01*
X32904Y2802D01*
X32896Y2815D01*
X32887Y2830D01*
X32879Y2849D01*
X32868Y2868D01*
X32860Y2889D01*
X32851Y2915D01*
X32843Y2941D01*
X32834Y2970D01*
X32828Y3000D01*
X32823Y3034D01*
X33043Y3064D01*
Y3062D01*
Y3058D01*
X33045Y3049D01*
X33047Y3038D01*
X33053Y3013D01*
X33064Y2985D01*
X33081Y2955D01*
X33102Y2930D01*
X33117Y2919D01*
X33132Y2911D01*
X33151Y2906D01*
X33170Y2904D01*
X33175D01*
X33183Y2906D01*
X33196Y2909D01*
X33213Y2915D01*
X33232Y2923D01*
X33253Y2938D01*
X33273Y2958D01*
X33292Y2983D01*
X33294Y2987D01*
X33296Y2992D01*
X33300Y3000D01*
X33304Y3009D01*
X33309Y3021D01*
X33313Y3036D01*
X33317Y3053D01*
X33324Y3075D01*
X33328Y3098D01*
X33334Y3124D01*
X33339Y3153D01*
X33345Y3187D01*
X33349Y3224D01*
X33353Y3264D01*
X33356Y3307D01*
X33353Y3305D01*
X33349Y3296D01*
X33339Y3285D01*
X33328Y3273D01*
X33313Y3258D01*
X33298Y3245D01*
X33279Y3230D01*
X33260Y3217D01*
X33258Y3215D01*
X33251Y3213D01*
X33238Y3209D01*
X33226Y3202D01*
X33207Y3196D01*
X33187Y3192D01*
X33164Y3190D01*
X33141Y3187D01*
X33128D01*
X33117Y3190D01*
X33107Y3192D01*
X33094Y3194D01*
X33060Y3204D01*
X33023Y3219D01*
X33004Y3230D01*
X32983Y3241D01*
X32964Y3256D01*
X32943Y3273D01*
X32921Y3292D01*
X32902Y3315D01*
X32900Y3317D01*
X32898Y3322D01*
X32894Y3328D01*
X32887Y3339D01*
X32879Y3351D01*
X32870Y3366D01*
X32862Y3385D01*
X32851Y3407D01*
X32843Y3428D01*
X32832Y3454D01*
X32823Y3483D01*
X32817Y3513D01*
X32809Y3545D01*
X32804Y3579D01*
X32802Y3617D01*
X32800Y3656D01*
Y3658D01*
Y3666D01*
Y3677D01*
X32802Y3694D01*
X32804Y3711D01*
X32806Y3734D01*
X32809Y3758D01*
X32813Y3786D01*
X32826Y3841D01*
X32847Y3900D01*
X32857Y3930D01*
X32872Y3958D01*
X32889Y3986D01*
X32909Y4011D01*
X32911Y4013D01*
X32913Y4018D01*
X32919Y4024D01*
X32928Y4032D01*
X32938Y4041D01*
X32951Y4054D01*
X32983Y4077D01*
X33021Y4101D01*
X33068Y4122D01*
X33094Y4130D01*
X33119Y4137D01*
X33147Y4141D01*
X33177Y4143D01*
X33194D01*
X33207Y4141D01*
D02*
G37*
G36*
X30771D02*
X30786Y4139D01*
X30803Y4137D01*
X30841Y4130D01*
X30884Y4118D01*
X30926Y4098D01*
X30947Y4086D01*
X30969Y4071D01*
X30988Y4054D01*
X31005Y4035D01*
X31007Y4032D01*
X31009Y4030D01*
X31013Y4024D01*
X31020Y4015D01*
X31026Y4005D01*
X31035Y3992D01*
X31052Y3962D01*
X31067Y3924D01*
X31082Y3879D01*
X31092Y3830D01*
X31096Y3803D01*
Y3775D01*
Y3773D01*
Y3771D01*
Y3758D01*
X31094Y3739D01*
X31090Y3713D01*
X31086Y3685D01*
X31077Y3656D01*
X31067Y3624D01*
X31052Y3594D01*
X31050Y3590D01*
X31043Y3581D01*
X31035Y3568D01*
X31020Y3551D01*
X31003Y3532D01*
X30984Y3513D01*
X30958Y3494D01*
X30933Y3477D01*
X30935D01*
X30937Y3475D01*
X30950Y3468D01*
X30967Y3458D01*
X30990Y3441D01*
X31013Y3422D01*
X31039Y3398D01*
X31062Y3370D01*
X31084Y3339D01*
X31086Y3334D01*
X31092Y3324D01*
X31101Y3305D01*
X31109Y3279D01*
X31118Y3247D01*
X31126Y3211D01*
X31133Y3168D01*
X31135Y3121D01*
Y3119D01*
Y3115D01*
Y3109D01*
Y3098D01*
X31133Y3087D01*
Y3075D01*
X31128Y3043D01*
X31122Y3004D01*
X31114Y2966D01*
X31101Y2926D01*
X31084Y2885D01*
Y2883D01*
X31082Y2881D01*
X31075Y2868D01*
X31065Y2851D01*
X31048Y2828D01*
X31028Y2802D01*
X31005Y2777D01*
X30979Y2751D01*
X30947Y2730D01*
X30943Y2728D01*
X30933Y2721D01*
X30913Y2713D01*
X30890Y2704D01*
X30862Y2694D01*
X30828Y2685D01*
X30792Y2679D01*
X30752Y2677D01*
X30735D01*
X30724Y2679D01*
X30709Y2681D01*
X30692Y2683D01*
X30654Y2691D01*
X30609Y2704D01*
X30562Y2726D01*
X30539Y2740D01*
X30515Y2755D01*
X30492Y2772D01*
X30471Y2794D01*
X30469Y2796D01*
X30466Y2800D01*
X30460Y2806D01*
X30454Y2815D01*
X30445Y2828D01*
X30437Y2843D01*
X30426Y2860D01*
X30415Y2879D01*
X30405Y2900D01*
X30394Y2923D01*
X30386Y2951D01*
X30377Y2979D01*
X30364Y3043D01*
X30362Y3077D01*
X30360Y3113D01*
Y3115D01*
Y3119D01*
Y3126D01*
Y3134D01*
X30362Y3158D01*
X30366Y3190D01*
X30373Y3224D01*
X30381Y3260D01*
X30392Y3298D01*
X30409Y3334D01*
Y3336D01*
X30411Y3339D01*
X30417Y3349D01*
X30430Y3366D01*
X30447Y3388D01*
X30466Y3411D01*
X30492Y3434D01*
X30522Y3458D01*
X30556Y3477D01*
X30552Y3479D01*
X30543Y3485D01*
X30528Y3494D01*
X30509Y3507D01*
X30488Y3524D01*
X30469Y3545D01*
X30447Y3568D01*
X30430Y3594D01*
X30428Y3598D01*
X30424Y3607D01*
X30417Y3624D01*
X30411Y3645D01*
X30403Y3671D01*
X30396Y3700D01*
X30392Y3734D01*
X30390Y3773D01*
Y3775D01*
Y3781D01*
Y3790D01*
X30392Y3800D01*
Y3815D01*
X30394Y3832D01*
X30403Y3869D01*
X30413Y3913D01*
X30430Y3958D01*
X30454Y4001D01*
X30469Y4022D01*
X30486Y4041D01*
X30488Y4043D01*
X30490Y4045D01*
X30496Y4049D01*
X30503Y4058D01*
X30524Y4073D01*
X30554Y4092D01*
X30590Y4111D01*
X30635Y4128D01*
X30686Y4139D01*
X30713Y4141D01*
X30743Y4143D01*
X30760D01*
X30771Y4141D01*
D02*
G37*
G36*
X20722Y3209D02*
X20869D01*
Y2966D01*
X20722D01*
Y2677D01*
X20503D01*
Y2966D01*
X20020D01*
Y3207D01*
X20531Y4120D01*
X20722D01*
Y3209D01*
D02*
G37*
G36*
X23339Y3862D02*
X22913D01*
X22875Y3615D01*
X22879Y3617D01*
X22887Y3624D01*
X22902Y3630D01*
X22924Y3641D01*
X22947Y3649D01*
X22972Y3656D01*
X23000Y3662D01*
X23030Y3664D01*
X23043D01*
X23053Y3662D01*
X23066Y3660D01*
X23079Y3658D01*
X23113Y3651D01*
X23149Y3637D01*
X23190Y3617D01*
X23211Y3605D01*
X23230Y3590D01*
X23249Y3573D01*
X23268Y3554D01*
X23270Y3551D01*
X23275Y3547D01*
X23279Y3539D01*
X23288Y3528D01*
X23296Y3513D01*
X23307Y3496D01*
X23319Y3477D01*
X23330Y3456D01*
X23341Y3430D01*
X23354Y3402D01*
X23364Y3370D01*
X23373Y3339D01*
X23381Y3302D01*
X23388Y3266D01*
X23390Y3226D01*
X23392Y3183D01*
Y3181D01*
Y3175D01*
Y3164D01*
X23390Y3151D01*
Y3134D01*
X23385Y3115D01*
X23383Y3094D01*
X23379Y3068D01*
X23366Y3015D01*
X23347Y2955D01*
X23334Y2926D01*
X23322Y2896D01*
X23305Y2864D01*
X23285Y2834D01*
X23283Y2832D01*
X23281Y2828D01*
X23275Y2819D01*
X23266Y2809D01*
X23256Y2798D01*
X23243Y2785D01*
X23226Y2770D01*
X23209Y2755D01*
X23190Y2740D01*
X23166Y2726D01*
X23143Y2713D01*
X23115Y2702D01*
X23087Y2691D01*
X23056Y2683D01*
X23024Y2679D01*
X22987Y2677D01*
X22972D01*
X22962Y2679D01*
X22949D01*
X22932Y2683D01*
X22896Y2689D01*
X22855Y2702D01*
X22811Y2719D01*
X22768Y2745D01*
X22747Y2762D01*
X22726Y2779D01*
X22723Y2781D01*
X22721Y2783D01*
X22715Y2789D01*
X22709Y2798D01*
X22700Y2809D01*
X22692Y2821D01*
X22681Y2836D01*
X22670Y2853D01*
X22660Y2872D01*
X22649Y2896D01*
X22638Y2919D01*
X22628Y2945D01*
X22619Y2972D01*
X22611Y3004D01*
X22600Y3070D01*
X22826Y3100D01*
Y3096D01*
X22828Y3085D01*
X22832Y3066D01*
X22836Y3045D01*
X22843Y3021D01*
X22853Y2998D01*
X22866Y2972D01*
X22883Y2951D01*
X22885Y2949D01*
X22892Y2943D01*
X22902Y2934D01*
X22915Y2926D01*
X22930Y2915D01*
X22949Y2906D01*
X22968Y2900D01*
X22990Y2898D01*
X22992D01*
X23002Y2900D01*
X23015Y2902D01*
X23030Y2906D01*
X23049Y2915D01*
X23070Y2928D01*
X23090Y2943D01*
X23109Y2966D01*
X23111Y2970D01*
X23117Y2979D01*
X23126Y2996D01*
X23134Y3017D01*
X23143Y3047D01*
X23151Y3083D01*
X23158Y3128D01*
X23160Y3177D01*
Y3179D01*
Y3183D01*
Y3190D01*
Y3200D01*
X23158Y3224D01*
X23153Y3253D01*
X23147Y3285D01*
X23139Y3319D01*
X23126Y3349D01*
X23109Y3377D01*
X23107Y3379D01*
X23100Y3388D01*
X23090Y3398D01*
X23075Y3411D01*
X23058Y3422D01*
X23034Y3432D01*
X23011Y3441D01*
X22983Y3443D01*
X22979D01*
X22966Y3441D01*
X22949Y3436D01*
X22926Y3430D01*
X22898Y3417D01*
X22868Y3398D01*
X22853Y3388D01*
X22838Y3373D01*
X22823Y3358D01*
X22809Y3339D01*
X22626Y3370D01*
X22740Y4120D01*
X23339D01*
Y3862D01*
D02*
G37*
G36*
X28573Y3894D02*
Y3892D01*
X28568Y3890D01*
X28564Y3881D01*
X28556Y3873D01*
X28547Y3860D01*
X28536Y3847D01*
X28526Y3830D01*
X28513Y3811D01*
X28498Y3788D01*
X28483Y3764D01*
X28468Y3737D01*
X28451Y3709D01*
X28434Y3677D01*
X28415Y3643D01*
X28398Y3607D01*
X28379Y3568D01*
Y3566D01*
X28375Y3560D01*
X28370Y3547D01*
X28362Y3532D01*
X28356Y3513D01*
X28345Y3490D01*
X28334Y3462D01*
X28324Y3432D01*
X28311Y3400D01*
X28298Y3366D01*
X28287Y3328D01*
X28275Y3287D01*
X28249Y3204D01*
X28228Y3115D01*
Y3113D01*
X28226Y3104D01*
X28224Y3092D01*
X28219Y3075D01*
X28215Y3053D01*
X28211Y3028D01*
X28207Y3000D01*
X28202Y2970D01*
X28196Y2936D01*
X28192Y2902D01*
X28183Y2828D01*
X28177Y2751D01*
X28175Y2677D01*
X27958D01*
Y2681D01*
Y2689D01*
X27960Y2706D01*
Y2730D01*
X27962Y2757D01*
X27964Y2789D01*
X27968Y2828D01*
X27972Y2868D01*
X27979Y2913D01*
X27985Y2960D01*
X27994Y3011D01*
X28002Y3064D01*
X28026Y3175D01*
X28058Y3287D01*
X28060Y3292D01*
X28062Y3300D01*
X28068Y3317D01*
X28075Y3339D01*
X28085Y3366D01*
X28096Y3398D01*
X28111Y3432D01*
X28126Y3473D01*
X28143Y3513D01*
X28162Y3558D01*
X28207Y3649D01*
X28256Y3747D01*
X28313Y3841D01*
X27800D01*
Y4096D01*
X28573D01*
Y3894D01*
D02*
G37*
G36*
X25651Y4141D02*
X25677Y4139D01*
X25707Y4132D01*
X25743Y4122D01*
X25779Y4105D01*
X25817Y4084D01*
X25851Y4054D01*
X25856Y4049D01*
X25866Y4037D01*
X25881Y4015D01*
X25900Y3988D01*
X25919Y3949D01*
X25939Y3903D01*
X25954Y3849D01*
X25966Y3786D01*
X25747Y3756D01*
Y3758D01*
Y3762D01*
X25745Y3771D01*
X25743Y3781D01*
X25736Y3807D01*
X25724Y3837D01*
X25709Y3864D01*
X25685Y3890D01*
X25670Y3900D01*
X25656Y3909D01*
X25636Y3913D01*
X25617Y3915D01*
X25615D01*
X25604Y3913D01*
X25592Y3911D01*
X25575Y3905D01*
X25555Y3896D01*
X25536Y3881D01*
X25515Y3862D01*
X25496Y3835D01*
X25494Y3830D01*
X25492Y3826D01*
X25487Y3817D01*
X25485Y3809D01*
X25479Y3796D01*
X25475Y3781D01*
X25470Y3764D01*
X25464Y3743D01*
X25460Y3720D01*
X25453Y3692D01*
X25449Y3662D01*
X25445Y3630D01*
X25441Y3594D01*
X25436Y3554D01*
X25434Y3509D01*
X25436Y3511D01*
X25443Y3519D01*
X25451Y3530D01*
X25462Y3543D01*
X25477Y3558D01*
X25492Y3573D01*
X25509Y3588D01*
X25528Y3600D01*
X25530Y3602D01*
X25536Y3605D01*
X25549Y3611D01*
X25562Y3617D01*
X25579Y3622D01*
X25600Y3628D01*
X25621Y3630D01*
X25645Y3632D01*
X25658D01*
X25668Y3630D01*
X25681Y3628D01*
X25694Y3626D01*
X25728Y3615D01*
X25764Y3600D01*
X25785Y3590D01*
X25805Y3577D01*
X25826Y3562D01*
X25845Y3545D01*
X25866Y3526D01*
X25885Y3502D01*
X25888Y3500D01*
X25890Y3496D01*
X25896Y3490D01*
X25902Y3479D01*
X25909Y3466D01*
X25919Y3451D01*
X25928Y3432D01*
X25939Y3411D01*
X25947Y3388D01*
X25958Y3362D01*
X25966Y3334D01*
X25973Y3305D01*
X25981Y3270D01*
X25985Y3236D01*
X25988Y3198D01*
X25990Y3160D01*
Y3158D01*
Y3149D01*
Y3138D01*
X25988Y3124D01*
X25985Y3104D01*
X25983Y3081D01*
X25981Y3058D01*
X25977Y3030D01*
X25962Y2975D01*
X25943Y2915D01*
X25930Y2885D01*
X25915Y2858D01*
X25898Y2830D01*
X25879Y2804D01*
X25877Y2802D01*
X25875Y2798D01*
X25868Y2792D01*
X25860Y2785D01*
X25849Y2774D01*
X25836Y2764D01*
X25805Y2740D01*
X25766Y2717D01*
X25719Y2696D01*
X25694Y2689D01*
X25666Y2683D01*
X25638Y2679D01*
X25609Y2677D01*
X25600D01*
X25592Y2679D01*
X25579D01*
X25564Y2681D01*
X25547Y2685D01*
X25507Y2698D01*
X25483Y2706D01*
X25460Y2717D01*
X25434Y2730D01*
X25411Y2747D01*
X25385Y2766D01*
X25362Y2787D01*
X25338Y2813D01*
X25315Y2843D01*
X25313Y2845D01*
X25311Y2851D01*
X25304Y2862D01*
X25298Y2875D01*
X25289Y2894D01*
X25279Y2917D01*
X25268Y2943D01*
X25257Y2975D01*
X25247Y3011D01*
X25236Y3053D01*
X25228Y3098D01*
X25217Y3149D01*
X25211Y3204D01*
X25204Y3264D01*
X25202Y3330D01*
X25200Y3400D01*
Y3402D01*
Y3405D01*
Y3417D01*
Y3439D01*
X25202Y3464D01*
X25204Y3498D01*
X25206Y3534D01*
X25211Y3575D01*
X25215Y3620D01*
X25230Y3713D01*
X25251Y3807D01*
X25264Y3852D01*
X25281Y3894D01*
X25298Y3935D01*
X25319Y3969D01*
X25321Y3971D01*
X25326Y3977D01*
X25332Y3986D01*
X25340Y3996D01*
X25353Y4009D01*
X25368Y4024D01*
X25385Y4039D01*
X25404Y4056D01*
X25426Y4073D01*
X25449Y4088D01*
X25502Y4115D01*
X25532Y4126D01*
X25562Y4137D01*
X25596Y4141D01*
X25630Y4143D01*
X25643D01*
X25651Y4141D01*
D02*
G37*
G36*
X36153D02*
X36168Y4139D01*
X36185Y4135D01*
X36225Y4122D01*
X36247Y4113D01*
X36270Y4103D01*
X36291Y4090D01*
X36315Y4075D01*
X36338Y4056D01*
X36362Y4032D01*
X36383Y4009D01*
X36404Y3979D01*
X36406Y3977D01*
X36408Y3971D01*
X36415Y3962D01*
X36421Y3947D01*
X36430Y3928D01*
X36438Y3907D01*
X36447Y3879D01*
X36457Y3847D01*
X36468Y3809D01*
X36477Y3769D01*
X36485Y3722D01*
X36494Y3668D01*
X36500Y3613D01*
X36506Y3549D01*
X36508Y3483D01*
X36511Y3409D01*
Y3407D01*
Y3405D01*
Y3398D01*
Y3392D01*
Y3370D01*
X36508Y3343D01*
Y3309D01*
X36504Y3273D01*
X36502Y3230D01*
X36498Y3185D01*
X36485Y3092D01*
X36466Y2996D01*
X36453Y2951D01*
X36440Y2911D01*
X36423Y2872D01*
X36404Y2838D01*
X36402Y2836D01*
X36400Y2832D01*
X36393Y2823D01*
X36385Y2813D01*
X36374Y2800D01*
X36362Y2787D01*
X36330Y2757D01*
X36289Y2728D01*
X36242Y2702D01*
X36217Y2691D01*
X36189Y2683D01*
X36159Y2679D01*
X36127Y2677D01*
X36119D01*
X36110Y2679D01*
X36100D01*
X36085Y2681D01*
X36068Y2685D01*
X36027Y2696D01*
X36006Y2704D01*
X35983Y2715D01*
X35961Y2728D01*
X35938Y2745D01*
X35915Y2762D01*
X35891Y2783D01*
X35870Y2809D01*
X35849Y2836D01*
X35846Y2838D01*
X35844Y2845D01*
X35840Y2853D01*
X35832Y2868D01*
X35825Y2887D01*
X35817Y2909D01*
X35806Y2936D01*
X35798Y2968D01*
X35787Y3007D01*
X35778Y3047D01*
X35768Y3094D01*
X35761Y3147D01*
X35755Y3204D01*
X35749Y3268D01*
X35746Y3336D01*
X35744Y3411D01*
Y3413D01*
Y3415D01*
Y3422D01*
Y3428D01*
Y3449D01*
X35746Y3477D01*
X35749Y3509D01*
X35751Y3547D01*
X35753Y3590D01*
X35757Y3634D01*
X35770Y3728D01*
X35789Y3822D01*
X35800Y3866D01*
X35815Y3907D01*
X35829Y3945D01*
X35849Y3979D01*
X35851Y3981D01*
X35853Y3986D01*
X35859Y3994D01*
X35868Y4005D01*
X35878Y4018D01*
X35891Y4030D01*
X35923Y4062D01*
X35964Y4092D01*
X36010Y4118D01*
X36036Y4128D01*
X36064Y4137D01*
X36093Y4141D01*
X36125Y4143D01*
X36142D01*
X36153Y4141D01*
D02*
G37*
G36*
X43764D02*
X43777Y4139D01*
X43792Y4137D01*
X43830Y4128D01*
X43871Y4115D01*
X43913Y4094D01*
X43935Y4081D01*
X43956Y4067D01*
X43975Y4049D01*
X43994Y4028D01*
X43996Y4026D01*
X43999Y4024D01*
X44003Y4018D01*
X44009Y4009D01*
X44016Y3998D01*
X44024Y3986D01*
X44043Y3954D01*
X44060Y3915D01*
X44075Y3873D01*
X44086Y3826D01*
X44090Y3800D01*
Y3775D01*
Y3771D01*
Y3760D01*
X44088Y3741D01*
X44084Y3720D01*
X44079Y3692D01*
X44071Y3664D01*
X44060Y3634D01*
X44045Y3605D01*
X44043Y3600D01*
X44037Y3592D01*
X44028Y3579D01*
X44013Y3560D01*
X43996Y3541D01*
X43973Y3517D01*
X43948Y3494D01*
X43918Y3473D01*
X43920D01*
X43922Y3471D01*
X43935Y3466D01*
X43952Y3460D01*
X43975Y3449D01*
X44001Y3432D01*
X44026Y3413D01*
X44052Y3388D01*
X44077Y3356D01*
X44079Y3351D01*
X44088Y3339D01*
X44099Y3319D01*
X44109Y3294D01*
X44122Y3262D01*
X44131Y3224D01*
X44139Y3179D01*
X44141Y3130D01*
Y3128D01*
Y3121D01*
Y3111D01*
X44139Y3098D01*
X44137Y3081D01*
X44135Y3062D01*
X44131Y3041D01*
X44126Y3015D01*
X44111Y2964D01*
X44090Y2911D01*
X44077Y2883D01*
X44062Y2855D01*
X44043Y2830D01*
X44022Y2804D01*
X44020Y2802D01*
X44018Y2798D01*
X44009Y2792D01*
X44001Y2785D01*
X43990Y2774D01*
X43977Y2764D01*
X43943Y2740D01*
X43903Y2717D01*
X43856Y2696D01*
X43828Y2689D01*
X43801Y2683D01*
X43773Y2679D01*
X43743Y2677D01*
X43728D01*
X43718Y2679D01*
X43705Y2681D01*
X43688Y2683D01*
X43652Y2689D01*
X43611Y2702D01*
X43567Y2723D01*
X43543Y2734D01*
X43522Y2749D01*
X43501Y2766D01*
X43479Y2785D01*
X43477Y2787D01*
X43475Y2789D01*
X43469Y2796D01*
X43462Y2804D01*
X43454Y2817D01*
X43445Y2830D01*
X43435Y2845D01*
X43424Y2864D01*
X43413Y2883D01*
X43403Y2906D01*
X43392Y2930D01*
X43381Y2958D01*
X43366Y3015D01*
X43356Y3083D01*
X43575Y3115D01*
Y3113D01*
Y3111D01*
X43577Y3098D01*
X43579Y3081D01*
X43586Y3058D01*
X43592Y3032D01*
X43603Y3007D01*
X43615Y2981D01*
X43630Y2960D01*
X43632Y2958D01*
X43639Y2951D01*
X43650Y2943D01*
X43662Y2934D01*
X43677Y2923D01*
X43696Y2915D01*
X43718Y2909D01*
X43741Y2906D01*
X43754D01*
X43767Y2911D01*
X43781Y2915D01*
X43801Y2921D01*
X43822Y2932D01*
X43841Y2947D01*
X43860Y2968D01*
X43862Y2970D01*
X43869Y2981D01*
X43875Y2994D01*
X43886Y3015D01*
X43894Y3038D01*
X43901Y3070D01*
X43907Y3104D01*
X43909Y3145D01*
Y3147D01*
Y3149D01*
Y3162D01*
X43907Y3181D01*
X43903Y3204D01*
X43899Y3230D01*
X43890Y3258D01*
X43877Y3285D01*
X43862Y3309D01*
X43860Y3311D01*
X43854Y3319D01*
X43843Y3328D01*
X43830Y3341D01*
X43813Y3351D01*
X43794Y3362D01*
X43773Y3368D01*
X43750Y3370D01*
X43733D01*
X43722Y3368D01*
X43707Y3366D01*
X43688Y3362D01*
X43669Y3356D01*
X43647Y3349D01*
X43671Y3575D01*
X43686D01*
X43703Y3577D01*
X43722Y3579D01*
X43745Y3585D01*
X43769Y3592D01*
X43790Y3605D01*
X43811Y3620D01*
X43813Y3622D01*
X43820Y3628D01*
X43828Y3641D01*
X43837Y3656D01*
X43845Y3675D01*
X43854Y3698D01*
X43860Y3726D01*
X43862Y3758D01*
Y3762D01*
Y3771D01*
X43860Y3783D01*
X43858Y3800D01*
X43854Y3817D01*
X43845Y3837D01*
X43837Y3856D01*
X43824Y3873D01*
X43822Y3875D01*
X43818Y3879D01*
X43809Y3886D01*
X43799Y3894D01*
X43786Y3903D01*
X43769Y3909D01*
X43750Y3913D01*
X43728Y3915D01*
X43720D01*
X43707Y3913D01*
X43694Y3909D01*
X43679Y3903D01*
X43662Y3894D01*
X43645Y3883D01*
X43628Y3866D01*
X43626Y3864D01*
X43622Y3858D01*
X43615Y3845D01*
X43607Y3830D01*
X43598Y3811D01*
X43590Y3786D01*
X43584Y3758D01*
X43579Y3724D01*
X43371Y3766D01*
Y3769D01*
X43373Y3775D01*
X43375Y3786D01*
X43377Y3798D01*
X43381Y3815D01*
X43386Y3832D01*
X43398Y3875D01*
X43415Y3922D01*
X43437Y3969D01*
X43464Y4013D01*
X43479Y4035D01*
X43496Y4052D01*
X43498Y4054D01*
X43501Y4056D01*
X43513Y4067D01*
X43535Y4081D01*
X43562Y4098D01*
X43596Y4113D01*
X43639Y4128D01*
X43686Y4139D01*
X43711Y4143D01*
X43752D01*
X43764Y4141D01*
D02*
G37*
G36*
X43028Y2700D02*
X42800D01*
Y3741D01*
X42798Y3739D01*
X42794Y3734D01*
X42787Y3728D01*
X42777Y3717D01*
X42766Y3707D01*
X42751Y3692D01*
X42734Y3677D01*
X42715Y3662D01*
X42673Y3628D01*
X42624Y3592D01*
X42566Y3560D01*
X42507Y3532D01*
Y3783D01*
X42509D01*
X42511Y3786D01*
X42524Y3790D01*
X42541Y3800D01*
X42566Y3813D01*
X42596Y3832D01*
X42628Y3856D01*
X42664Y3883D01*
X42702Y3918D01*
X42704Y3920D01*
X42707Y3922D01*
X42719Y3935D01*
X42736Y3956D01*
X42758Y3984D01*
X42781Y4015D01*
X42804Y4054D01*
X42826Y4096D01*
X42843Y4143D01*
X43028D01*
Y2700D01*
D02*
G37*
G36*
X46520Y3209D02*
X46667D01*
Y2966D01*
X46520D01*
Y2677D01*
X46301D01*
Y2966D01*
X45817D01*
Y3207D01*
X46328Y4120D01*
X46520D01*
Y3209D01*
D02*
G37*
G36*
X45521Y2677D02*
X45294D01*
Y3717D01*
X45292Y3715D01*
X45287Y3711D01*
X45281Y3705D01*
X45270Y3694D01*
X45260Y3683D01*
X45245Y3668D01*
X45228Y3654D01*
X45209Y3639D01*
X45166Y3605D01*
X45117Y3568D01*
X45060Y3537D01*
X45000Y3509D01*
Y3760D01*
X45002D01*
X45004Y3762D01*
X45017Y3766D01*
X45034Y3777D01*
X45060Y3790D01*
X45089Y3809D01*
X45121Y3832D01*
X45158Y3860D01*
X45196Y3894D01*
X45198Y3896D01*
X45200Y3898D01*
X45213Y3911D01*
X45230Y3932D01*
X45251Y3960D01*
X45275Y3992D01*
X45298Y4030D01*
X45319Y4073D01*
X45336Y4120D01*
X45521D01*
Y2677D01*
D02*
G37*
G36*
X41275Y4118D02*
X41292Y4115D01*
X41309Y4113D01*
X41352Y4105D01*
X41396Y4090D01*
X41420Y4081D01*
X41443Y4069D01*
X41467Y4054D01*
X41488Y4039D01*
X41507Y4020D01*
X41526Y3998D01*
X41528Y3996D01*
X41530Y3992D01*
X41535Y3986D01*
X41541Y3977D01*
X41547Y3966D01*
X41556Y3952D01*
X41575Y3918D01*
X41592Y3877D01*
X41607Y3830D01*
X41618Y3779D01*
X41622Y3751D01*
Y3722D01*
Y3717D01*
Y3707D01*
X41620Y3690D01*
Y3666D01*
X41616Y3641D01*
X41611Y3611D01*
X41605Y3581D01*
X41596Y3549D01*
Y3545D01*
X41592Y3534D01*
X41586Y3519D01*
X41579Y3498D01*
X41569Y3473D01*
X41556Y3445D01*
X41539Y3415D01*
X41522Y3383D01*
X41520Y3379D01*
X41513Y3368D01*
X41501Y3349D01*
X41484Y3326D01*
X41460Y3294D01*
X41430Y3258D01*
X41396Y3215D01*
X41356Y3168D01*
X41354Y3166D01*
X41352Y3164D01*
X41345Y3158D01*
X41339Y3149D01*
X41320Y3128D01*
X41298Y3102D01*
X41275Y3075D01*
X41252Y3049D01*
X41232Y3026D01*
X41218Y3007D01*
X41215Y3004D01*
X41213Y3000D01*
X41207Y2992D01*
X41200Y2983D01*
X41186Y2960D01*
X41171Y2932D01*
X41622D01*
Y2677D01*
X40828D01*
Y2679D01*
Y2683D01*
X40830Y2691D01*
Y2702D01*
X40832Y2715D01*
X40837Y2730D01*
X40843Y2766D01*
X40851Y2806D01*
X40866Y2853D01*
X40883Y2902D01*
X40905Y2951D01*
Y2953D01*
X40909Y2958D01*
X40911Y2964D01*
X40917Y2975D01*
X40926Y2987D01*
X40934Y3004D01*
X40947Y3021D01*
X40962Y3043D01*
X40977Y3066D01*
X40996Y3092D01*
X41015Y3119D01*
X41039Y3151D01*
X41064Y3183D01*
X41094Y3217D01*
X41124Y3256D01*
X41158Y3294D01*
X41160Y3296D01*
X41164Y3302D01*
X41173Y3311D01*
X41181Y3322D01*
X41194Y3334D01*
X41207Y3351D01*
X41237Y3388D01*
X41269Y3426D01*
X41298Y3462D01*
X41324Y3496D01*
X41335Y3511D01*
X41343Y3524D01*
X41345Y3528D01*
X41352Y3539D01*
X41360Y3556D01*
X41369Y3579D01*
X41377Y3605D01*
X41386Y3634D01*
X41392Y3666D01*
X41394Y3698D01*
Y3700D01*
Y3703D01*
Y3713D01*
X41392Y3730D01*
X41390Y3751D01*
X41384Y3775D01*
X41377Y3798D01*
X41367Y3822D01*
X41352Y3841D01*
X41349Y3843D01*
X41343Y3849D01*
X41335Y3856D01*
X41322Y3866D01*
X41307Y3875D01*
X41288Y3881D01*
X41264Y3888D01*
X41241Y3890D01*
X41235D01*
X41226Y3888D01*
X41218Y3886D01*
X41192Y3877D01*
X41179Y3871D01*
X41164Y3862D01*
X41149Y3849D01*
X41134Y3835D01*
X41122Y3817D01*
X41109Y3794D01*
X41098Y3769D01*
X41090Y3739D01*
X41083Y3705D01*
X41079Y3664D01*
X40854Y3694D01*
Y3696D01*
X40856Y3705D01*
Y3715D01*
X40858Y3730D01*
X40862Y3747D01*
X40864Y3769D01*
X40871Y3792D01*
X40877Y3817D01*
X40892Y3869D01*
X40913Y3922D01*
X40941Y3973D01*
X40956Y3994D01*
X40975Y4015D01*
X40977Y4018D01*
X40979Y4020D01*
X40986Y4026D01*
X40994Y4032D01*
X41005Y4039D01*
X41015Y4049D01*
X41047Y4069D01*
X41086Y4088D01*
X41132Y4103D01*
X41186Y4115D01*
X41215Y4118D01*
X41245Y4120D01*
X41262D01*
X41275Y4118D01*
D02*
G37*
G36*
X38021Y2677D02*
X37794D01*
Y3717D01*
X37792Y3715D01*
X37787Y3711D01*
X37781Y3705D01*
X37770Y3694D01*
X37760Y3683D01*
X37745Y3668D01*
X37728Y3654D01*
X37709Y3639D01*
X37666Y3605D01*
X37617Y3568D01*
X37560Y3537D01*
X37500Y3509D01*
Y3760D01*
X37502D01*
X37504Y3762D01*
X37517Y3766D01*
X37534Y3777D01*
X37560Y3790D01*
X37589Y3809D01*
X37621Y3832D01*
X37658Y3860D01*
X37696Y3894D01*
X37698Y3896D01*
X37700Y3898D01*
X37713Y3911D01*
X37730Y3932D01*
X37751Y3960D01*
X37775Y3992D01*
X37798Y4030D01*
X37819Y4073D01*
X37836Y4120D01*
X38021D01*
Y2677D01*
D02*
G37*
G36*
X35408Y2700D02*
X35180D01*
Y3741D01*
X35178Y3739D01*
X35174Y3734D01*
X35167Y3728D01*
X35157Y3717D01*
X35146Y3707D01*
X35131Y3692D01*
X35114Y3677D01*
X35095Y3662D01*
X35053Y3628D01*
X35004Y3592D01*
X34946Y3560D01*
X34886Y3532D01*
Y3783D01*
X34889D01*
X34891Y3786D01*
X34904Y3790D01*
X34921Y3800D01*
X34946Y3813D01*
X34976Y3832D01*
X35008Y3856D01*
X35044Y3883D01*
X35082Y3918D01*
X35084Y3920D01*
X35087Y3922D01*
X35099Y3935D01*
X35116Y3956D01*
X35138Y3984D01*
X35161Y4015D01*
X35184Y4054D01*
X35206Y4096D01*
X35223Y4143D01*
X35408D01*
Y2700D01*
D02*
G37*
G36*
X40521Y2677D02*
X40294D01*
Y3717D01*
X40292Y3715D01*
X40287Y3711D01*
X40281Y3705D01*
X40270Y3694D01*
X40260Y3683D01*
X40245Y3668D01*
X40228Y3654D01*
X40209Y3639D01*
X40166Y3605D01*
X40117Y3568D01*
X40060Y3537D01*
X40000Y3509D01*
Y3760D01*
X40002D01*
X40004Y3762D01*
X40017Y3766D01*
X40034Y3777D01*
X40060Y3790D01*
X40089Y3809D01*
X40121Y3832D01*
X40158Y3860D01*
X40196Y3894D01*
X40198Y3896D01*
X40200Y3898D01*
X40213Y3911D01*
X40230Y3932D01*
X40251Y3960D01*
X40275Y3992D01*
X40298Y4030D01*
X40319Y4073D01*
X40336Y4120D01*
X40521D01*
Y2677D01*
D02*
G37*
G36*
X38939D02*
X38711D01*
Y3717D01*
X38709Y3715D01*
X38705Y3711D01*
X38698Y3705D01*
X38688Y3694D01*
X38677Y3683D01*
X38662Y3668D01*
X38645Y3654D01*
X38626Y3639D01*
X38583Y3605D01*
X38534Y3568D01*
X38477Y3537D01*
X38417Y3509D01*
Y3760D01*
X38420D01*
X38422Y3762D01*
X38434Y3766D01*
X38451Y3777D01*
X38477Y3790D01*
X38507Y3809D01*
X38539Y3832D01*
X38575Y3860D01*
X38613Y3894D01*
X38615Y3896D01*
X38617Y3898D01*
X38630Y3911D01*
X38647Y3932D01*
X38669Y3960D01*
X38692Y3992D01*
X38715Y4030D01*
X38737Y4073D01*
X38754Y4120D01*
X38939D01*
Y2677D01*
D02*
G37*
G36*
X48103Y2700D02*
X47875D01*
Y3741D01*
X47873Y3739D01*
X47868Y3734D01*
X47862Y3728D01*
X47851Y3717D01*
X47841Y3707D01*
X47826Y3692D01*
X47809Y3677D01*
X47790Y3662D01*
X47747Y3628D01*
X47698Y3592D01*
X47641Y3560D01*
X47581Y3532D01*
Y3783D01*
X47583D01*
X47585Y3786D01*
X47598Y3790D01*
X47615Y3800D01*
X47641Y3813D01*
X47670Y3832D01*
X47702Y3856D01*
X47739Y3883D01*
X47777Y3918D01*
X47779Y3920D01*
X47781Y3922D01*
X47794Y3935D01*
X47811Y3956D01*
X47832Y3984D01*
X47856Y4015D01*
X47879Y4054D01*
X47900Y4096D01*
X47917Y4143D01*
X48103D01*
Y2700D01*
D02*
G37*
G36*
X1692Y29062D02*
X1711D01*
X1733Y29059D01*
X1756D01*
X1807Y29053D01*
X1863Y29047D01*
X1918Y29036D01*
X1971Y29021D01*
X1973D01*
X1978Y29019D01*
X1984Y29017D01*
X1995Y29013D01*
X2020Y29004D01*
X2050Y28991D01*
X2086Y28976D01*
X2122Y28957D01*
X2158Y28936D01*
X2190Y28913D01*
X2195Y28910D01*
X2203Y28902D01*
X2218Y28887D01*
X2235Y28870D01*
X2254Y28847D01*
X2273Y28821D01*
X2293Y28791D01*
X2310Y28757D01*
X2312Y28753D01*
X2316Y28740D01*
X2322Y28721D01*
X2329Y28693D01*
X2337Y28659D01*
X2344Y28619D01*
X2348Y28572D01*
X2350Y28521D01*
Y28074D01*
X911D01*
Y28508D01*
Y28510D01*
Y28514D01*
Y28523D01*
Y28536D01*
X913Y28549D01*
Y28563D01*
X915Y28600D01*
X920Y28640D01*
X928Y28681D01*
X937Y28721D01*
X949Y28755D01*
X952Y28759D01*
X956Y28770D01*
X966Y28785D01*
X979Y28806D01*
X996Y28830D01*
X1018Y28857D01*
X1043Y28883D01*
X1073Y28910D01*
X1077Y28915D01*
X1088Y28923D01*
X1107Y28936D01*
X1135Y28951D01*
X1167Y28970D01*
X1205Y28989D01*
X1250Y29006D01*
X1301Y29023D01*
X1303D01*
X1307Y29025D01*
X1316Y29027D01*
X1326Y29030D01*
X1339Y29032D01*
X1356Y29036D01*
X1375Y29040D01*
X1396Y29044D01*
X1420Y29047D01*
X1445Y29051D01*
X1473Y29055D01*
X1505Y29057D01*
X1571Y29062D01*
X1645Y29064D01*
X1677D01*
X1692Y29062D01*
D02*
G37*
G36*
X45741Y1426D02*
X45467D01*
Y600D01*
X45239D01*
Y1426D01*
X44964D01*
Y1643D01*
X45741D01*
Y1426D01*
D02*
G37*
G36*
X43811Y600D02*
X43583D01*
Y1426D01*
X43276D01*
Y600D01*
X43049D01*
Y1643D01*
X43811D01*
Y600D01*
D02*
G37*
G36*
X2350Y30039D02*
X2037Y29868D01*
X2035D01*
X2029Y29864D01*
X2020Y29860D01*
X2009Y29853D01*
X1997Y29845D01*
X1982Y29836D01*
X1948Y29817D01*
X1912Y29796D01*
X1875Y29775D01*
X1860Y29766D01*
X1848Y29755D01*
X1835Y29747D01*
X1826Y29741D01*
X1824Y29738D01*
X1820Y29734D01*
X1811Y29728D01*
X1803Y29719D01*
X1784Y29698D01*
X1773Y29685D01*
X1767Y29670D01*
Y29668D01*
X1765Y29664D01*
X1760Y29655D01*
X1758Y29643D01*
X1754Y29626D01*
X1752Y29604D01*
X1750Y29581D01*
Y29551D01*
Y29504D01*
X2350D01*
Y29266D01*
X911D01*
Y29768D01*
Y29770D01*
Y29777D01*
Y29787D01*
Y29800D01*
X913Y29815D01*
Y29834D01*
X915Y29875D01*
X922Y29919D01*
X928Y29964D01*
X939Y30007D01*
X945Y30026D01*
X952Y30043D01*
X954Y30047D01*
X958Y30058D01*
X969Y30073D01*
X983Y30092D01*
X1001Y30113D01*
X1024Y30134D01*
X1052Y30158D01*
X1086Y30179D01*
X1090Y30181D01*
X1103Y30188D01*
X1124Y30196D01*
X1150Y30207D01*
X1184Y30215D01*
X1224Y30224D01*
X1267Y30230D01*
X1316Y30232D01*
X1333D01*
X1343Y30230D01*
X1358D01*
X1375Y30228D01*
X1413Y30222D01*
X1456Y30213D01*
X1501Y30198D01*
X1545Y30177D01*
X1588Y30149D01*
X1590D01*
X1592Y30145D01*
X1605Y30134D01*
X1622Y30115D01*
X1641Y30090D01*
X1665Y30058D01*
X1686Y30017D01*
X1703Y29973D01*
X1716Y29919D01*
X1718Y29924D01*
X1726Y29932D01*
X1737Y29947D01*
X1752Y29964D01*
X1769Y29983D01*
X1790Y30004D01*
X1814Y30026D01*
X1837Y30045D01*
X1839Y30047D01*
X1850Y30053D01*
X1867Y30066D01*
X1890Y30081D01*
X1922Y30100D01*
X1941Y30111D01*
X1963Y30124D01*
X1986Y30136D01*
X2012Y30151D01*
X2041Y30166D01*
X2071Y30181D01*
X2350Y30326D01*
Y30039D01*
D02*
G37*
G36*
X42465Y1426D02*
X42191D01*
Y600D01*
X41963D01*
Y1426D01*
X41689D01*
Y1643D01*
X42465D01*
Y1426D01*
D02*
G37*
G36*
X23701Y40601D02*
X23712D01*
X23725Y40598D01*
X23739Y40597D01*
X23756Y40594D01*
X23791Y40586D01*
X23831Y40573D01*
X23851Y40564D01*
X23870Y40556D01*
X23891Y40545D01*
X23911Y40532D01*
X23913Y40531D01*
X23915Y40529D01*
X23921Y40525D01*
X23928Y40519D01*
X23935Y40512D01*
X23944Y40504D01*
X23953Y40493D01*
X23963Y40481D01*
X23973Y40469D01*
X23983Y40453D01*
X23992Y40438D01*
X23999Y40419D01*
X24006Y40401D01*
X24011Y40380D01*
X24014Y40359D01*
X24016Y40335D01*
Y40333D01*
Y40330D01*
Y40325D01*
X24014Y40318D01*
Y40309D01*
X24011Y40298D01*
X24007Y40274D01*
X23999Y40247D01*
X23987Y40218D01*
X23970Y40190D01*
X23959Y40175D01*
X23948Y40161D01*
X23946Y40160D01*
X23945Y40159D01*
X23941Y40154D01*
X23935Y40150D01*
X23928Y40144D01*
X23920Y40139D01*
X23910Y40132D01*
X23899Y40125D01*
X23886Y40118D01*
X23870Y40111D01*
X23855Y40104D01*
X23838Y40096D01*
X23820Y40091D01*
X23798Y40085D01*
X23755Y40078D01*
X23735Y40228D01*
X23738D01*
X23745Y40229D01*
X23758Y40232D01*
X23772Y40235D01*
X23787Y40239D01*
X23803Y40246D01*
X23820Y40254D01*
X23834Y40266D01*
X23835Y40267D01*
X23839Y40271D01*
X23845Y40278D01*
X23851Y40287D01*
X23858Y40297D01*
X23863Y40309D01*
X23867Y40322D01*
X23869Y40336D01*
Y40338D01*
X23867Y40345D01*
X23866Y40353D01*
X23863Y40363D01*
X23858Y40376D01*
X23849Y40390D01*
X23839Y40402D01*
X23824Y40415D01*
X23821Y40416D01*
X23815Y40421D01*
X23804Y40426D01*
X23790Y40432D01*
X23770Y40438D01*
X23746Y40443D01*
X23717Y40447D01*
X23684Y40449D01*
X23669D01*
X23653Y40447D01*
X23633Y40445D01*
X23612Y40440D01*
X23590Y40435D01*
X23570Y40426D01*
X23552Y40415D01*
X23550Y40414D01*
X23545Y40409D01*
X23538Y40402D01*
X23529Y40393D01*
X23522Y40381D01*
X23515Y40366D01*
X23509Y40350D01*
X23508Y40332D01*
Y40329D01*
X23509Y40321D01*
X23512Y40309D01*
X23516Y40294D01*
X23525Y40276D01*
X23538Y40256D01*
X23545Y40246D01*
X23555Y40236D01*
X23564Y40226D01*
X23577Y40216D01*
X23556Y40095D01*
X23060Y40171D01*
Y40567D01*
X23230D01*
Y40285D01*
X23394Y40260D01*
X23392Y40263D01*
X23388Y40268D01*
X23384Y40278D01*
X23377Y40292D01*
X23371Y40308D01*
X23367Y40325D01*
X23363Y40343D01*
X23361Y40363D01*
Y40364D01*
Y40367D01*
Y40371D01*
X23363Y40378D01*
X23364Y40387D01*
X23366Y40395D01*
X23370Y40418D01*
X23380Y40442D01*
X23392Y40469D01*
X23401Y40483D01*
X23411Y40495D01*
X23422Y40508D01*
X23435Y40521D01*
X23436Y40522D01*
X23439Y40525D01*
X23445Y40528D01*
X23452Y40533D01*
X23461Y40539D01*
X23473Y40546D01*
X23485Y40555D01*
X23500Y40562D01*
X23516Y40569D01*
X23535Y40577D01*
X23556Y40584D01*
X23577Y40590D01*
X23601Y40596D01*
X23625Y40600D01*
X23652Y40601D01*
X23680Y40603D01*
X23693D01*
X23701Y40601D01*
D02*
G37*
G36*
X24000Y39839D02*
X23676Y39664D01*
X24000Y39489D01*
Y39300D01*
X23504Y39571D01*
X23047Y39325D01*
Y39509D01*
X23333Y39664D01*
X23047Y39819D01*
Y40002D01*
X23504Y39757D01*
X24000Y40027D01*
Y39839D01*
D02*
G37*
G36*
X2350Y26503D02*
X2024Y26401D01*
Y25924D01*
X2350Y25828D01*
Y25575D01*
X911Y26033D01*
Y26286D01*
X2350Y26761D01*
Y26503D01*
D02*
G37*
G36*
X1692Y27872D02*
X1711D01*
X1733Y27870D01*
X1756D01*
X1807Y27863D01*
X1863Y27857D01*
X1918Y27846D01*
X1971Y27831D01*
X1973D01*
X1978Y27829D01*
X1984Y27827D01*
X1995Y27823D01*
X2020Y27814D01*
X2050Y27801D01*
X2086Y27787D01*
X2122Y27767D01*
X2158Y27746D01*
X2190Y27723D01*
X2195Y27721D01*
X2203Y27712D01*
X2218Y27697D01*
X2235Y27680D01*
X2254Y27657D01*
X2273Y27631D01*
X2293Y27601D01*
X2310Y27567D01*
X2312Y27563D01*
X2316Y27550D01*
X2322Y27531D01*
X2329Y27503D01*
X2337Y27469D01*
X2344Y27429D01*
X2348Y27382D01*
X2350Y27331D01*
Y26884D01*
X911D01*
Y27318D01*
Y27320D01*
Y27325D01*
Y27333D01*
Y27346D01*
X913Y27359D01*
Y27374D01*
X915Y27410D01*
X920Y27450D01*
X928Y27491D01*
X937Y27531D01*
X949Y27565D01*
X952Y27569D01*
X956Y27580D01*
X966Y27595D01*
X979Y27616D01*
X996Y27640D01*
X1018Y27667D01*
X1043Y27693D01*
X1073Y27721D01*
X1077Y27725D01*
X1088Y27733D01*
X1107Y27746D01*
X1135Y27761D01*
X1167Y27780D01*
X1205Y27799D01*
X1250Y27816D01*
X1301Y27833D01*
X1303D01*
X1307Y27835D01*
X1316Y27838D01*
X1326Y27840D01*
X1339Y27842D01*
X1356Y27846D01*
X1375Y27850D01*
X1396Y27855D01*
X1420Y27857D01*
X1445Y27861D01*
X1473Y27865D01*
X1505Y27867D01*
X1571Y27872D01*
X1645Y27874D01*
X1677D01*
X1692Y27872D01*
D02*
G37*
G36*
X46258Y1664D02*
X46290Y1662D01*
X46324Y1656D01*
X46361Y1649D01*
X46397Y1639D01*
X46427Y1626D01*
X46431Y1624D01*
X46439Y1620D01*
X46452Y1609D01*
X46469Y1596D01*
X46486Y1581D01*
X46505Y1562D01*
X46522Y1541D01*
X46535Y1515D01*
X46537Y1511D01*
X46542Y1502D01*
X46546Y1483D01*
X46550Y1473D01*
X46552Y1458D01*
X46556Y1443D01*
X46559Y1424D01*
X46561Y1405D01*
X46565Y1381D01*
X46567Y1356D01*
Y1328D01*
X46569Y1298D01*
Y1264D01*
X46567Y943D01*
Y941D01*
Y936D01*
Y930D01*
Y921D01*
Y896D01*
X46569Y866D01*
Y834D01*
X46571Y800D01*
X46573Y768D01*
X46578Y740D01*
Y738D01*
X46580Y730D01*
X46582Y715D01*
X46586Y698D01*
X46593Y677D01*
X46599Y653D01*
X46608Y628D01*
X46618Y600D01*
X46395D01*
X46365Y713D01*
X46363Y711D01*
X46354Y702D01*
X46344Y689D01*
X46327Y674D01*
X46307Y657D01*
X46286Y640D01*
X46263Y626D01*
X46239Y611D01*
X46237Y609D01*
X46229Y606D01*
X46214Y600D01*
X46197Y594D01*
X46175Y587D01*
X46152Y583D01*
X46126Y579D01*
X46099Y577D01*
X46086D01*
X46078Y579D01*
X46054Y581D01*
X46026Y587D01*
X45995Y598D01*
X45960Y611D01*
X45926Y632D01*
X45894Y660D01*
X45890Y664D01*
X45882Y674D01*
X45869Y694D01*
X45856Y719D01*
X45841Y751D01*
X45828Y789D01*
X45820Y834D01*
X45816Y883D01*
Y887D01*
Y898D01*
X45818Y915D01*
X45820Y936D01*
X45824Y960D01*
X45828Y985D01*
X45837Y1011D01*
X45848Y1036D01*
X45850Y1038D01*
X45854Y1047D01*
X45860Y1060D01*
X45871Y1075D01*
X45884Y1092D01*
X45899Y1109D01*
X45916Y1126D01*
X45937Y1141D01*
X45939Y1143D01*
X45948Y1147D01*
X45963Y1156D01*
X45984Y1164D01*
X46009Y1177D01*
X46041Y1187D01*
X46082Y1200D01*
X46126Y1213D01*
X46129D01*
X46133Y1215D01*
X46141Y1217D01*
X46152Y1219D01*
X46165Y1222D01*
X46180Y1226D01*
X46214Y1234D01*
X46250Y1245D01*
X46286Y1258D01*
X46320Y1268D01*
X46335Y1275D01*
X46348Y1281D01*
Y1285D01*
Y1294D01*
Y1309D01*
X46346Y1328D01*
Y1345D01*
X46344Y1364D01*
X46339Y1379D01*
X46335Y1392D01*
Y1394D01*
X46333Y1396D01*
X46324Y1409D01*
X46310Y1422D01*
X46288Y1437D01*
X46286D01*
X46282Y1439D01*
X46275Y1443D01*
X46265Y1447D01*
X46252Y1449D01*
X46237Y1454D01*
X46218Y1456D01*
X46186D01*
X46175Y1454D01*
X46163Y1451D01*
X46131Y1445D01*
X46116Y1437D01*
X46101Y1428D01*
X46099Y1426D01*
X46095Y1422D01*
X46088Y1415D01*
X46082Y1405D01*
X46073Y1392D01*
X46063Y1373D01*
X46054Y1351D01*
X46046Y1326D01*
X45841Y1368D01*
Y1371D01*
X45843Y1375D01*
X45846Y1383D01*
X45848Y1394D01*
X45852Y1407D01*
X45858Y1422D01*
X45871Y1456D01*
X45886Y1494D01*
X45907Y1530D01*
X45933Y1566D01*
X45963Y1596D01*
X45967Y1598D01*
X45980Y1607D01*
X45999Y1617D01*
X46026Y1632D01*
X46060Y1645D01*
X46103Y1656D01*
X46154Y1664D01*
X46209Y1666D01*
X46233D01*
X46258Y1664D01*
D02*
G37*
G36*
X2350Y30456D02*
X911D01*
Y31333D01*
X1154D01*
Y30694D01*
X1473D01*
Y31288D01*
X1716D01*
Y30694D01*
X2107D01*
Y31354D01*
X2350D01*
Y30456D01*
D02*
G37*
G36*
X43031Y45000D02*
X42803D01*
Y45937D01*
X42330Y45000D01*
X42088D01*
Y46439D01*
X42315D01*
Y45479D01*
X42786Y46439D01*
X43031D01*
Y45000D01*
D02*
G37*
G36*
X48722Y46196D02*
X48084D01*
Y45877D01*
X48678D01*
Y45634D01*
X48084D01*
Y45243D01*
X48744D01*
Y45000D01*
X47845D01*
Y46439D01*
X48722D01*
Y46196D01*
D02*
G37*
G36*
X47603Y45000D02*
X47375D01*
Y45937D01*
X46902Y45000D01*
X46660D01*
Y46439D01*
X46888D01*
Y45479D01*
X47358Y46439D01*
X47603D01*
Y45000D01*
D02*
G37*
G36*
X46413D02*
X46174D01*
Y45630D01*
X45708D01*
Y45000D01*
X45470D01*
Y46439D01*
X45708D01*
Y45873D01*
X46174D01*
Y46439D01*
X46413D01*
Y45000D01*
D02*
G37*
G36*
X41229Y1664D02*
X41244Y1662D01*
X41263Y1660D01*
X41303Y1649D01*
X41350Y1632D01*
X41373Y1622D01*
X41397Y1609D01*
X41420Y1594D01*
X41444Y1575D01*
X41465Y1554D01*
X41486Y1530D01*
X41488Y1528D01*
X41491Y1524D01*
X41497Y1513D01*
X41505Y1500D01*
X41514Y1485D01*
X41525Y1464D01*
X41535Y1441D01*
X41546Y1415D01*
X41557Y1383D01*
X41567Y1349D01*
X41578Y1313D01*
X41586Y1273D01*
X41595Y1228D01*
X41601Y1179D01*
X41603Y1128D01*
X41605Y1073D01*
Y1043D01*
X41039D01*
Y1041D01*
Y1036D01*
Y1030D01*
Y1021D01*
X41041Y1000D01*
X41046Y972D01*
X41052Y941D01*
X41063Y909D01*
X41076Y877D01*
X41093Y849D01*
X41095Y847D01*
X41103Y838D01*
X41114Y828D01*
X41129Y817D01*
X41148Y804D01*
X41171Y794D01*
X41195Y785D01*
X41222Y783D01*
X41227D01*
X41239Y785D01*
X41259Y792D01*
X41282Y802D01*
X41293Y809D01*
X41305Y819D01*
X41318Y832D01*
X41331Y847D01*
X41342Y864D01*
X41352Y883D01*
X41361Y907D01*
X41369Y932D01*
X41595Y885D01*
Y883D01*
X41593Y879D01*
X41591Y870D01*
X41586Y860D01*
X41582Y847D01*
X41576Y832D01*
X41559Y798D01*
X41540Y760D01*
X41514Y719D01*
X41486Y683D01*
X41452Y651D01*
X41448Y649D01*
X41435Y640D01*
X41416Y628D01*
X41388Y615D01*
X41354Y600D01*
X41314Y589D01*
X41269Y581D01*
X41220Y577D01*
X41203D01*
X41188Y579D01*
X41173Y581D01*
X41154Y583D01*
X41114Y591D01*
X41065Y606D01*
X41041Y617D01*
X41018Y630D01*
X40992Y645D01*
X40971Y662D01*
X40948Y681D01*
X40929Y702D01*
X40926Y704D01*
X40924Y709D01*
X40918Y717D01*
X40909Y730D01*
X40901Y745D01*
X40890Y762D01*
X40880Y785D01*
X40869Y809D01*
X40856Y836D01*
X40846Y868D01*
X40835Y902D01*
X40826Y938D01*
X40818Y979D01*
X40812Y1021D01*
X40809Y1066D01*
X40807Y1115D01*
Y1117D01*
Y1126D01*
Y1141D01*
X40809Y1158D01*
X40812Y1181D01*
X40814Y1207D01*
X40818Y1234D01*
X40822Y1264D01*
X40837Y1330D01*
X40848Y1366D01*
X40858Y1400D01*
X40873Y1434D01*
X40888Y1468D01*
X40907Y1502D01*
X40929Y1532D01*
X40931Y1534D01*
X40933Y1539D01*
X40939Y1545D01*
X40948Y1554D01*
X40958Y1564D01*
X40971Y1575D01*
X41001Y1600D01*
X41041Y1624D01*
X41086Y1645D01*
X41112Y1654D01*
X41139Y1660D01*
X41169Y1664D01*
X41199Y1666D01*
X41216D01*
X41229Y1664D01*
D02*
G37*
G36*
X1965Y33553D02*
X1980Y33551D01*
X1999Y33548D01*
X2020Y33544D01*
X2041Y33540D01*
X2092Y33527D01*
X2146Y33506D01*
X2171Y33493D01*
X2197Y33476D01*
X2222Y33459D01*
X2248Y33438D01*
X2250Y33436D01*
X2254Y33431D01*
X2258Y33425D01*
X2267Y33416D01*
X2278Y33404D01*
X2288Y33389D01*
X2299Y33370D01*
X2310Y33350D01*
X2322Y33327D01*
X2333Y33299D01*
X2344Y33270D01*
X2354Y33238D01*
X2363Y33201D01*
X2367Y33163D01*
X2371Y33123D01*
X2373Y33078D01*
Y33076D01*
Y33074D01*
Y33067D01*
Y33059D01*
X2369Y33038D01*
X2365Y33010D01*
X2359Y32976D01*
X2348Y32938D01*
X2333Y32897D01*
X2312Y32855D01*
X2286Y32812D01*
X2252Y32769D01*
X2214Y32729D01*
X2190Y32710D01*
X2165Y32691D01*
X2137Y32674D01*
X2109Y32659D01*
X2078Y32644D01*
X2043Y32629D01*
X2005Y32618D01*
X1967Y32608D01*
X1924Y32601D01*
X1880Y32595D01*
X1852Y32827D01*
X1854D01*
X1865Y32829D01*
X1877Y32831D01*
X1895Y32835D01*
X1916Y32842D01*
X1939Y32850D01*
X1965Y32861D01*
X1990Y32874D01*
X2016Y32889D01*
X2041Y32906D01*
X2065Y32927D01*
X2086Y32952D01*
X2103Y32980D01*
X2116Y33010D01*
X2127Y33046D01*
X2129Y33084D01*
Y33087D01*
Y33089D01*
Y33101D01*
X2127Y33121D01*
X2122Y33146D01*
X2116Y33172D01*
X2105Y33199D01*
X2092Y33227D01*
X2073Y33253D01*
X2071Y33255D01*
X2063Y33263D01*
X2050Y33274D01*
X2035Y33285D01*
X2014Y33297D01*
X1990Y33306D01*
X1963Y33314D01*
X1933Y33316D01*
X1924D01*
X1916Y33314D01*
X1903D01*
X1877Y33306D01*
X1863Y33302D01*
X1850Y33293D01*
X1848D01*
X1843Y33289D01*
X1831Y33276D01*
X1822Y33267D01*
X1811Y33257D01*
X1803Y33242D01*
X1794Y33227D01*
X1792Y33225D01*
X1790Y33219D01*
X1784Y33204D01*
X1775Y33184D01*
X1771Y33172D01*
X1767Y33157D01*
X1760Y33140D01*
X1754Y33118D01*
X1745Y33097D01*
X1737Y33072D01*
X1728Y33044D01*
X1720Y33014D01*
Y33012D01*
X1718Y33008D01*
X1716Y32999D01*
X1711Y32989D01*
X1707Y32976D01*
X1703Y32963D01*
X1690Y32929D01*
X1675Y32893D01*
X1658Y32855D01*
X1639Y32820D01*
X1620Y32791D01*
X1618Y32789D01*
X1609Y32780D01*
X1599Y32767D01*
X1582Y32750D01*
X1562Y32733D01*
X1539Y32714D01*
X1511Y32695D01*
X1479Y32678D01*
X1475Y32676D01*
X1465Y32671D01*
X1445Y32665D01*
X1422Y32659D01*
X1394Y32650D01*
X1362Y32644D01*
X1326Y32640D01*
X1290Y32637D01*
X1271D01*
X1247Y32640D01*
X1220Y32644D01*
X1188Y32650D01*
X1152Y32661D01*
X1115Y32674D01*
X1079Y32691D01*
X1077D01*
X1075Y32693D01*
X1064Y32701D01*
X1047Y32712D01*
X1026Y32729D01*
X1003Y32750D01*
X979Y32776D01*
X956Y32803D01*
X937Y32838D01*
Y32840D01*
X935Y32842D01*
X928Y32855D01*
X922Y32876D01*
X911Y32903D01*
X903Y32938D01*
X896Y32976D01*
X890Y33023D01*
X888Y33072D01*
Y33074D01*
Y33080D01*
Y33091D01*
X890Y33106D01*
X892Y33123D01*
X894Y33144D01*
X896Y33165D01*
X903Y33191D01*
X915Y33242D01*
X937Y33297D01*
X949Y33323D01*
X964Y33350D01*
X981Y33374D01*
X1003Y33397D01*
X1005Y33399D01*
X1007Y33402D01*
X1015Y33408D01*
X1024Y33416D01*
X1035Y33425D01*
X1049Y33436D01*
X1066Y33446D01*
X1086Y33457D01*
X1107Y33468D01*
X1130Y33480D01*
X1158Y33491D01*
X1186Y33499D01*
X1218Y33508D01*
X1250Y33514D01*
X1286Y33521D01*
X1324Y33523D01*
X1337Y33285D01*
X1333D01*
X1326Y33282D01*
X1318Y33280D01*
X1299Y33276D01*
X1273Y33270D01*
X1247Y33259D01*
X1220Y33248D01*
X1196Y33233D01*
X1175Y33214D01*
X1173Y33212D01*
X1169Y33206D01*
X1160Y33193D01*
X1152Y33176D01*
X1143Y33155D01*
X1135Y33129D01*
X1130Y33099D01*
X1128Y33065D01*
Y33061D01*
Y33050D01*
X1130Y33031D01*
X1132Y33010D01*
X1139Y32987D01*
X1145Y32963D01*
X1156Y32938D01*
X1169Y32916D01*
X1171Y32914D01*
X1175Y32908D01*
X1184Y32899D01*
X1196Y32891D01*
X1211Y32882D01*
X1228Y32874D01*
X1247Y32867D01*
X1269Y32865D01*
X1277D01*
X1288Y32867D01*
X1303Y32872D01*
X1318Y32876D01*
X1333Y32884D01*
X1350Y32897D01*
X1365Y32912D01*
X1367Y32914D01*
X1371Y32923D01*
X1379Y32935D01*
X1390Y32957D01*
X1396Y32972D01*
X1405Y32987D01*
X1411Y33004D01*
X1420Y33025D01*
X1428Y33046D01*
X1437Y33072D01*
X1445Y33099D01*
X1454Y33129D01*
Y33131D01*
X1456Y33138D01*
X1458Y33146D01*
X1462Y33159D01*
X1469Y33174D01*
X1473Y33191D01*
X1488Y33229D01*
X1505Y33272D01*
X1522Y33314D01*
X1543Y33355D01*
X1554Y33374D01*
X1565Y33389D01*
X1567Y33393D01*
X1575Y33402D01*
X1586Y33416D01*
X1603Y33436D01*
X1624Y33455D01*
X1650Y33476D01*
X1680Y33495D01*
X1711Y33512D01*
X1716Y33514D01*
X1728Y33519D01*
X1748Y33525D01*
X1773Y33534D01*
X1805Y33542D01*
X1843Y33548D01*
X1886Y33553D01*
X1933Y33555D01*
X1950D01*
X1965Y33553D01*
D02*
G37*
G36*
Y32452D02*
X1980Y32450D01*
X1999Y32448D01*
X2020Y32444D01*
X2041Y32439D01*
X2092Y32427D01*
X2146Y32405D01*
X2171Y32393D01*
X2197Y32376D01*
X2222Y32359D01*
X2248Y32337D01*
X2250Y32335D01*
X2254Y32331D01*
X2258Y32325D01*
X2267Y32316D01*
X2278Y32303D01*
X2288Y32288D01*
X2299Y32269D01*
X2310Y32250D01*
X2322Y32227D01*
X2333Y32199D01*
X2344Y32169D01*
X2354Y32137D01*
X2363Y32101D01*
X2367Y32063D01*
X2371Y32022D01*
X2373Y31978D01*
Y31975D01*
Y31973D01*
Y31967D01*
Y31958D01*
X2369Y31937D01*
X2365Y31909D01*
X2359Y31875D01*
X2348Y31837D01*
X2333Y31797D01*
X2312Y31754D01*
X2286Y31712D01*
X2252Y31669D01*
X2214Y31629D01*
X2190Y31609D01*
X2165Y31590D01*
X2137Y31573D01*
X2109Y31558D01*
X2078Y31543D01*
X2043Y31528D01*
X2005Y31518D01*
X1967Y31507D01*
X1924Y31501D01*
X1880Y31494D01*
X1852Y31726D01*
X1854D01*
X1865Y31729D01*
X1877Y31731D01*
X1895Y31735D01*
X1916Y31741D01*
X1939Y31750D01*
X1965Y31760D01*
X1990Y31773D01*
X2016Y31788D01*
X2041Y31805D01*
X2065Y31826D01*
X2086Y31852D01*
X2103Y31880D01*
X2116Y31909D01*
X2127Y31946D01*
X2129Y31984D01*
Y31986D01*
Y31988D01*
Y32001D01*
X2127Y32020D01*
X2122Y32046D01*
X2116Y32071D01*
X2105Y32099D01*
X2092Y32127D01*
X2073Y32152D01*
X2071Y32154D01*
X2063Y32163D01*
X2050Y32173D01*
X2035Y32184D01*
X2014Y32197D01*
X1990Y32205D01*
X1963Y32214D01*
X1933Y32216D01*
X1924D01*
X1916Y32214D01*
X1903D01*
X1877Y32205D01*
X1863Y32201D01*
X1850Y32193D01*
X1848D01*
X1843Y32188D01*
X1831Y32176D01*
X1822Y32167D01*
X1811Y32156D01*
X1803Y32141D01*
X1794Y32127D01*
X1792Y32124D01*
X1790Y32118D01*
X1784Y32103D01*
X1775Y32084D01*
X1771Y32071D01*
X1767Y32056D01*
X1760Y32039D01*
X1754Y32018D01*
X1745Y31997D01*
X1737Y31971D01*
X1728Y31944D01*
X1720Y31914D01*
Y31912D01*
X1718Y31907D01*
X1716Y31899D01*
X1711Y31888D01*
X1707Y31875D01*
X1703Y31863D01*
X1690Y31829D01*
X1675Y31792D01*
X1658Y31754D01*
X1639Y31720D01*
X1620Y31690D01*
X1618Y31688D01*
X1609Y31680D01*
X1599Y31667D01*
X1582Y31650D01*
X1562Y31633D01*
X1539Y31614D01*
X1511Y31594D01*
X1479Y31577D01*
X1475Y31575D01*
X1465Y31571D01*
X1445Y31565D01*
X1422Y31558D01*
X1394Y31550D01*
X1362Y31543D01*
X1326Y31539D01*
X1290Y31537D01*
X1271D01*
X1247Y31539D01*
X1220Y31543D01*
X1188Y31550D01*
X1152Y31560D01*
X1115Y31573D01*
X1079Y31590D01*
X1077D01*
X1075Y31592D01*
X1064Y31601D01*
X1047Y31611D01*
X1026Y31629D01*
X1003Y31650D01*
X979Y31675D01*
X956Y31703D01*
X937Y31737D01*
Y31739D01*
X935Y31741D01*
X928Y31754D01*
X922Y31775D01*
X911Y31803D01*
X903Y31837D01*
X896Y31875D01*
X890Y31922D01*
X888Y31971D01*
Y31973D01*
Y31980D01*
Y31990D01*
X890Y32005D01*
X892Y32022D01*
X894Y32044D01*
X896Y32065D01*
X903Y32090D01*
X915Y32141D01*
X937Y32197D01*
X949Y32222D01*
X964Y32250D01*
X981Y32273D01*
X1003Y32297D01*
X1005Y32299D01*
X1007Y32301D01*
X1015Y32308D01*
X1024Y32316D01*
X1035Y32325D01*
X1049Y32335D01*
X1066Y32346D01*
X1086Y32356D01*
X1107Y32367D01*
X1130Y32380D01*
X1158Y32391D01*
X1186Y32399D01*
X1218Y32408D01*
X1250Y32414D01*
X1286Y32420D01*
X1324Y32422D01*
X1337Y32184D01*
X1333D01*
X1326Y32182D01*
X1318Y32180D01*
X1299Y32176D01*
X1273Y32169D01*
X1247Y32159D01*
X1220Y32148D01*
X1196Y32133D01*
X1175Y32114D01*
X1173Y32112D01*
X1169Y32105D01*
X1160Y32093D01*
X1152Y32076D01*
X1143Y32054D01*
X1135Y32029D01*
X1130Y31999D01*
X1128Y31965D01*
Y31961D01*
Y31950D01*
X1130Y31931D01*
X1132Y31909D01*
X1139Y31886D01*
X1145Y31863D01*
X1156Y31837D01*
X1169Y31816D01*
X1171Y31814D01*
X1175Y31807D01*
X1184Y31799D01*
X1196Y31790D01*
X1211Y31782D01*
X1228Y31773D01*
X1247Y31767D01*
X1269Y31765D01*
X1277D01*
X1288Y31767D01*
X1303Y31771D01*
X1318Y31775D01*
X1333Y31784D01*
X1350Y31797D01*
X1365Y31812D01*
X1367Y31814D01*
X1371Y31822D01*
X1379Y31835D01*
X1390Y31856D01*
X1396Y31871D01*
X1405Y31886D01*
X1411Y31903D01*
X1420Y31924D01*
X1428Y31946D01*
X1437Y31971D01*
X1445Y31999D01*
X1454Y32029D01*
Y32031D01*
X1456Y32037D01*
X1458Y32046D01*
X1462Y32058D01*
X1469Y32073D01*
X1473Y32090D01*
X1488Y32129D01*
X1505Y32171D01*
X1522Y32214D01*
X1543Y32254D01*
X1554Y32273D01*
X1565Y32288D01*
X1567Y32293D01*
X1575Y32301D01*
X1586Y32316D01*
X1603Y32335D01*
X1624Y32354D01*
X1650Y32376D01*
X1680Y32395D01*
X1711Y32412D01*
X1716Y32414D01*
X1728Y32418D01*
X1748Y32425D01*
X1773Y32433D01*
X1805Y32442D01*
X1843Y32448D01*
X1886Y32452D01*
X1933Y32454D01*
X1950D01*
X1965Y32452D01*
D02*
G37*
G36*
X41843Y45000D02*
X41605D01*
Y46196D01*
X41138D01*
Y45000D01*
X40900D01*
Y46439D01*
X41843D01*
Y45000D01*
D02*
G37*
G36*
X45344D02*
X45087D01*
X44985Y45326D01*
X44508D01*
X44412Y45000D01*
X44159D01*
X44616Y46439D01*
X44870D01*
X45344Y45000D01*
D02*
G37*
G36*
X44127Y46196D02*
X43778D01*
Y45000D01*
X43539D01*
Y46196D01*
X43188D01*
Y46439D01*
X44127D01*
Y46196D01*
D02*
G37*
G36*
X6436Y9361D02*
X6473Y9360D01*
X6506Y9357D01*
X6521Y9355D01*
X6535Y9352D01*
X6548Y9350D01*
X6559Y9347D01*
X6561D01*
X6562Y9346D01*
X6572Y9342D01*
X6586Y9335D01*
X6605Y9325D01*
X6623Y9311D01*
X6645Y9292D01*
X6666Y9270D01*
X6686Y9242D01*
Y9240D01*
X6688Y9239D01*
X6691Y9234D01*
X6694Y9228D01*
X6699Y9220D01*
X6702Y9210D01*
X6707Y9199D01*
X6713Y9185D01*
X6723Y9155D01*
X6730Y9121D01*
X6737Y9080D01*
X6738Y9034D01*
Y9033D01*
Y9030D01*
Y9023D01*
Y9015D01*
X6737Y9006D01*
Y8993D01*
X6734Y8967D01*
X6727Y8937D01*
X6719Y8904D01*
X6708Y8872D01*
X6694Y8841D01*
Y8839D01*
X6693Y8838D01*
X6686Y8828D01*
X6677Y8814D01*
X6664Y8798D01*
X6649Y8781D01*
X6630Y8762D01*
X6608Y8747D01*
X6584Y8732D01*
X6581Y8731D01*
X6578Y8729D01*
X6572Y8728D01*
X6564Y8725D01*
X6556Y8723D01*
X6545Y8720D01*
X6532Y8717D01*
X6518Y8714D01*
X6501Y8710D01*
X6484Y8709D01*
X6463Y8706D01*
X6441Y8704D01*
X6416Y8703D01*
X6389Y8701D01*
X6246D01*
Y8300D01*
X6070D01*
Y9363D01*
X6405D01*
X6436Y9361D01*
D02*
G37*
G36*
X11823Y2237D02*
X11838D01*
X11875Y2235D01*
X11915Y2230D01*
X11955Y2222D01*
X11996Y2213D01*
X12030Y2201D01*
X12034Y2198D01*
X12045Y2194D01*
X12060Y2184D01*
X12081Y2171D01*
X12104Y2154D01*
X12132Y2132D01*
X12158Y2107D01*
X12185Y2077D01*
X12190Y2073D01*
X12198Y2062D01*
X12211Y2043D01*
X12226Y2015D01*
X12245Y1983D01*
X12264Y1945D01*
X12281Y1900D01*
X12298Y1849D01*
Y1847D01*
X12300Y1843D01*
X12302Y1834D01*
X12304Y1824D01*
X12307Y1811D01*
X12311Y1794D01*
X12315Y1775D01*
X12319Y1754D01*
X12321Y1730D01*
X12326Y1705D01*
X12330Y1677D01*
X12332Y1645D01*
X12336Y1579D01*
X12339Y1505D01*
Y1502D01*
Y1496D01*
Y1485D01*
Y1473D01*
X12336Y1458D01*
Y1439D01*
X12334Y1417D01*
Y1394D01*
X12328Y1343D01*
X12321Y1287D01*
X12311Y1232D01*
X12296Y1179D01*
Y1177D01*
X12294Y1172D01*
X12292Y1166D01*
X12287Y1155D01*
X12279Y1130D01*
X12266Y1100D01*
X12251Y1064D01*
X12232Y1028D01*
X12211Y992D01*
X12187Y960D01*
X12185Y955D01*
X12177Y947D01*
X12162Y932D01*
X12145Y915D01*
X12121Y896D01*
X12096Y877D01*
X12066Y857D01*
X12032Y840D01*
X12028Y838D01*
X12015Y834D01*
X11996Y828D01*
X11968Y821D01*
X11934Y813D01*
X11894Y806D01*
X11847Y802D01*
X11796Y800D01*
X11349D01*
Y2239D01*
X11811D01*
X11823Y2237D01*
D02*
G37*
G36*
X11102Y800D02*
X10861D01*
X10387Y1737D01*
Y800D01*
X10165D01*
Y2239D01*
X10395D01*
X10880Y1277D01*
Y2239D01*
X11102D01*
Y800D01*
D02*
G37*
G36*
X8111Y12015D02*
X8128Y12013D01*
X8149Y12011D01*
X8170Y12009D01*
X8196Y12002D01*
X8247Y11990D01*
X8302Y11968D01*
X8328Y11956D01*
X8356Y11941D01*
X8379Y11924D01*
X8402Y11902D01*
X8405Y11900D01*
X8407Y11898D01*
X8413Y11890D01*
X8422Y11881D01*
X8430Y11870D01*
X8441Y11856D01*
X8451Y11839D01*
X8462Y11819D01*
X8473Y11798D01*
X8485Y11775D01*
X8496Y11747D01*
X8505Y11719D01*
X8513Y11687D01*
X8520Y11655D01*
X8526Y11619D01*
X8528Y11581D01*
X8290Y11568D01*
Y11570D01*
Y11572D01*
X8288Y11579D01*
X8285Y11587D01*
X8281Y11607D01*
X8275Y11632D01*
X8264Y11658D01*
X8253Y11685D01*
X8239Y11709D01*
X8219Y11730D01*
X8217Y11732D01*
X8211Y11736D01*
X8198Y11745D01*
X8181Y11753D01*
X8160Y11762D01*
X8134Y11770D01*
X8104Y11775D01*
X8070Y11777D01*
X8056D01*
X8036Y11775D01*
X8015Y11773D01*
X7992Y11766D01*
X7968Y11760D01*
X7943Y11749D01*
X7921Y11736D01*
X7919Y11734D01*
X7913Y11730D01*
X7904Y11721D01*
X7896Y11709D01*
X7887Y11694D01*
X7879Y11677D01*
X7872Y11658D01*
X7870Y11636D01*
Y11634D01*
Y11628D01*
X7872Y11617D01*
X7877Y11602D01*
X7881Y11587D01*
X7889Y11572D01*
X7902Y11555D01*
X7917Y11541D01*
X7919Y11538D01*
X7928Y11534D01*
X7941Y11526D01*
X7962Y11515D01*
X7977Y11509D01*
X7992Y11500D01*
X8009Y11494D01*
X8030Y11485D01*
X8051Y11477D01*
X8077Y11468D01*
X8104Y11460D01*
X8134Y11451D01*
X8136D01*
X8143Y11449D01*
X8151Y11447D01*
X8164Y11443D01*
X8179Y11436D01*
X8196Y11432D01*
X8234Y11417D01*
X8277Y11400D01*
X8319Y11383D01*
X8360Y11362D01*
X8379Y11351D01*
X8394Y11340D01*
X8398Y11338D01*
X8407Y11330D01*
X8422Y11319D01*
X8441Y11302D01*
X8460Y11281D01*
X8481Y11255D01*
X8500Y11226D01*
X8517Y11194D01*
X8520Y11189D01*
X8524Y11177D01*
X8530Y11157D01*
X8539Y11132D01*
X8547Y11100D01*
X8554Y11062D01*
X8558Y11019D01*
X8560Y10972D01*
Y10970D01*
Y10964D01*
Y10955D01*
X8558Y10940D01*
X8556Y10925D01*
X8554Y10906D01*
X8549Y10885D01*
X8545Y10864D01*
X8532Y10813D01*
X8511Y10759D01*
X8498Y10734D01*
X8481Y10708D01*
X8464Y10683D01*
X8443Y10657D01*
X8441Y10655D01*
X8437Y10651D01*
X8430Y10647D01*
X8422Y10638D01*
X8409Y10627D01*
X8394Y10617D01*
X8375Y10606D01*
X8356Y10595D01*
X8332Y10583D01*
X8305Y10572D01*
X8275Y10561D01*
X8243Y10551D01*
X8207Y10542D01*
X8168Y10538D01*
X8128Y10534D01*
X8083Y10532D01*
X8064D01*
X8043Y10536D01*
X8015Y10540D01*
X7981Y10547D01*
X7943Y10557D01*
X7902Y10572D01*
X7860Y10593D01*
X7817Y10619D01*
X7775Y10653D01*
X7734Y10691D01*
X7715Y10715D01*
X7696Y10740D01*
X7679Y10768D01*
X7664Y10796D01*
X7649Y10827D01*
X7634Y10862D01*
X7623Y10900D01*
X7613Y10938D01*
X7606Y10981D01*
X7600Y11025D01*
X7832Y11053D01*
Y11051D01*
X7834Y11040D01*
X7836Y11028D01*
X7841Y11011D01*
X7847Y10989D01*
X7855Y10966D01*
X7866Y10940D01*
X7879Y10915D01*
X7894Y10889D01*
X7911Y10864D01*
X7932Y10840D01*
X7958Y10819D01*
X7985Y10802D01*
X8015Y10789D01*
X8051Y10779D01*
X8090Y10776D01*
X8107D01*
X8126Y10779D01*
X8151Y10783D01*
X8177Y10789D01*
X8205Y10800D01*
X8232Y10813D01*
X8258Y10832D01*
X8260Y10834D01*
X8268Y10842D01*
X8279Y10855D01*
X8290Y10870D01*
X8302Y10891D01*
X8311Y10915D01*
X8319Y10942D01*
X8322Y10972D01*
Y10974D01*
Y10981D01*
X8319Y10989D01*
Y11002D01*
X8311Y11028D01*
X8307Y11042D01*
X8298Y11055D01*
Y11057D01*
X8294Y11062D01*
X8281Y11074D01*
X8273Y11083D01*
X8262Y11094D01*
X8247Y11102D01*
X8232Y11111D01*
X8230Y11113D01*
X8224Y11115D01*
X8209Y11121D01*
X8190Y11130D01*
X8177Y11134D01*
X8162Y11138D01*
X8145Y11145D01*
X8124Y11151D01*
X8102Y11160D01*
X8077Y11168D01*
X8049Y11177D01*
X8019Y11185D01*
X8017D01*
X8013Y11187D01*
X8004Y11189D01*
X7994Y11194D01*
X7981Y11198D01*
X7968Y11202D01*
X7934Y11215D01*
X7898Y11230D01*
X7860Y11247D01*
X7826Y11266D01*
X7796Y11285D01*
X7794Y11287D01*
X7785Y11296D01*
X7772Y11306D01*
X7755Y11323D01*
X7738Y11343D01*
X7719Y11366D01*
X7700Y11394D01*
X7683Y11426D01*
X7681Y11430D01*
X7677Y11440D01*
X7670Y11460D01*
X7664Y11483D01*
X7655Y11511D01*
X7649Y11543D01*
X7645Y11579D01*
X7643Y11615D01*
Y11617D01*
Y11619D01*
Y11626D01*
Y11634D01*
X7645Y11658D01*
X7649Y11685D01*
X7655Y11717D01*
X7666Y11753D01*
X7679Y11790D01*
X7696Y11826D01*
Y11828D01*
X7698Y11830D01*
X7706Y11841D01*
X7717Y11858D01*
X7734Y11879D01*
X7755Y11902D01*
X7781Y11926D01*
X7809Y11949D01*
X7843Y11968D01*
X7845D01*
X7847Y11970D01*
X7860Y11977D01*
X7881Y11983D01*
X7909Y11994D01*
X7943Y12002D01*
X7981Y12009D01*
X8028Y12015D01*
X8077Y12017D01*
X8096D01*
X8111Y12015D01*
D02*
G37*
G36*
X48570Y600D02*
X48353D01*
Y1268D01*
X48000Y600D01*
X47782D01*
Y1643D01*
X48000D01*
Y987D01*
X48344Y1643D01*
X48570D01*
Y600D01*
D02*
G37*
G36*
X7730Y8300D02*
X7543D01*
X7369Y9094D01*
X7196Y8300D01*
X7004D01*
X6798Y9363D01*
X6977D01*
X7108Y8632D01*
X7267Y9363D01*
X7476D01*
X7630Y8619D01*
X7763Y9363D01*
X7941D01*
X7730Y8300D01*
D02*
G37*
G36*
X8439Y9361D02*
X8454D01*
X8483Y9360D01*
X8516Y9355D01*
X8549Y9350D01*
X8581Y9342D01*
X8595Y9338D01*
X8608Y9333D01*
X8611Y9331D01*
X8619Y9328D01*
X8630Y9320D01*
X8644Y9309D01*
X8660Y9297D01*
X8675Y9280D01*
X8693Y9259D01*
X8708Y9234D01*
X8710Y9231D01*
X8715Y9221D01*
X8721Y9206D01*
X8729Y9187D01*
X8735Y9162D01*
X8741Y9132D01*
X8746Y9100D01*
X8748Y9064D01*
Y9063D01*
Y9059D01*
Y9052D01*
X8746Y9044D01*
Y9033D01*
X8744Y9020D01*
X8740Y8992D01*
X8733Y8960D01*
X8722Y8927D01*
X8707Y8894D01*
X8686Y8863D01*
Y8861D01*
X8683Y8860D01*
X8675Y8850D01*
X8661Y8838D01*
X8642Y8824D01*
X8619Y8806D01*
X8589Y8791D01*
X8556Y8778D01*
X8516Y8769D01*
X8520Y8767D01*
X8526Y8761D01*
X8537Y8753D01*
X8549Y8742D01*
X8564Y8729D01*
X8579Y8714D01*
X8595Y8696D01*
X8609Y8679D01*
X8611Y8677D01*
X8616Y8669D01*
X8625Y8657D01*
X8636Y8640D01*
X8650Y8616D01*
X8658Y8602D01*
X8667Y8586D01*
X8677Y8569D01*
X8688Y8550D01*
X8699Y8528D01*
X8710Y8506D01*
X8817Y8300D01*
X8605D01*
X8479Y8531D01*
Y8533D01*
X8476Y8537D01*
X8472Y8544D01*
X8468Y8552D01*
X8461Y8561D01*
X8455Y8572D01*
X8441Y8597D01*
X8425Y8624D01*
X8410Y8651D01*
X8403Y8662D01*
X8395Y8671D01*
X8389Y8680D01*
X8384Y8687D01*
X8383Y8688D01*
X8380Y8691D01*
X8375Y8698D01*
X8369Y8704D01*
X8353Y8718D01*
X8344Y8726D01*
X8333Y8731D01*
X8331D01*
X8328Y8732D01*
X8322Y8736D01*
X8312Y8737D01*
X8300Y8740D01*
X8284Y8742D01*
X8266Y8743D01*
X8210D01*
Y8300D01*
X8034D01*
Y9363D01*
X8428D01*
X8439Y9361D01*
D02*
G37*
G36*
X44834Y600D02*
X44617D01*
Y1268D01*
X44264Y600D01*
X44047D01*
Y1643D01*
X44264D01*
Y987D01*
X44609Y1643D01*
X44834D01*
Y600D01*
D02*
G37*
G36*
X9457Y2260D02*
X9474Y2258D01*
X9495Y2256D01*
X9518Y2254D01*
X9542Y2250D01*
X9597Y2237D01*
X9652Y2218D01*
X9680Y2205D01*
X9708Y2190D01*
X9735Y2173D01*
X9759Y2154D01*
X9761Y2152D01*
X9765Y2149D01*
X9772Y2143D01*
X9780Y2135D01*
X9789Y2122D01*
X9801Y2109D01*
X9814Y2092D01*
X9827Y2073D01*
X9842Y2052D01*
X9855Y2028D01*
X9869Y2003D01*
X9882Y1975D01*
X9895Y1943D01*
X9908Y1911D01*
X9916Y1875D01*
X9925Y1837D01*
X9689Y1783D01*
Y1786D01*
X9686Y1788D01*
X9682Y1803D01*
X9676Y1822D01*
X9665Y1847D01*
X9652Y1873D01*
X9635Y1903D01*
X9614Y1930D01*
X9591Y1954D01*
X9588Y1956D01*
X9578Y1962D01*
X9563Y1973D01*
X9544Y1983D01*
X9518Y1994D01*
X9491Y2005D01*
X9459Y2011D01*
X9422Y2013D01*
X9408D01*
X9397Y2011D01*
X9384Y2009D01*
X9369Y2007D01*
X9335Y1998D01*
X9295Y1983D01*
X9254Y1962D01*
X9233Y1949D01*
X9214Y1934D01*
X9195Y1915D01*
X9176Y1894D01*
Y1892D01*
X9171Y1888D01*
X9167Y1881D01*
X9161Y1873D01*
X9154Y1860D01*
X9146Y1845D01*
X9137Y1826D01*
X9129Y1805D01*
X9120Y1781D01*
X9112Y1756D01*
X9103Y1726D01*
X9097Y1694D01*
X9090Y1658D01*
X9086Y1619D01*
X9084Y1579D01*
X9082Y1534D01*
Y1532D01*
Y1524D01*
Y1509D01*
X9084Y1492D01*
Y1470D01*
X9088Y1445D01*
X9090Y1417D01*
X9095Y1390D01*
X9107Y1326D01*
X9124Y1260D01*
X9150Y1196D01*
X9165Y1168D01*
X9182Y1141D01*
X9184Y1138D01*
X9186Y1136D01*
X9199Y1124D01*
X9218Y1104D01*
X9244Y1083D01*
X9278Y1062D01*
X9320Y1043D01*
X9367Y1030D01*
X9393Y1028D01*
X9420Y1026D01*
X9433D01*
X9446Y1028D01*
X9463Y1030D01*
X9484Y1034D01*
X9510Y1038D01*
X9535Y1047D01*
X9563Y1058D01*
X9567Y1060D01*
X9576Y1064D01*
X9591Y1070D01*
X9610Y1081D01*
X9629Y1094D01*
X9652Y1109D01*
X9676Y1126D01*
X9699Y1147D01*
Y1328D01*
X9427D01*
Y1571D01*
X9940D01*
Y998D01*
X9935Y994D01*
X9925Y983D01*
X9908Y966D01*
X9882Y945D01*
X9850Y919D01*
X9814Y894D01*
X9769Y866D01*
X9718Y840D01*
X9716D01*
X9712Y838D01*
X9703Y834D01*
X9695Y830D01*
X9680Y826D01*
X9665Y821D01*
X9629Y809D01*
X9586Y798D01*
X9537Y787D01*
X9486Y779D01*
X9433Y777D01*
X9416D01*
X9403Y779D01*
X9388D01*
X9371Y781D01*
X9350Y783D01*
X9329Y787D01*
X9282Y798D01*
X9229Y813D01*
X9176Y834D01*
X9124Y862D01*
X9122Y864D01*
X9118Y866D01*
X9112Y870D01*
X9103Y879D01*
X9078Y898D01*
X9048Y926D01*
X9014Y962D01*
X8978Y1006D01*
X8944Y1058D01*
X8912Y1117D01*
Y1119D01*
X8907Y1126D01*
X8905Y1134D01*
X8899Y1147D01*
X8895Y1164D01*
X8888Y1183D01*
X8880Y1207D01*
X8873Y1232D01*
X8867Y1260D01*
X8858Y1292D01*
X8852Y1324D01*
X8848Y1360D01*
X8839Y1436D01*
X8835Y1519D01*
Y1522D01*
Y1530D01*
Y1543D01*
X8837Y1560D01*
Y1579D01*
X8839Y1605D01*
X8841Y1630D01*
X8846Y1660D01*
X8854Y1724D01*
X8869Y1792D01*
X8888Y1860D01*
X8914Y1926D01*
Y1928D01*
X8918Y1934D01*
X8922Y1943D01*
X8929Y1954D01*
X8935Y1969D01*
X8946Y1983D01*
X8969Y2020D01*
X8999Y2062D01*
X9033Y2103D01*
X9073Y2143D01*
X9118Y2177D01*
X9120D01*
X9124Y2181D01*
X9131Y2186D01*
X9141Y2190D01*
X9152Y2196D01*
X9167Y2205D01*
X9184Y2211D01*
X9203Y2220D01*
X9248Y2235D01*
X9299Y2250D01*
X9356Y2258D01*
X9420Y2262D01*
X9442D01*
X9457Y2260D01*
D02*
G37*
G36*
X39071Y39839D02*
X38747Y39664D01*
X39071Y39489D01*
Y39300D01*
X38575Y39571D01*
X38118Y39325D01*
Y39509D01*
X38404Y39664D01*
X38118Y39819D01*
Y40002D01*
X38575Y39757D01*
X39071Y40027D01*
Y39839D01*
D02*
G37*
G36*
X49182Y3862D02*
X48756D01*
X48718Y3615D01*
X48722Y3617D01*
X48730Y3624D01*
X48745Y3630D01*
X48767Y3641D01*
X48790Y3649D01*
X48816Y3656D01*
X48843Y3662D01*
X48873Y3664D01*
X48886D01*
X48897Y3662D01*
X48909Y3660D01*
X48922Y3658D01*
X48956Y3651D01*
X48992Y3637D01*
X49033Y3617D01*
X49054Y3605D01*
X49073Y3590D01*
X49092Y3573D01*
X49111Y3554D01*
X49114Y3551D01*
X49118Y3547D01*
X49122Y3539D01*
X49131Y3528D01*
X49139Y3513D01*
X49150Y3496D01*
X49163Y3477D01*
X49173Y3456D01*
X49184Y3430D01*
X49197Y3402D01*
X49207Y3370D01*
X49216Y3339D01*
X49224Y3302D01*
X49231Y3266D01*
X49233Y3226D01*
X49235Y3183D01*
Y3181D01*
Y3175D01*
Y3164D01*
X49233Y3151D01*
Y3134D01*
X49229Y3115D01*
X49226Y3094D01*
X49222Y3068D01*
X49209Y3015D01*
X49190Y2955D01*
X49177Y2926D01*
X49165Y2896D01*
X49148Y2864D01*
X49129Y2834D01*
X49126Y2832D01*
X49124Y2828D01*
X49118Y2819D01*
X49109Y2809D01*
X49099Y2798D01*
X49086Y2785D01*
X49069Y2770D01*
X49052Y2755D01*
X49033Y2740D01*
X49009Y2726D01*
X48986Y2713D01*
X48958Y2702D01*
X48931Y2691D01*
X48899Y2683D01*
X48867Y2679D01*
X48831Y2677D01*
X48816D01*
X48805Y2679D01*
X48792D01*
X48775Y2683D01*
X48739Y2689D01*
X48699Y2702D01*
X48654Y2719D01*
X48611Y2745D01*
X48590Y2762D01*
X48569Y2779D01*
X48567Y2781D01*
X48564Y2783D01*
X48558Y2789D01*
X48552Y2798D01*
X48543Y2809D01*
X48535Y2821D01*
X48524Y2836D01*
X48513Y2853D01*
X48503Y2872D01*
X48492Y2896D01*
X48481Y2919D01*
X48471Y2945D01*
X48462Y2972D01*
X48454Y3004D01*
X48443Y3070D01*
X48669Y3100D01*
Y3096D01*
X48671Y3085D01*
X48675Y3066D01*
X48679Y3045D01*
X48686Y3021D01*
X48696Y2998D01*
X48709Y2972D01*
X48726Y2951D01*
X48728Y2949D01*
X48735Y2943D01*
X48745Y2934D01*
X48758Y2926D01*
X48773Y2915D01*
X48792Y2906D01*
X48811Y2900D01*
X48833Y2898D01*
X48835D01*
X48845Y2900D01*
X48858Y2902D01*
X48873Y2906D01*
X48892Y2915D01*
X48914Y2928D01*
X48933Y2943D01*
X48952Y2966D01*
X48954Y2970D01*
X48960Y2979D01*
X48969Y2996D01*
X48977Y3017D01*
X48986Y3047D01*
X48994Y3083D01*
X49001Y3128D01*
X49003Y3177D01*
Y3179D01*
Y3183D01*
Y3190D01*
Y3200D01*
X49001Y3224D01*
X48997Y3253D01*
X48990Y3285D01*
X48982Y3319D01*
X48969Y3349D01*
X48952Y3377D01*
X48950Y3379D01*
X48943Y3388D01*
X48933Y3398D01*
X48918Y3411D01*
X48901Y3422D01*
X48877Y3432D01*
X48854Y3441D01*
X48826Y3443D01*
X48822D01*
X48809Y3441D01*
X48792Y3436D01*
X48769Y3430D01*
X48741Y3417D01*
X48711Y3398D01*
X48696Y3388D01*
X48682Y3373D01*
X48667Y3358D01*
X48652Y3339D01*
X48469Y3370D01*
X48584Y4120D01*
X49182D01*
Y3862D01*
D02*
G37*
G36*
X49536Y600D02*
X49309D01*
Y1034D01*
X49260D01*
X49249Y1032D01*
X49234Y1030D01*
X49217Y1026D01*
X49200Y1019D01*
X49183Y1011D01*
X49166Y1000D01*
X49164Y998D01*
X49160Y994D01*
X49151Y985D01*
X49143Y975D01*
X49130Y960D01*
X49117Y941D01*
X49104Y917D01*
X49089Y889D01*
X48940Y600D01*
X48679D01*
X48838Y900D01*
Y902D01*
X48840Y907D01*
X48845Y913D01*
X48849Y921D01*
X48864Y943D01*
X48879Y968D01*
X48898Y994D01*
X48919Y1019D01*
X48943Y1038D01*
X48953Y1047D01*
X48964Y1051D01*
X48960D01*
X48947Y1053D01*
X48930Y1060D01*
X48906Y1066D01*
X48883Y1079D01*
X48855Y1094D01*
X48832Y1115D01*
X48808Y1143D01*
X48806Y1147D01*
X48800Y1158D01*
X48791Y1175D01*
X48781Y1198D01*
X48770Y1228D01*
X48762Y1262D01*
X48755Y1302D01*
X48753Y1345D01*
Y1347D01*
Y1351D01*
Y1360D01*
X48755Y1371D01*
Y1383D01*
X48757Y1398D01*
X48762Y1430D01*
X48772Y1468D01*
X48785Y1505D01*
X48802Y1541D01*
X48828Y1571D01*
X48832Y1573D01*
X48842Y1581D01*
X48862Y1594D01*
X48887Y1607D01*
X48921Y1620D01*
X48962Y1632D01*
X49013Y1641D01*
X49070Y1643D01*
X49536D01*
Y600D01*
D02*
G37*
G36*
X38879Y40514D02*
X39071D01*
Y40369D01*
X38879D01*
Y40049D01*
X38720D01*
X38115Y40387D01*
Y40514D01*
X38719D01*
Y40611D01*
X38879D01*
Y40514D01*
D02*
G37*
G36*
X7910Y39853D02*
Y39850D01*
Y39844D01*
Y39834D01*
Y39821D01*
Y39806D01*
X7908Y39788D01*
Y39768D01*
X7907Y39745D01*
X7904Y39700D01*
X7901Y39655D01*
X7898Y39633D01*
X7895Y39611D01*
X7893Y39592D01*
X7888Y39575D01*
Y39573D01*
X7887Y39571D01*
X7886Y39566D01*
X7884Y39561D01*
X7878Y39545D01*
X7869Y39525D01*
X7856Y39504D01*
X7840Y39480D01*
X7821Y39458D01*
X7795Y39437D01*
X7794D01*
X7792Y39434D01*
X7788Y39432D01*
X7783Y39428D01*
X7776Y39424D01*
X7767Y39420D01*
X7756Y39416D01*
X7745Y39411D01*
X7718Y39401D01*
X7685Y39393D01*
X7649Y39387D01*
X7606Y39384D01*
X7595D01*
X7587Y39386D01*
X7575D01*
X7564Y39387D01*
X7536Y39390D01*
X7506Y39396D01*
X7474Y39403D01*
X7443Y39414D01*
X7415Y39428D01*
X7413D01*
X7412Y39430D01*
X7403Y39437D01*
X7391Y39447D01*
X7377Y39461D01*
X7360Y39478D01*
X7343Y39499D01*
X7327Y39523D01*
X7315Y39551D01*
Y39552D01*
X7313Y39555D01*
X7312Y39559D01*
X7310Y39566D01*
X7308Y39576D01*
X7305Y39587D01*
X7302Y39602D01*
X7301Y39617D01*
X7298Y39637D01*
X7295Y39658D01*
X7292Y39682D01*
X7289Y39709D01*
X7288Y39738D01*
X7286Y39771D01*
X7285Y39806D01*
Y39844D01*
Y40353D01*
X7443D01*
Y39837D01*
Y39836D01*
Y39831D01*
Y39826D01*
Y39817D01*
Y39809D01*
Y39798D01*
X7444Y39772D01*
Y39747D01*
X7446Y39720D01*
X7447Y39697D01*
Y39689D01*
X7449Y39681D01*
Y39678D01*
X7451Y39671D01*
X7454Y39659D01*
X7458Y39645D01*
X7465Y39628D01*
X7474Y39613D01*
X7484Y39597D01*
X7498Y39583D01*
X7499Y39582D01*
X7505Y39578D01*
X7513Y39572D01*
X7526Y39566D01*
X7540Y39561D01*
X7558Y39555D01*
X7580Y39551D01*
X7602Y39549D01*
X7612D01*
X7622Y39551D01*
X7635Y39552D01*
X7649Y39555D01*
X7663Y39559D01*
X7677Y39565D01*
X7691Y39573D01*
X7692Y39575D01*
X7697Y39578D01*
X7702Y39583D01*
X7709Y39590D01*
X7718Y39600D01*
X7725Y39611D01*
X7732Y39624D01*
X7738Y39640D01*
Y39642D01*
X7740Y39648D01*
Y39654D01*
X7742Y39661D01*
X7743Y39669D01*
X7745Y39679D01*
X7746Y39690D01*
X7747Y39704D01*
X7749Y39720D01*
Y39737D01*
X7750Y39755D01*
X7752Y39776D01*
Y39800D01*
Y39826D01*
Y40353D01*
X7910D01*
Y39853D01*
D02*
G37*
G36*
X8427Y39400D02*
X8276D01*
Y40089D01*
X8275Y40088D01*
X8272Y40085D01*
X8268Y40081D01*
X8261Y40074D01*
X8253Y40067D01*
X8244Y40057D01*
X8232Y40047D01*
X8220Y40037D01*
X8191Y40015D01*
X8159Y39991D01*
X8121Y39970D01*
X8081Y39951D01*
Y40118D01*
X8083D01*
X8084Y40119D01*
X8093Y40122D01*
X8104Y40129D01*
X8121Y40137D01*
X8141Y40150D01*
X8162Y40165D01*
X8186Y40184D01*
X8211Y40206D01*
X8213Y40208D01*
X8214Y40209D01*
X8222Y40218D01*
X8234Y40232D01*
X8248Y40250D01*
X8263Y40271D01*
X8279Y40297D01*
X8293Y40325D01*
X8304Y40356D01*
X8427D01*
Y39400D01*
D02*
G37*
G36*
X39982Y48215D02*
X40252Y47719D01*
X40064D01*
X39889Y48043D01*
X39714Y47719D01*
X39525D01*
X39796Y48215D01*
X39550Y48672D01*
X39734D01*
X39889Y48386D01*
X40044Y48672D01*
X40227D01*
X39982Y48215D01*
D02*
G37*
G36*
X40685Y47719D02*
X40534D01*
Y48408D01*
X40533Y48407D01*
X40530Y48404D01*
X40526Y48400D01*
X40519Y48393D01*
X40512Y48386D01*
X40502Y48376D01*
X40491Y48366D01*
X40478Y48356D01*
X40450Y48334D01*
X40417Y48310D01*
X40379Y48289D01*
X40340Y48270D01*
Y48437D01*
X40341D01*
X40343Y48438D01*
X40351Y48441D01*
X40362Y48448D01*
X40379Y48456D01*
X40399Y48469D01*
X40420Y48484D01*
X40444Y48503D01*
X40470Y48525D01*
X40471Y48527D01*
X40472Y48528D01*
X40481Y48537D01*
X40492Y48551D01*
X40506Y48569D01*
X40522Y48590D01*
X40537Y48616D01*
X40551Y48644D01*
X40563Y48675D01*
X40685D01*
Y47719D01*
D02*
G37*
%LPC*%
G36*
X3476Y27628D02*
X3363D01*
X3337Y27626D01*
X3308D01*
X3276Y27624D01*
X3242D01*
X3171Y27617D01*
X3135Y27615D01*
X3103Y27611D01*
X3071Y27607D01*
X3044Y27600D01*
X3020Y27594D01*
X3001Y27587D01*
X2997Y27585D01*
X2986Y27581D01*
X2973Y27573D01*
X2956Y27560D01*
X2939Y27545D01*
X2927Y27528D01*
X2916Y27507D01*
X2912Y27483D01*
Y27481D01*
X2914Y27472D01*
X2916Y27460D01*
X2922Y27445D01*
X2933Y27428D01*
X2950Y27409D01*
X2971Y27392D01*
X3001Y27377D01*
X3005Y27375D01*
X3012Y27372D01*
X3020Y27370D01*
X3031Y27368D01*
X3046Y27364D01*
X3065Y27362D01*
X3086Y27358D01*
X3112Y27353D01*
X3142Y27351D01*
X3176Y27347D01*
X3214Y27345D01*
X3257Y27343D01*
X3303Y27341D01*
X3357Y27338D01*
X3469D01*
X3495Y27341D01*
X3525D01*
X3557Y27343D01*
X3591D01*
X3661Y27347D01*
X3697Y27351D01*
X3729Y27355D01*
X3761Y27360D01*
X3789Y27364D01*
X3812Y27370D01*
X3831Y27377D01*
X3836Y27379D01*
X3844Y27383D01*
X3859Y27392D01*
X3874Y27404D01*
X3891Y27419D01*
X3906Y27438D01*
X3914Y27460D01*
X3919Y27483D01*
Y27485D01*
X3916Y27494D01*
X3914Y27507D01*
X3908Y27521D01*
X3897Y27538D01*
X3882Y27556D01*
X3861Y27573D01*
X3831Y27587D01*
X3829D01*
X3827Y27590D01*
X3821Y27592D01*
X3812Y27594D01*
X3801Y27596D01*
X3787Y27600D01*
X3767Y27604D01*
X3746Y27609D01*
X3721Y27611D01*
X3691Y27615D01*
X3657Y27619D01*
X3618Y27621D01*
X3576Y27624D01*
X3529Y27626D01*
X3476Y27628D01*
D02*
G37*
G36*
X55033Y15746D02*
X55005D01*
X54991Y15743D01*
X54975Y15741D01*
X54938Y15736D01*
X54897Y15730D01*
X54853Y15716D01*
X54813Y15699D01*
X54776Y15676D01*
X54772Y15674D01*
X54762Y15665D01*
X54748Y15651D01*
X54730Y15632D01*
X54714Y15607D01*
X54700Y15581D01*
X54691Y15549D01*
X54686Y15517D01*
Y15512D01*
X54688Y15500D01*
X54691Y15484D01*
X54698Y15461D01*
X54707Y15436D01*
X54723Y15408D01*
X54746Y15380D01*
X54776Y15355D01*
X54781Y15352D01*
X54792Y15345D01*
X54813Y15334D01*
X54841Y15322D01*
X54878Y15311D01*
X54922Y15299D01*
X54973Y15292D01*
X55033Y15290D01*
X55061D01*
X55077Y15292D01*
X55093Y15295D01*
X55130Y15299D01*
X55174Y15306D01*
X55216Y15318D01*
X55258Y15334D01*
X55295Y15357D01*
X55299Y15359D01*
X55308Y15369D01*
X55322Y15382D01*
X55336Y15403D01*
X55352Y15426D01*
X55366Y15454D01*
X55376Y15484D01*
X55380Y15519D01*
Y15524D01*
X55378Y15535D01*
X55376Y15551D01*
X55369Y15575D01*
X55359Y15598D01*
X55343Y15625D01*
X55322Y15653D01*
X55292Y15679D01*
X55288Y15681D01*
X55276Y15690D01*
X55255Y15699D01*
X55227Y15713D01*
X55190Y15725D01*
X55146Y15736D01*
X55093Y15743D01*
X55033Y15746D01*
D02*
G37*
G36*
X54936Y12960D02*
X54924D01*
X54915Y12957D01*
X54890Y12955D01*
X54862Y12951D01*
X54829Y12944D01*
X54797Y12934D01*
X54765Y12920D01*
X54737Y12902D01*
X54735Y12900D01*
X54725Y12893D01*
X54716Y12881D01*
X54702Y12867D01*
X54691Y12846D01*
X54679Y12826D01*
X54672Y12802D01*
X54670Y12775D01*
Y12772D01*
Y12761D01*
X54674Y12747D01*
X54679Y12728D01*
X54688Y12708D01*
X54700Y12687D01*
X54718Y12664D01*
X54742Y12643D01*
X54744Y12640D01*
X54753Y12634D01*
X54769Y12627D01*
X54792Y12617D01*
X54820Y12606D01*
X54853Y12599D01*
X54892Y12592D01*
X54936Y12590D01*
Y12960D01*
D02*
G37*
G36*
X55133Y17000D02*
X55119D01*
X55105Y16998D01*
X55089Y16995D01*
X55068Y16991D01*
X55047Y16986D01*
X55026Y16977D01*
X55008Y16965D01*
X55005Y16963D01*
X54998Y16958D01*
X54991Y16951D01*
X54980Y16942D01*
X54968Y16930D01*
X54957Y16917D01*
X54947Y16898D01*
X54938Y16880D01*
Y16877D01*
X54936Y16868D01*
X54931Y16854D01*
X54927Y16833D01*
X54924Y16803D01*
X54920Y16764D01*
Y16743D01*
X54917Y16718D01*
Y16690D01*
Y16660D01*
Y16451D01*
X55336D01*
Y16690D01*
Y16692D01*
Y16697D01*
Y16704D01*
Y16715D01*
Y16743D01*
X55334Y16773D01*
X55332Y16808D01*
X55329Y16840D01*
X55325Y16870D01*
X55322Y16882D01*
X55320Y16891D01*
Y16893D01*
X55318Y16898D01*
X55313Y16907D01*
X55306Y16919D01*
X55297Y16930D01*
X55285Y16942D01*
X55271Y16956D01*
X55255Y16968D01*
X55253Y16970D01*
X55246Y16972D01*
X55237Y16977D01*
X55221Y16984D01*
X55204Y16991D01*
X55183Y16995D01*
X55158Y16998D01*
X55133Y17000D01*
D02*
G37*
G36*
X54473Y16954D02*
X54462D01*
X54450Y16951D01*
X54434Y16949D01*
X54399Y16940D01*
X54381Y16933D01*
X54364Y16921D01*
X54362Y16919D01*
X54357Y16917D01*
X54350Y16910D01*
X54341Y16900D01*
X54323Y16877D01*
X54313Y16863D01*
X54309Y16847D01*
Y16845D01*
X54307Y16838D01*
X54304Y16824D01*
Y16812D01*
X54302Y16801D01*
Y16787D01*
Y16769D01*
X54300Y16748D01*
Y16725D01*
X54297Y16699D01*
Y16669D01*
Y16637D01*
Y16600D01*
Y16451D01*
X54656D01*
Y16620D01*
Y16623D01*
Y16627D01*
Y16634D01*
Y16646D01*
Y16671D01*
Y16704D01*
X54654Y16736D01*
Y16766D01*
Y16794D01*
X54651Y16803D01*
Y16812D01*
Y16815D01*
X54649Y16824D01*
X54647Y16836D01*
X54642Y16850D01*
X54635Y16866D01*
X54626Y16882D01*
X54612Y16900D01*
X54598Y16914D01*
X54596Y16917D01*
X54589Y16921D01*
X54580Y16926D01*
X54566Y16935D01*
X54547Y16942D01*
X54526Y16947D01*
X54501Y16951D01*
X54473Y16954D01*
D02*
G37*
G36*
X55038Y20878D02*
X55005D01*
X54989Y20876D01*
X54971D01*
X54929Y20871D01*
X54885Y20864D01*
X54836Y20853D01*
X54795Y20839D01*
X54774Y20829D01*
X54758Y20820D01*
X54753Y20818D01*
X54744Y20811D01*
X54730Y20797D01*
X54714Y20781D01*
X54698Y20760D01*
X54684Y20735D01*
X54674Y20707D01*
X54670Y20674D01*
Y20670D01*
X54672Y20661D01*
X54674Y20644D01*
X54681Y20624D01*
X54691Y20600D01*
X54707Y20577D01*
X54728Y20552D01*
X54755Y20529D01*
X54760Y20526D01*
X54772Y20519D01*
X54792Y20510D01*
X54820Y20501D01*
X54855Y20489D01*
X54899Y20480D01*
X54950Y20473D01*
X55010Y20471D01*
X55035D01*
X55063Y20473D01*
X55098D01*
X55135Y20478D01*
X55172Y20482D01*
X55209Y20487D01*
X55241Y20496D01*
X55244Y20499D01*
X55253Y20501D01*
X55267Y20508D01*
X55283Y20515D01*
X55320Y20538D01*
X55336Y20554D01*
X55352Y20570D01*
X55355Y20573D01*
X55357Y20580D01*
X55364Y20589D01*
X55371Y20603D01*
X55378Y20619D01*
X55382Y20637D01*
X55387Y20658D01*
X55389Y20679D01*
Y20684D01*
X55387Y20693D01*
X55385Y20707D01*
X55378Y20728D01*
X55369Y20748D01*
X55352Y20772D01*
X55332Y20795D01*
X55304Y20818D01*
X55299Y20820D01*
X55288Y20827D01*
X55267Y20836D01*
X55237Y20848D01*
X55200Y20860D01*
X55153Y20869D01*
X55100Y20876D01*
X55038Y20878D01*
D02*
G37*
G36*
X55033Y18134D02*
X55005D01*
X54991Y18131D01*
X54975Y18129D01*
X54938Y18124D01*
X54897Y18118D01*
X54853Y18104D01*
X54813Y18087D01*
X54776Y18064D01*
X54772Y18062D01*
X54762Y18053D01*
X54748Y18039D01*
X54730Y18020D01*
X54714Y17995D01*
X54700Y17969D01*
X54691Y17937D01*
X54686Y17905D01*
Y17900D01*
X54688Y17888D01*
X54691Y17872D01*
X54698Y17849D01*
X54707Y17824D01*
X54723Y17796D01*
X54746Y17768D01*
X54776Y17743D01*
X54781Y17740D01*
X54792Y17733D01*
X54813Y17722D01*
X54841Y17710D01*
X54878Y17699D01*
X54922Y17687D01*
X54973Y17680D01*
X55033Y17678D01*
X55061D01*
X55077Y17680D01*
X55093Y17683D01*
X55130Y17687D01*
X55174Y17694D01*
X55216Y17706D01*
X55258Y17722D01*
X55295Y17745D01*
X55299Y17747D01*
X55308Y17757D01*
X55322Y17770D01*
X55336Y17791D01*
X55352Y17814D01*
X55366Y17842D01*
X55376Y17872D01*
X55380Y17907D01*
Y17912D01*
X55378Y17923D01*
X55376Y17939D01*
X55369Y17962D01*
X55359Y17986D01*
X55343Y18013D01*
X55322Y18041D01*
X55292Y18067D01*
X55288Y18069D01*
X55276Y18078D01*
X55255Y18087D01*
X55227Y18101D01*
X55190Y18113D01*
X55146Y18124D01*
X55093Y18131D01*
X55033Y18134D01*
D02*
G37*
G36*
X55160Y19094D02*
X55054D01*
Y19092D01*
X55059Y19085D01*
X55061Y19073D01*
X55068Y19057D01*
X55075Y19036D01*
X55082Y19011D01*
X55091Y18981D01*
X55100Y18946D01*
Y18944D01*
X55103Y18941D01*
X55105Y18927D01*
X55112Y18909D01*
X55119Y18886D01*
X55130Y18860D01*
X55142Y18835D01*
X55153Y18814D01*
X55167Y18798D01*
X55170Y18796D01*
X55174Y18793D01*
X55181Y18786D01*
X55193Y18782D01*
X55207Y18775D01*
X55223Y18768D01*
X55241Y18765D01*
X55262Y18763D01*
X55274D01*
X55285Y18765D01*
X55299Y18768D01*
X55318Y18772D01*
X55336Y18779D01*
X55352Y18789D01*
X55371Y18800D01*
X55373Y18802D01*
X55378Y18807D01*
X55385Y18816D01*
X55392Y18828D01*
X55401Y18842D01*
X55408Y18858D01*
X55413Y18879D01*
X55415Y18900D01*
Y18902D01*
Y18909D01*
X55413Y18918D01*
X55410Y18932D01*
X55406Y18946D01*
X55401Y18964D01*
X55392Y18983D01*
X55380Y19001D01*
X55378Y19004D01*
X55373Y19011D01*
X55366Y19018D01*
X55355Y19029D01*
X55329Y19052D01*
X55313Y19064D01*
X55295Y19073D01*
X55292D01*
X55285Y19076D01*
X55271Y19080D01*
X55253Y19085D01*
X55230Y19087D01*
X55197Y19092D01*
X55160Y19094D01*
D02*
G37*
G36*
X10328Y3913D02*
X10326D01*
X10318Y3911D01*
X10305Y3909D01*
X10290Y3903D01*
X10273Y3892D01*
X10254Y3875D01*
X10237Y3854D01*
X10222Y3824D01*
X10220Y3820D01*
X10218Y3813D01*
X10215Y3805D01*
X10213Y3794D01*
X10209Y3779D01*
X10207Y3760D01*
X10203Y3739D01*
X10198Y3713D01*
X10196Y3683D01*
X10192Y3649D01*
X10190Y3611D01*
X10188Y3568D01*
X10186Y3522D01*
X10184Y3468D01*
Y3409D01*
Y3405D01*
Y3394D01*
Y3379D01*
Y3356D01*
X10186Y3330D01*
Y3300D01*
X10188Y3268D01*
Y3234D01*
X10192Y3164D01*
X10196Y3128D01*
X10201Y3096D01*
X10205Y3064D01*
X10209Y3036D01*
X10215Y3013D01*
X10222Y2994D01*
X10224Y2989D01*
X10228Y2981D01*
X10237Y2966D01*
X10250Y2951D01*
X10264Y2934D01*
X10284Y2919D01*
X10305Y2911D01*
X10328Y2906D01*
X10330D01*
X10339Y2909D01*
X10352Y2911D01*
X10367Y2917D01*
X10384Y2928D01*
X10401Y2943D01*
X10418Y2964D01*
X10433Y2994D01*
Y2996D01*
X10435Y2998D01*
X10437Y3004D01*
X10439Y3013D01*
X10441Y3024D01*
X10445Y3038D01*
X10450Y3058D01*
X10454Y3079D01*
X10456Y3104D01*
X10460Y3134D01*
X10465Y3168D01*
X10467Y3207D01*
X10469Y3249D01*
X10471Y3296D01*
X10473Y3349D01*
Y3409D01*
Y3413D01*
Y3424D01*
Y3441D01*
Y3462D01*
X10471Y3488D01*
Y3517D01*
X10469Y3549D01*
Y3583D01*
X10462Y3654D01*
X10460Y3690D01*
X10456Y3722D01*
X10452Y3754D01*
X10445Y3781D01*
X10439Y3805D01*
X10433Y3824D01*
X10430Y3828D01*
X10426Y3839D01*
X10418Y3852D01*
X10405Y3869D01*
X10390Y3886D01*
X10373Y3898D01*
X10352Y3909D01*
X10328Y3913D01*
D02*
G37*
G36*
X33168D02*
X33158D01*
X33145Y3911D01*
X33132Y3907D01*
X33115Y3898D01*
X33096Y3888D01*
X33079Y3873D01*
X33062Y3854D01*
X33060Y3852D01*
X33055Y3843D01*
X33049Y3828D01*
X33043Y3807D01*
X33034Y3779D01*
X33028Y3745D01*
X33023Y3705D01*
X33021Y3656D01*
Y3654D01*
Y3649D01*
Y3643D01*
Y3632D01*
X33023Y3609D01*
X33028Y3579D01*
X33032Y3545D01*
X33041Y3513D01*
X33051Y3481D01*
X33066Y3454D01*
X33068Y3451D01*
X33075Y3443D01*
X33085Y3434D01*
X33098Y3422D01*
X33115Y3411D01*
X33134Y3400D01*
X33155Y3392D01*
X33179Y3390D01*
X33190D01*
X33202Y3394D01*
X33217Y3398D01*
X33234Y3405D01*
X33253Y3415D01*
X33270Y3430D01*
X33290Y3449D01*
X33292Y3451D01*
X33296Y3460D01*
X33304Y3475D01*
X33313Y3496D01*
X33321Y3522D01*
X33330Y3554D01*
X33334Y3592D01*
X33336Y3634D01*
Y3637D01*
Y3641D01*
Y3647D01*
Y3656D01*
X33334Y3681D01*
X33330Y3711D01*
X33324Y3743D01*
X33313Y3779D01*
X33300Y3811D01*
X33283Y3841D01*
X33281Y3843D01*
X33275Y3852D01*
X33264Y3864D01*
X33249Y3877D01*
X33232Y3890D01*
X33213Y3903D01*
X33192Y3911D01*
X33168Y3913D01*
D02*
G37*
G36*
X30745Y3924D02*
X30735D01*
X30724Y3922D01*
X30709Y3918D01*
X30694Y3913D01*
X30677Y3905D01*
X30660Y3892D01*
X30643Y3877D01*
X30641Y3875D01*
X30637Y3869D01*
X30630Y3858D01*
X30624Y3845D01*
X30618Y3828D01*
X30611Y3807D01*
X30607Y3781D01*
X30605Y3754D01*
Y3749D01*
Y3739D01*
X30607Y3724D01*
X30609Y3705D01*
X30613Y3685D01*
X30622Y3662D01*
X30630Y3643D01*
X30643Y3624D01*
X30645Y3622D01*
X30649Y3617D01*
X30658Y3611D01*
X30671Y3602D01*
X30684Y3594D01*
X30701Y3588D01*
X30722Y3583D01*
X30743Y3581D01*
X30754D01*
X30764Y3583D01*
X30777Y3588D01*
X30794Y3592D01*
X30811Y3598D01*
X30828Y3609D01*
X30843Y3624D01*
X30845Y3626D01*
X30850Y3632D01*
X30856Y3643D01*
X30864Y3658D01*
X30871Y3675D01*
X30877Y3698D01*
X30881Y3724D01*
X30884Y3754D01*
Y3758D01*
Y3766D01*
X30881Y3781D01*
X30879Y3800D01*
X30873Y3820D01*
X30867Y3841D01*
X30856Y3860D01*
X30843Y3879D01*
X30841Y3881D01*
X30837Y3886D01*
X30828Y3894D01*
X30818Y3903D01*
X30803Y3909D01*
X30786Y3918D01*
X30767Y3922D01*
X30745Y3924D01*
D02*
G37*
G36*
X30743Y3360D02*
X30732D01*
X30720Y3358D01*
X30703Y3351D01*
X30686Y3345D01*
X30667Y3334D01*
X30647Y3319D01*
X30628Y3298D01*
X30626Y3296D01*
X30622Y3287D01*
X30613Y3275D01*
X30605Y3256D01*
X30596Y3232D01*
X30588Y3207D01*
X30583Y3175D01*
X30581Y3138D01*
Y3136D01*
Y3134D01*
Y3128D01*
Y3119D01*
X30583Y3098D01*
X30588Y3072D01*
X30592Y3043D01*
X30601Y3013D01*
X30613Y2985D01*
X30628Y2960D01*
X30630Y2958D01*
X30637Y2951D01*
X30647Y2941D01*
X30662Y2930D01*
X30679Y2917D01*
X30698Y2909D01*
X30722Y2900D01*
X30747Y2898D01*
X30758D01*
X30771Y2902D01*
X30788Y2906D01*
X30805Y2913D01*
X30824Y2923D01*
X30843Y2938D01*
X30862Y2958D01*
X30864Y2960D01*
X30869Y2968D01*
X30877Y2983D01*
X30886Y3002D01*
X30894Y3028D01*
X30903Y3058D01*
X30907Y3094D01*
X30909Y3136D01*
Y3138D01*
Y3141D01*
Y3153D01*
X30907Y3173D01*
X30903Y3196D01*
X30896Y3221D01*
X30888Y3247D01*
X30877Y3275D01*
X30860Y3298D01*
X30858Y3300D01*
X30852Y3309D01*
X30841Y3317D01*
X30828Y3330D01*
X30811Y3341D01*
X30792Y3351D01*
X30769Y3358D01*
X30743Y3360D01*
D02*
G37*
G36*
X20503Y3698D02*
X20231Y3209D01*
X20503D01*
Y3698D01*
D02*
G37*
G36*
X25611Y3428D02*
X25600D01*
X25587Y3426D01*
X25572Y3419D01*
X25555Y3413D01*
X25536Y3402D01*
X25517Y3388D01*
X25500Y3366D01*
X25498Y3364D01*
X25494Y3356D01*
X25485Y3341D01*
X25479Y3319D01*
X25470Y3294D01*
X25462Y3264D01*
X25458Y3226D01*
X25455Y3183D01*
Y3181D01*
Y3177D01*
Y3170D01*
Y3162D01*
X25458Y3136D01*
X25462Y3107D01*
X25468Y3075D01*
X25477Y3041D01*
X25487Y3007D01*
X25504Y2977D01*
X25507Y2975D01*
X25513Y2966D01*
X25524Y2955D01*
X25538Y2943D01*
X25555Y2928D01*
X25575Y2917D01*
X25598Y2909D01*
X25621Y2906D01*
X25632D01*
X25643Y2909D01*
X25658Y2913D01*
X25675Y2921D01*
X25692Y2930D01*
X25709Y2945D01*
X25726Y2964D01*
X25728Y2966D01*
X25732Y2975D01*
X25739Y2989D01*
X25747Y3011D01*
X25756Y3038D01*
X25762Y3072D01*
X25766Y3113D01*
X25768Y3160D01*
Y3162D01*
Y3166D01*
Y3173D01*
Y3183D01*
X25766Y3207D01*
X25762Y3236D01*
X25758Y3270D01*
X25749Y3305D01*
X25736Y3334D01*
X25721Y3362D01*
X25719Y3364D01*
X25713Y3373D01*
X25704Y3383D01*
X25692Y3396D01*
X25675Y3407D01*
X25656Y3417D01*
X25634Y3426D01*
X25611Y3428D01*
D02*
G37*
G36*
X36127Y3913D02*
X36125D01*
X36117Y3911D01*
X36104Y3909D01*
X36089Y3903D01*
X36072Y3892D01*
X36053Y3875D01*
X36036Y3854D01*
X36021Y3824D01*
X36019Y3820D01*
X36017Y3813D01*
X36015Y3805D01*
X36012Y3794D01*
X36008Y3779D01*
X36006Y3760D01*
X36002Y3739D01*
X35998Y3713D01*
X35995Y3683D01*
X35991Y3649D01*
X35989Y3611D01*
X35987Y3568D01*
X35985Y3522D01*
X35983Y3468D01*
Y3409D01*
Y3405D01*
Y3394D01*
Y3379D01*
Y3356D01*
X35985Y3330D01*
Y3300D01*
X35987Y3268D01*
Y3234D01*
X35991Y3164D01*
X35995Y3128D01*
X36000Y3096D01*
X36004Y3064D01*
X36008Y3036D01*
X36015Y3013D01*
X36021Y2994D01*
X36023Y2989D01*
X36027Y2981D01*
X36036Y2966D01*
X36049Y2951D01*
X36064Y2934D01*
X36083Y2919D01*
X36104Y2911D01*
X36127Y2906D01*
X36130D01*
X36138Y2909D01*
X36151Y2911D01*
X36166Y2917D01*
X36183Y2928D01*
X36200Y2943D01*
X36217Y2964D01*
X36232Y2994D01*
Y2996D01*
X36234Y2998D01*
X36236Y3004D01*
X36238Y3013D01*
X36240Y3024D01*
X36244Y3038D01*
X36249Y3058D01*
X36253Y3079D01*
X36255Y3104D01*
X36259Y3134D01*
X36264Y3168D01*
X36266Y3207D01*
X36268Y3249D01*
X36270Y3296D01*
X36272Y3349D01*
Y3409D01*
Y3413D01*
Y3424D01*
Y3441D01*
Y3462D01*
X36270Y3488D01*
Y3517D01*
X36268Y3549D01*
Y3583D01*
X36262Y3654D01*
X36259Y3690D01*
X36255Y3722D01*
X36251Y3754D01*
X36244Y3781D01*
X36238Y3805D01*
X36232Y3824D01*
X36230Y3828D01*
X36225Y3839D01*
X36217Y3852D01*
X36204Y3869D01*
X36189Y3886D01*
X36172Y3898D01*
X36151Y3909D01*
X36127Y3913D01*
D02*
G37*
G36*
X46301Y3698D02*
X46028Y3209D01*
X46301D01*
Y3698D01*
D02*
G37*
G36*
X1690Y28817D02*
X1594D01*
X1579Y28815D01*
X1543D01*
X1503Y28810D01*
X1462Y28806D01*
X1420Y28802D01*
X1384Y28793D01*
X1379D01*
X1369Y28789D01*
X1352Y28785D01*
X1330Y28776D01*
X1307Y28768D01*
X1281Y28755D01*
X1258Y28742D01*
X1237Y28725D01*
X1235Y28723D01*
X1228Y28717D01*
X1220Y28706D01*
X1207Y28693D01*
X1196Y28676D01*
X1184Y28657D01*
X1175Y28636D01*
X1167Y28612D01*
Y28610D01*
X1164Y28602D01*
X1162Y28589D01*
X1160Y28570D01*
X1158Y28542D01*
X1156Y28510D01*
X1154Y28468D01*
Y28444D01*
Y28419D01*
Y28312D01*
X2107D01*
Y28489D01*
Y28491D01*
Y28493D01*
Y28500D01*
Y28508D01*
X2105Y28527D01*
Y28553D01*
X2103Y28580D01*
X2099Y28608D01*
X2092Y28634D01*
X2086Y28655D01*
X2084Y28657D01*
X2082Y28663D01*
X2078Y28672D01*
X2069Y28685D01*
X2050Y28712D01*
X2022Y28738D01*
X2020Y28740D01*
X2014Y28744D01*
X2003Y28751D01*
X1988Y28757D01*
X1969Y28766D01*
X1946Y28776D01*
X1916Y28785D01*
X1884Y28793D01*
X1882D01*
X1880Y28795D01*
X1867Y28798D01*
X1846Y28802D01*
X1818Y28806D01*
X1782Y28810D01*
X1739Y28812D01*
X1690Y28817D01*
D02*
G37*
G36*
X1335Y29985D02*
X1324D01*
X1311Y29983D01*
X1294Y29981D01*
X1258Y29975D01*
X1241Y29966D01*
X1224Y29958D01*
X1222Y29955D01*
X1218Y29953D01*
X1209Y29947D01*
X1201Y29938D01*
X1192Y29928D01*
X1181Y29915D01*
X1173Y29900D01*
X1167Y29883D01*
Y29881D01*
X1164Y29875D01*
X1162Y29864D01*
X1160Y29847D01*
X1158Y29834D01*
Y29821D01*
X1156Y29804D01*
Y29787D01*
Y29766D01*
X1154Y29743D01*
Y29717D01*
Y29689D01*
Y29504D01*
X1520D01*
Y29679D01*
Y29681D01*
Y29685D01*
Y29694D01*
Y29704D01*
Y29717D01*
Y29732D01*
X1518Y29766D01*
Y29800D01*
X1513Y29834D01*
X1511Y29864D01*
X1509Y29875D01*
X1507Y29885D01*
Y29887D01*
X1505Y29894D01*
X1501Y29900D01*
X1494Y29911D01*
X1486Y29924D01*
X1477Y29934D01*
X1465Y29947D01*
X1450Y29958D01*
X1448Y29960D01*
X1441Y29962D01*
X1433Y29966D01*
X1418Y29973D01*
X1403Y29977D01*
X1382Y29981D01*
X1360Y29983D01*
X1335Y29985D01*
D02*
G37*
G36*
X1782Y26322D02*
X1247Y26158D01*
X1782Y25999D01*
Y26322D01*
D02*
G37*
G36*
X1690Y27627D02*
X1594D01*
X1579Y27625D01*
X1543D01*
X1503Y27621D01*
X1462Y27616D01*
X1420Y27612D01*
X1384Y27603D01*
X1379D01*
X1369Y27599D01*
X1352Y27595D01*
X1330Y27586D01*
X1307Y27578D01*
X1281Y27565D01*
X1258Y27552D01*
X1237Y27535D01*
X1235Y27533D01*
X1228Y27527D01*
X1220Y27516D01*
X1207Y27503D01*
X1196Y27486D01*
X1184Y27467D01*
X1175Y27446D01*
X1167Y27423D01*
Y27420D01*
X1164Y27412D01*
X1162Y27399D01*
X1160Y27380D01*
X1158Y27352D01*
X1156Y27320D01*
X1154Y27278D01*
Y27254D01*
Y27229D01*
Y27122D01*
X2107D01*
Y27299D01*
Y27301D01*
Y27303D01*
Y27310D01*
Y27318D01*
X2105Y27337D01*
Y27363D01*
X2103Y27391D01*
X2099Y27418D01*
X2092Y27444D01*
X2086Y27465D01*
X2084Y27467D01*
X2082Y27474D01*
X2078Y27482D01*
X2069Y27495D01*
X2050Y27523D01*
X2022Y27548D01*
X2020Y27550D01*
X2014Y27555D01*
X2003Y27561D01*
X1988Y27567D01*
X1969Y27576D01*
X1946Y27586D01*
X1916Y27595D01*
X1884Y27603D01*
X1882D01*
X1880Y27606D01*
X1867Y27608D01*
X1846Y27612D01*
X1818Y27616D01*
X1782Y27621D01*
X1739Y27623D01*
X1690Y27627D01*
D02*
G37*
G36*
X46348Y1102D02*
X46346D01*
X46339Y1098D01*
X46329Y1096D01*
X46314Y1090D01*
X46295Y1083D01*
X46271Y1077D01*
X46244Y1068D01*
X46212Y1060D01*
X46209D01*
X46207Y1058D01*
X46195Y1056D01*
X46178Y1049D01*
X46156Y1043D01*
X46133Y1032D01*
X46109Y1021D01*
X46090Y1011D01*
X46075Y998D01*
X46073Y996D01*
X46071Y992D01*
X46065Y985D01*
X46060Y975D01*
X46054Y962D01*
X46048Y947D01*
X46046Y930D01*
X46043Y911D01*
Y909D01*
Y900D01*
X46046Y889D01*
X46048Y877D01*
X46052Y860D01*
X46058Y843D01*
X46067Y828D01*
X46078Y811D01*
X46080Y809D01*
X46084Y804D01*
X46092Y798D01*
X46103Y792D01*
X46116Y783D01*
X46131Y777D01*
X46150Y772D01*
X46169Y770D01*
X46178D01*
X46186Y772D01*
X46199Y775D01*
X46212Y779D01*
X46229Y783D01*
X46246Y792D01*
X46263Y802D01*
X46265Y804D01*
X46271Y809D01*
X46278Y815D01*
X46288Y826D01*
X46310Y849D01*
X46320Y864D01*
X46329Y881D01*
Y883D01*
X46331Y889D01*
X46335Y902D01*
X46339Y919D01*
X46341Y941D01*
X46346Y970D01*
X46348Y1004D01*
Y1047D01*
Y1102D01*
D02*
G37*
G36*
X41212Y1456D02*
X41199D01*
X41186Y1451D01*
X41169Y1447D01*
X41150Y1439D01*
X41131Y1428D01*
X41110Y1411D01*
X41090Y1390D01*
X41088Y1388D01*
X41082Y1379D01*
X41076Y1364D01*
X41067Y1343D01*
X41056Y1317D01*
X41050Y1288D01*
X41044Y1251D01*
X41041Y1211D01*
X41382D01*
Y1213D01*
Y1217D01*
Y1222D01*
X41380Y1230D01*
X41378Y1253D01*
X41373Y1279D01*
X41367Y1309D01*
X41359Y1339D01*
X41346Y1368D01*
X41329Y1394D01*
X41327Y1396D01*
X41320Y1405D01*
X41310Y1413D01*
X41297Y1426D01*
X41278Y1437D01*
X41259Y1447D01*
X41237Y1454D01*
X41212Y1456D01*
D02*
G37*
G36*
X44742Y46103D02*
X44582Y45568D01*
X44906D01*
X44742Y46103D01*
D02*
G37*
G36*
X6369Y9184D02*
X6246D01*
Y8880D01*
X6375D01*
X6395Y8882D01*
X6418Y8883D01*
X6440Y8885D01*
X6458Y8888D01*
X6474Y8893D01*
X6476D01*
X6480Y8896D01*
X6487Y8899D01*
X6495Y8904D01*
X6504Y8912D01*
X6513Y8919D01*
X6523Y8930D01*
X6532Y8943D01*
X6534Y8945D01*
X6535Y8949D01*
X6540Y8957D01*
X6545Y8968D01*
X6548Y8981D01*
X6553Y8995D01*
X6554Y9012D01*
X6556Y9031D01*
Y9034D01*
Y9041D01*
X6554Y9050D01*
X6553Y9063D01*
X6550Y9077D01*
X6546Y9091D01*
X6540Y9107D01*
X6532Y9121D01*
X6531Y9122D01*
X6528Y9127D01*
X6523Y9133D01*
X6517Y9141D01*
X6507Y9149D01*
X6498Y9158D01*
X6487Y9165D01*
X6474Y9171D01*
X6473D01*
X6468Y9173D01*
X6458Y9176D01*
X6444Y9177D01*
X6425Y9180D01*
X6400Y9182D01*
X6384D01*
X6369Y9184D01*
D02*
G37*
G36*
X11743Y1996D02*
X11587D01*
Y1043D01*
X11783D01*
X11802Y1045D01*
X11828D01*
X11855Y1047D01*
X11883Y1051D01*
X11909Y1058D01*
X11930Y1064D01*
X11932Y1066D01*
X11938Y1068D01*
X11947Y1072D01*
X11960Y1081D01*
X11987Y1100D01*
X12013Y1128D01*
X12015Y1130D01*
X12019Y1136D01*
X12026Y1147D01*
X12032Y1162D01*
X12041Y1181D01*
X12051Y1204D01*
X12060Y1234D01*
X12068Y1266D01*
Y1268D01*
X12070Y1270D01*
X12072Y1283D01*
X12077Y1304D01*
X12081Y1332D01*
X12085Y1368D01*
X12087Y1411D01*
X12092Y1460D01*
Y1515D01*
Y1517D01*
Y1522D01*
Y1530D01*
Y1541D01*
Y1556D01*
X12089Y1571D01*
Y1607D01*
X12085Y1647D01*
X12081Y1688D01*
X12077Y1730D01*
X12068Y1766D01*
Y1768D01*
Y1771D01*
X12064Y1781D01*
X12060Y1798D01*
X12051Y1820D01*
X12043Y1843D01*
X12030Y1869D01*
X12017Y1892D01*
X12000Y1913D01*
X11998Y1915D01*
X11992Y1922D01*
X11981Y1930D01*
X11968Y1943D01*
X11951Y1954D01*
X11932Y1966D01*
X11911Y1975D01*
X11887Y1983D01*
X11885D01*
X11877Y1986D01*
X11864Y1988D01*
X11845Y1990D01*
X11817Y1992D01*
X11785Y1994D01*
X11743Y1996D01*
D02*
G37*
G36*
X8386Y9184D02*
X8210D01*
Y8913D01*
X8378D01*
X8403Y8915D01*
X8428D01*
X8454Y8918D01*
X8476Y8919D01*
X8483Y8921D01*
X8491Y8923D01*
X8493D01*
X8498Y8924D01*
X8502Y8927D01*
X8510Y8932D01*
X8520Y8938D01*
X8527Y8945D01*
X8537Y8954D01*
X8545Y8965D01*
X8546Y8967D01*
X8548Y8971D01*
X8551Y8978D01*
X8556Y8989D01*
X8559Y9000D01*
X8562Y9015D01*
X8564Y9031D01*
X8565Y9050D01*
Y9052D01*
Y9058D01*
X8564Y9067D01*
X8562Y9080D01*
X8557Y9107D01*
X8551Y9119D01*
X8545Y9132D01*
X8543Y9133D01*
X8542Y9136D01*
X8537Y9143D01*
X8531Y9149D01*
X8523Y9155D01*
X8513Y9163D01*
X8502Y9169D01*
X8490Y9174D01*
X8488D01*
X8483Y9176D01*
X8476Y9177D01*
X8463Y9179D01*
X8454Y9180D01*
X8444D01*
X8432Y9182D01*
X8403D01*
X8386Y9184D01*
D02*
G37*
G36*
X49309Y1468D02*
X49113D01*
X49104Y1466D01*
X49081Y1462D01*
X49055Y1451D01*
X49030Y1434D01*
X49017Y1424D01*
X49006Y1411D01*
X48998Y1396D01*
X48991Y1377D01*
X48987Y1356D01*
X48985Y1332D01*
Y1330D01*
Y1326D01*
X48987Y1319D01*
Y1311D01*
X48994Y1290D01*
X49004Y1266D01*
X49013Y1253D01*
X49023Y1241D01*
X49036Y1230D01*
X49051Y1219D01*
X49070Y1211D01*
X49091Y1204D01*
X49115Y1200D01*
X49143Y1198D01*
X49309D01*
Y1468D01*
D02*
G37*
G36*
X38719Y40369D02*
X38394D01*
X38719Y40188D01*
Y40369D01*
D02*
G37*
%LPD*%
D20*
X58500Y54475D02*
G03*
X58500Y54475I-4000J0D01*
G01*
Y4475D02*
G03*
X58500Y4475I-4000J0D01*
G01*
X8500Y54475D02*
G03*
X8500Y54475I-4000J0D01*
G01*
Y4475D02*
G03*
X8500Y4475I-4000J0D01*
G01*
X41035Y46850D02*
X48535Y46850D01*
X48535Y52550D02*
X48535Y46850D01*
X41035Y52550D02*
X48535Y52550D01*
X41035Y46850D02*
Y52550D01*
X41035Y47700D02*
X48535Y47700D01*
X8730Y1600D02*
Y5945D01*
X10360D01*
X9335Y57975D02*
X23935D01*
X9335Y40775D02*
Y57975D01*
Y40775D02*
X23935D01*
Y57975D01*
X24385D02*
X38985D01*
X24385Y40775D02*
Y57975D01*
Y40775D02*
X38985D01*
Y57975D01*
X39500Y281D02*
Y4525D01*
Y281D02*
X49960D01*
Y4525D01*
X39500Y2000D02*
X49960D01*
X7285Y17100D02*
X51785D01*
X7285D02*
Y39100D01*
X51785D01*
Y17100D02*
Y39100D01*
D26*
X2648Y31167D02*
X4298Y31167D01*
Y28167D02*
Y31167D01*
X2648Y28168D02*
X4298Y28167D01*
X2648Y28168D02*
X2648Y31167D01*
D27*
X8960Y12525D02*
X8960Y4525D01*
X49960Y4525D01*
X8960Y12525D02*
X49960Y12525D01*
X49960Y4525D02*
X49960Y12525D01*
D28*
X40958Y55519D02*
X48558Y55519D01*
X40958Y47719D02*
X40958Y55519D01*
X40958Y47719D02*
X48558Y47719D01*
X48558Y55519D01*
D29*
X55600Y26809D02*
D03*
M02*
